<svg xmlns="http://www.w3.org/2000/svg" xmlns:xlink="http://www.w3.org/1999/xlink" width="341" height="341" viewBox="0 0 341 341">
  <defs>
    <path id="logo-pixl.inline-a" d="M341,6 L341,335 C341,338.313708 338.313708,341 335,341 L179,341 C175.686292,341 173,338.313708 173,335 L173,168 L173,168 L6,168 C2.6862915,168 1.36464786e-12,165.313708 1.36424205e-12,162 L1.36424205e-12,6 C1.36472442e-12,2.6862915 2.6862915,1.14295556e-13 6,1.13686838e-13 L335,1.13686838e-13 C338.313708,1.13966298e-13 341,2.6862915 341,6 Z"/>
  </defs>
  <g fill="none" fill-rule="evenodd" transform="matrix(0 -1 1 0 0 341)">
    <mask id="logo-pixl.inline-b" fill="#fff">
      <use xlink:href="#logo-pixl.inline-a"/>
    </mask>
    <g mask="url(#logo-pixl.inline-b)">
      <g transform="rotate(-180 170.5 170.5)">
        <polygon fill="#972363" points="168 0 0 168 168 168"/>
        <polygon fill="#B42A76" points="0 0 0 168 168 0"/>
      </g>
      <g transform="rotate(-90 170.5 -2.5)">
        <polygon fill="#53A3C1" points="0 0 168 168 168 0" transform="rotate(-90 84 84)"/>
        <polygon fill="#68C9EE" points="0 168 168 168 0 0" transform="rotate(-90 84 84)"/>
      </g>
      <g transform="rotate(-90 84 84)">
        <polygon fill="#C6756D" points="0 0 0 168 168 168"/>
        <polygon fill="#F9CC6D" points="0 0 168 168 168 0"/>
      </g>
    </g>
  </g>
</svg>
