<svg xmlns="http://www.w3.org/2000/svg" width="627" height="742" viewBox="0 0 627 742">
  <g fill="none" transform="translate(3 3)">
    <g fill="#2C3B4C" opacity=".495" transform="translate(119 92)">
      <path d="M65 238.800995L62.6184617 238.800995C62.5412747 235.194831 61.3637904 231.699008 59.2446155 228.784411 57.7892309 226.197347 55.8046154 222.615257 53.2246155 217.242123 46.6092308 203.112769 22.2646154 201.189055 22 201.189055L22 199C23.0584615 199 47.8 200.99005 55.0769233 216.379768 57.6569232 221.752902 59.6415386 225.268657 61.0307694 227.855722 63.4847481 231.062187 64.8730818 234.960166 65 239M340.87424 579C339.880922 579 239.886898 552.561812 157.24283 523.810283 74.5987622 495.058753 65.1953506 449.783355 59.5003265 422.618116L58.970557 420.436964C53.4079754 393.998776 61.3545204 312.436965 61.6856265 309L66.4535535 309.462668C66.4535535 310.32191 58.2421236 393.932679 63.6060416 419.511628L64.0695899 421.626683C69.5659503 447.6683 78.704477 491.225214 158.765918 519.381886 241.211322 548.331702 341.006682 574.108935 342 574.373319L340.87424 579z"/>
      <path d="M61.5842874,321 C57.6651489,314.023927 54.7740916,306.522332 53,298.725842 C53.9246218,291.843541 56.7853566,285.362385 61.2515633,280.03146 C62.665341,277.897715 63.9540277,275.684279 65.1111653,273.402247 C66.4999649,270.188087 66.9162756,266.639843 66.3089728,263.193258 L66.3089728,262 L68.7045881,262 L68.7045881,263.126966 C69.378646,267.090757 68.893531,271.164053 67.307146,274.860674 C66.1216819,277.168037 64.7648265,279.383943 63.247909,281.489888 C59.1446204,286.415795 56.4340758,292.342615 55.395615,298.65955 C57.1408028,306.100132 59.9180173,313.262227 63.6471783,319.939324 L61.5842874,321 Z"/>
      <path d="M59.0173856,281 C59.0173856,281 51.8799727,255.611871 47.7825693,245.099599 C42.6311059,235.466382 34.8351416,227.50657 25.3129368,222.157722 C22.735003,220.364062 20.4971289,218.125247 18.7042214,215.54623 C16.9859554,213.232208 16.391171,212.438829 13.813772,213.232208 C7.07740695,213.828452 2.05489463,219.705204 2.51286858,226.455192 L2.51286858,227.90972 L0.133731026,227.90972 C-0.391760868,224.04191 0.644408982,220.124002 3.01313741,217.022269 C5.38186586,213.920537 8.88802311,211.890492 12.7563775,211.38099 C16.9859554,210.124807 18.5059599,212.174369 20.2903131,214.620622 C21.9006382,216.948511 23.9421263,218.94597 26.3042441,220.504849 C36.2252824,226.124243 44.3229586,234.477763 49.6330097,244.57068 C53.7965003,254.950722 60.9339128,280.140506 61,280.404966 L59.0173856,281 Z"/>
      <path d="M3.39202657 284.671126L1 284.671126C1 284.671126 2.86046512 272.042363 5.51827243 261.123746 9.1860514 249.147039 13.6248122 237.41512 18.807309 226L21 226.986622C15.8761245 238.290893 11.4385519 249.887888 7.71096346 261.715719 5.05315615 272.502787 3.25913621 284.86845 3.25913621 285M43.0699001 382.984716C40.9929842 383.063123 38.9156948 382.839563 36.9015692 382.320869 29.5030257 380.94146 23.666373 375.168057 22.1369472 367.716244 20.021625 361.291365 17.2966061 355.088676 14 349.194925L16.0342368 348C19.5111608 354.069187 22.3274249 360.501826 24.4336662 367.185166 25.7588706 373.795896 30.9800903 378.893044 37.5577747 379.997405 44.8611322 380.886204 52.2662416 380.299532 59.3437948 378.271406L60 380.528484C54.5805427 382.00391 49.0081434 382.828334 43.3980029 382.984716M60.8828625 338C58.1567158 337.987181 55.5811374 336.750287 53.869845 334.632077 53.2836157 334.024584 52.7314376 333.385244 52.2158314 332.716983 49.8347572 329.614429 47.0540859 326.83892 43.9457633 324.462264 39.594908 321.800816 34.9840297 319.58816 30.1843702 317.858492 24.100052 315.808965 19.4527513 310.847819 17.8123485 304.650945 17.6088062 302.944266 17.2319589 301.262664 16.6876192 299.632076 14.7028029 291.839623 11.9902206 281.075472 16.290656 275.990566 20.5910913 270.90566 32.0368655 261.330189 36.8004247 261L36.8004247 263.377358C29.5001795 266.619615 23.0977176 271.58251 18.1431512 277.839623 14.5704818 282 17.2169036 292.433963 19.0032383 299.301887 19.5325226 301.415095 19.9956464 303.198114 20.194128 304.518867 21.7728842 309.81041 25.813652 314.015828 31.0444572 315.811321 36.0039547 317.51082 40.7714705 319.724152 45.2689741 322.415096 48.58395 324.909714 51.5441216 327.842174 54.0683264 331.132075L55.6561794 333.047172C57.2378588 335.016212 59.8055828 335.913249 62.2722339 335.358493L63 337.603775C62.2341289 337.739649 61.4502519 337.739649 60.6843808 337.603775M36.1381214 345C32.2275311 342.156933 29.4189209 338.066344 28.1823204 333.412811 26.3259668 327.553381 25.9944751 327.421709 20.160221 325.380782L15.718232 323.734874C9.01551171 320.915188 3.7193416 315.561166 1 308.855873L3.25414365 308C5.74178767 314.053279 10.4942234 318.914171 16.5138122 321.562275L20.8895028 323.142348C27.519337 325.314944 28.2486188 325.907473 30.3701657 332.68861 31.4205805 336.744945 33.7423238 340.364677 37 343.024911L36.1381214 345zM339.093112 258C339.093112 258 304.527082 252.885329 292.210451 244.885459 282.061471 239.120882 270.759883 235.629172 259.101227 234.656116 249.963082 233.082371 240.427625 229.541445 231.686791 233.082371 223.412091 236.085582 214.58235 237.293143 205.795378 236.623298 201.822271 235.836425 204.206135 230.721754 215.330834 226.787392 226.455533 222.853029 248.440058 224.426774 256.717363 222.459593 264.994669 220.492412 294.925407 225.213647 304.858174 229.541445 314.790941 233.869244 325.91564 235.442989 329.094127 238.590479 332.27261 241.737969 343 244.492022 343 247.705085 342.204701 251.304994 340.888837 254.772382 339.093112 258M444.799504 248.72417C438.232043 252.712511 436.130456 254.706681 437.3126 260.290358 438.49474 265.874036 454.256645 265.874036 460.16736 263.481031 466.125851 262.152427 472.283642 262.016936 478.293549 263.082197 478.293549 263.082197 487.750692 252.712511 484.204264 245.533497 480.657836 238.354483 482.234026 244.270522 472.382837 244.669356 462.531644 245.06819 460.955455 246.729999 455.438788 246.729999 451.807812 246.794694 448.212587 247.468564 444.799504 248.72417"/>
      <path d="M386.518055 425L385 420.505037C385.848175 420.100542 386.627693 419.565208 387.310088 418.918581 389.332594 416.985746 391.882311 415.697457 394.636364 415.216846 396.880448 415.216846 398.266502 413.762594 401.236611 411.184602 401.896636 410.523578 402.622665 409.796453 403.480698 409.069326 408.898543 404.892015 412.73853 398.995125 414.371109 392.345423 414.613449 386.18067 413.078236 380.076412 409.948941 374.762192 408.773345 372.3422 407.759089 369.846884 406.912828 367.292625 405.526774 362.863765 403.546699 350.172107 401.500623 336.753324 400.048569 327.16848 398.53051 316.922613 397.342465 311.502217 396.814444 308.924225 396.220423 306.478434 395.692402 304.164853 393.316314 293.918984 391.270235 285.061266 395.098381 276.269649 399.784557 265.627166 431.201744 261.661024 437.471979 261L438 265.759371C424.799502 267.213623 402.226649 271.906892 399.454544 278.186618 396.220423 285.523982 398.068494 293.25796 400.312578 303.107215 400.906599 305.486902 401.434619 307.932689 401.96264 310.510681 403.216687 316.393793 404.734745 326.375252 406.186799 336.026199 408.166874 348.651754 410.14695 361.740025 411.467 365.83837 412.287494 368.223043 413.234884 370.56201 414.305105 372.845224 417.87142 379.009058 419.52568 386.096314 419.057285 393.204755 417.296492 400.909735 412.908507 407.758804 406.648816 412.572753L404.470736 414.555825C402.225166 417.403326 399.001859 419.311962 395.428393 419.910117 393.566109 420.303374 391.864601 421.247528 390.544209 422.620313 389.439189 423.611684 388.164758 424.395414 386.782067 424.933896M372.362427 412C365.279 405.398292 356.520798 400.944192 347.078301 399.141426 333.977718 397.342559 332.536654 399.141426 332.405646 399.607799 332.219546 400.067953 332.421313 400.595675 332.864169 400.807045L330.964582 402.272789C329.94745 401.260137 329.70747 399.687107 330.375057 398.408556 330.899081 397.475808 332.536654 394.677569 347.405816 396.742937 357.334109 398.52772 366.55806 403.149357 374 410.067884L372.362427 412z"/>
      <path d="M331,407 C328.750853,406.899864 326.547905,406.316084 324.535732,405.286968 C320.52789,403.508051 314.51612,399.423132 309.15078,384.862369 C303.785439,370.30161 318.911823,362.065884 319.105749,362 L320.010748,364.174229 C312.433279,367.374605 308.630337,376.052385 311.34863,383.939969 C317.166471,399.291361 323.630736,402.058564 325.63466,403.244509 C327.329256,404.046701 329.142004,404.558689 331,404.759881 L331,407 Z"/>
      <path d="M392.994004 409.678347C384.550226 409.678347 369.905546 401.508353 367.068966 399.835754 357.08318 396.093389 346.551098 393.921969 335.866566 393.402685 329.575115 393.209722 323.277614 393.338562 317 393.78867L317 391.472767C323.365729 391.022674 329.751062 390.893841 336.130433 391.086782 347.21393 391.664569 358.118758 394.056747 368.388307 398.163158 375.885874 402.94163 384.302767 406.181094 393.125937 407.684097 396.880269 407.680281 400.517106 406.407134 403.416792 404.081577L405 405.818505C401.662794 408.51949 397.462769 409.998543 393.125937 410M233.97097 435.734844L232 434.342764C235.482047 429.238479 248.818946 418.499597 275.295645 399.408245 291.498116 386.918157 305.283681 371.525633 315.963329 354L318 355.19321C307.162305 373.087127 293.154243 388.816478 276.675325 401.595797 250.789916 420.28941 237.25592 431.160875 233.97097 436M422.30275 458L420.107151 457.262194C422.843415 449.151126 423.247304 440.388146 421.269525 432.042682 418.691232 422.164515 414.544478 412.802285 409 404.341464L410.937294 403C416.819517 411.714627 421.190349 421.429848 423.852584 431.707316 425.798944 440.442447 425.260518 449.57673 422.30275 458M344.024932 468C340.944885 467.808087 337.913313 467.148865 335.0372 466.045602 330.544453 464.325831 325.77953 463.399628 320.960824 463.309446 314.087371 463.05887 307.251781 462.186587 300.540166 460.703582 296.178473 459.856676 292.015038 459.00977 287.917689 458.553744 280.47641 457.358245 273.140738 455.593966 265.977048 453.276872 262.293354 452.010962 258.514933 451.030777 254.676296 450.345275 250.909379 450.345275 233.660863 453.86319 233.462604 453.86319L233 451.583063C233.726949 451.583063 250.645034 448 254.676296 448 258.747923 448.63695 262.75184 449.640049 266.637911 450.996741 273.658039 453.342865 280.864374 455.107937 288.182034 456.273613 292.411555 456.729642 296.773249 457.576545 301.00277 458.358304 307.506515 459.877534 314.148318 460.750515 320.828652 460.964167 325.919293 461.033853 330.955804 462.004766 335.698063 463.830619 338.516503 464.952569 341.515262 465.570265 344.55362 465.654721L348.386625 465.654721 363.982986 464.74267C366.512414 464.54727 369.053477 464.54727 371.582905 464.74267 375.335656 465.135131 379.127832 464.937223 382.81757 464.156349 387.047091 462.592832 398.810446 456.794787 398.942621 456.729642L400 458.879477C399.537397 458.879477 387.9723 464.807815 383.610605 466.371335 379.638865 467.216435 375.553514 467.414496 371.516818 466.957653 369.097717 466.762112 366.666434 466.762112 364.24733 466.957653L348.584885 467.869704 343.958845 467.869704"/>
      <path d="M392.419581 462C392.419581 462 392.419581 458.407037 389.640668 458.407037 387.751282 458.221483 385.900423 457.759125 384.149004 457.035176 380.771084 455.681823 377.138862 455.058133 373.496502 455.206032 370.458368 455.446551 367.447403 455.949312 364.498116 456.708543 360.331253 457.566967 356.108324 458.134537 351.860679 458.407037 348.260562 457.815911 344.895196 456.256258 342.134481 453.899499 340.4142 452.788944 338.164604 451.15578 337.370629 451.286433 334.194727 451.743719 324.931684 452.658291 308.258203 454.030152 290.195266 455.59799 272.198494 455.663318 272 455.663318L272 453.311557C272 453.311557 290.062937 453.311557 308.059709 451.743719 324.733189 450.306533 333.93007 449.391958 337.039806 449 339.466688 449.434682 341.742772 450.468417 343.656268 452.005024 346.077593 454.016338 348.963671 455.407447 352.059171 456.055276 356.153757 455.7827 360.222692 455.215025 364.233459 454.356785 367.409361 453.834171 370.849918 453.246233 373.43034 452.919599 377.428966 452.66768 381.433336 453.315454 385.141473 454.814071 386.639352 455.447033 388.221294 455.86501 389.839159 456.055276 393.544379 456.055276 394.801506 459.778895 395 461.804022L392.419581 462zM374.721162 491C370.661366 490.744907 366.646171 490.025378 362.757832 488.856148 355.956391 486.953868 348.954177 485.820398 341.888466 485.477957 337.036579 485.302767 332.183195 485.783727 327.466004 486.907191 319.06075 488.702737 310.394245 489.010779 301.877769 487.816706 285.813986 485.749756 271.360633 477.226079 262 464.299304L263.993889 463C272.941905 475.214119 286.599786 483.332105 301.811306 485.477957 310.105897 486.672091 318.554502 486.363784 326.734913 484.568446 331.705216 483.32699 336.826403 482.758649 341.954927 482.879352 349.179194 483.212721 356.339064 484.36824 363.289533 486.322506 367.918084 488.075876 372.925029 488.656912 377.844921 488.011602L380.503439 487.232017C387.149732 485.348027 391.80214 483.918793 393.064935 478.721577 394.145518 475.785724 393.646204 472.515721 391.735676 470.016243L393.463714 468.392113C395.928178 471.463165 396.652081 475.537898 395.391138 479.241299 393.796029 485.73782 387.681437 487.556843 381.23453 489.440836L378.576011 490.220418C377.326483 490.58833 376.025931 490.763676 374.721162 490.74014M325.280215 284C325.280215 284 306.03187 263.591922 264.558629 264.376848 224.143716 265.096364 219.182802 273.076445 219.182802 273.141856L217 272.095288C217.463019 271.179541 222.490078 262.806996 264.558629 262.02207 306.627179 261.237144 326.206254 281.645222 327 282.430148L325.280215 284z"/>
      <path d="M320.849753 293L320.849753 290.84772C321.715646 290.84772 321.915469 289.86941 321.982078 289.543307 322.048683 289.217204 321.982078 287.847571 321.249395 287.651909L318.851532 286.6736C314.82067 284.721562 310.468202 283.484963 305.996313 283.021245 302.602598 282.37262 299.354455 281.135752 296.404855 279.368891 286.657465 273.876514 275.674339 270.829416 264.433329 270.498887 251.865098 269.994782 239.385092 272.762889 228.26554 278.521023L227 276.564404C249.021222 264.962624 275.564608 265.159337 297.403966 277.086169 300.043841 278.699309 302.95191 279.847148 305.996313 280.477641 310.628124 281.008469 315.133359 282.309843 319.317783 284.325658L321.582432 285.238746C323.337316 286.021803 324.305049 287.889905 323.91369 289.738969 323.746497 291.542773 322.232264 292.941552 320.383499 293M269.092466 314.79503L264.34589 314.79503C243.579623 313.155277 224.791096 295.52795 224 294.776397L225.648116 293C225.648116 293 244.568493 311.10559 264.807363 312.403726 277.019666 313.27435 289.189307 310.169034 299.615582 303.521738L301 305.571427C291.417927 311.730161 280.367658 314.995479 269.092466 315"/>
      <path d="M274.42246,290.993655 C269.231499,291.016417 264.051743,290.475929 258.962567,289.380473 C251.702328,287.554039 244.666876,284.823421 238,281.244427 L239.113636,279 C245.66526,282.456515 252.567373,285.09243 259.683155,286.855493 C268.532436,288.747091 277.623161,288.960748 286.541444,287.486738 L287,290.011718 C282.907332,290.722221 278.764759,291.050768 274.618984,290.993655"/>
      <path d="M260 283C262.761424 283 265 280.761424 265 278 265 275.238576 262.761424 273 260 273 257.238576 273 255 275.238576 255 278 255 280.761424 257.238576 283 260 283L260 283zM273.954894 270.620767C277.228657 276.449325 276.524302 283.670626 272.184316 288.773355 267.20611 289.318549 262.16792 288.877766 257.363928 287.476742 252.469318 286.297431 247.767154 284.442335 243.39604 281.966135 243.135591 280.81695 243.003645 279.642955 243.002578 278.465278 242.962683 276.158462 243.386182 273.866746 244.24854 271.722888L259.921428 269 273.561432 270.685598 273.954894 270.620767zM459 291C457.614477 289.122982 455.713901 287.696805 453.533336 286.897855 443.697389 283.143116 433.089335 281.918209 422.666669 283.333696 413.926715 284.276862 405.344405 286.356394 397.133336 289.520538L396 287.301344C404.374153 283.892089 413.163504 281.630346 422.133335 280.576516 433.005024 279.135614 444.061131 280.405575 454.333335 284.275172 457.051361 285.230147 459.390075 287.046668 461 289.453289L459 291zM437.958858 305C428.048846 304.118634 418.355103 301.706681 409.257145 297.858569L408.196572 297.41618C404.212279 296.469295 400.092545 296.149089 396 296.468202L396 294.193057C400.436336 293.768158 404.915833 294.045765 409.257145 295.014637L410.384002 295.457026C419.088929 299.261248 428.375536 301.714791 437.892571 302.724853 447.437714 302.724853 451.149713 299.628127 451.613713 298.806547L454 298.806547C454 301.713678 447.371428 304.747204 437.892571 304.747204"/>
      <path d="M454.133332 293L452.133332 289.886792C448.504421 287.185231 444.371718 285.300108 440 284.352201L440.666667 282C445.636249 283.000076 450.247281 285.392591 454 288.918239L456 292.031447 454.133332 293zM294.605314 287.533333L294 287.533333 295.076114 285.4C294.799807 285.268311 294.478079 285.268311 294.201771 285.4 294.583887 284.839287 294.8365 284.201918 294.9416 283.533333 295.345913 281.935863 295.345913 280.264137 294.9416 278.666667L297.497371 278C298.167543 280.172578 298.167543 282.494088 297.497371 284.666667 296.959314 286.533333 296.354 287.6 295.479657 288L294.807085 288M421 296C423.761423 296 426 293.537566 426 290.5 426 287.462434 423.761423 285 421 285 418.238577 285 416 287.462434 416 290.5 416 293.537566 418.238577 296 421 296zM434.174829 281.272997C438.963993 288.578295 437.531394 298.475861 430.885265 304L404.568759 295.332344C403.643762 291.719461 403.851142 287.894946 405.16088 284.412463 405.16088 284.412463 415.226943 282.364985 420.556035 281.955489L434.174829 281 434.174829 281.272997zM437.599992 325.25432C424.866661 325.25432 405.799999 312.398061 405 311.931769L406.333333 310C406.333333 310 425.66666 323.322548 437.533324 323.322548L438.066658 323.322548C445.733325 323.322548 448 321.39078 448.599989 320.724652L448.599989 320.191749 451 320.191749C451.002074 321.040553 450.666297 321.85535 450.066655 322.456585 446.554575 325.102145 442.178409 326.33789 437.799993 325.920448L437.266659 325.920448M361.092391 383.801152C354.524984 383.186677 348.105081 381.484364 342.09467 378.763689 334.341539 376.993027 326.273144 377.152333 318.595746 379.227666L318 377.172909C326.205903 375.05133 334.815484 375.05133 343.021387 377.172909 354.142004 381.680115 363.342991 383.337176 364.534487 380.884726 366.115536 377.917796 368.025125 375.138529 370.227183 372.599422 371.501406 371.269705 372.653428 369.827757 373.669279 368.291064 374.155339 367.415834 374.863098 366.684272 375.721299 366.170027 376.978987 365.308358 377.971899 364.645534 377.508541 361L379.891529 361C380.487278 366.037463 378.501453 367.628243 377.045182 368.423632 376.536183 368.714196 376.104739 369.123478 375.787491 369.616713 374.706805 371.342883 373.465665 372.962953 372.08062 374.455331 370.013327 376.633858 368.192958 379.034615 366.652699 381.613831 365.792175 383.337176 363.673962 384 361.026196 384M366.741362 503C362.764622 502.532874 358.897962 501.358808 355.315323 499.530613 352.857395 498.510204 350.266608 497.421767 347.742249 496.605441 342.453066 494.961544 336.770498 495.250095 331.666076 497.421767L328.078831 498.510204C318.911424 500.959183 294.863596 495.653061 294 495.448979L294.465013 493C294.465013 493 318.844996 498.442176 327.680247 496.129251L331.333924 495.108842C336.858348 492.736007 343.025596 492.446746 348.738706 494.292516 351.379643 495.147955 353.974121 496.147111 356.511072 497.285713 360.155647 499.333782 364.244853 500.409897 368.402124 500.414968L369 502.795918C368.337362 502.864119 367.66972 502.864119 367.007086 502.795918M173.357534 259C171.575853 248.329435 176.458978 236.134503 187.874931 222.746589 194.473748 214.992203 213.214388 209.491228 228.193703 205.183236 235.310697 203.641256 242.175245 201.097627 248.584048 197.62768 253.995077 192.192982 255.974723 185.101365 256.568616 168.598441 257.224887 159.911555 258.953837 151.340305 261.715693 143.081872 264.452967 134.195739 266.504668 125.111038 267.852593 115.908382 270.888049 93.3079924 264.091267 60.7660821 260.461918 56.5906433L262.243599 55C266.664806 60.1033139 273.263623 93.7719301 270.228167 116.239766 268.725609 125.562743 266.519649 134.757521 263.62935 143.744639 260.974211 151.820747 259.290548 160.186882 258.614249 168.664717 258.086344 183.775829 256.568616 192.65692 249.969799 199.350877 243.30047 203.18682 236.058741 205.917144 228.523644 207.436647 213.808282 211.74464 195.529559 217.11306 189.392659 224.337232 178.438623 237.128655 173.753463 248.660819 175.403167 258.602339L173.357534 259z"/>
      <path d="M78.3699966,254 L77.9067129,254 C75.9547,254.006729 74.2078606,252.791319 73.5386067,250.960747 C68.1752715,241.841368 62.3204718,233.019066 56,224.532704 L59.9048218,221.823829 C62.6845255,225.721966 76.3844942,245.410858 78.0390798,249.573275 C78.6943398,249.704972 79.3693221,249.704972 80.0245822,249.573275 C84.0788447,247.912085 87.3454356,244.76924 89.1578945,240.78595 C90.9271214,236.8902 91.9592947,232.701374 92.2023319,228.43084 C93.2716815,220.760725 95.5033103,213.297569 98.8206742,206.297354 C101.868201,198.445277 106.357327,191.230159 112.057359,185.022779 C114.175228,182.644255 116.624015,179.935381 119.536086,176.103315 C126.028956,168.044258 134.117486,161.409074 143.295934,156.612633 C145.877088,155.09302 148.524425,153.441267 151.171762,151.723445 L159.113772,146.768187 C164.87173,143.332541 167.3867,141.680788 168.048534,138.905844 C168.734999,136.705692 169.88598,134.678027 171.423889,132.959534 C174.541853,130.146607 175.595294,125.703438 174.071226,121.793686 C172.957381,118.69996 171.607701,115.695987 170.034037,112.808151 C164.867711,105.701415 162.748205,96.8337485 164.143712,88.1640007 C164.739363,85.3229861 165.26883,82.8783922 165.665931,80.6980785 C166.054632,74.0227418 168.963572,67.7426353 173.806492,63.1234296 L176.652379,60.6127657 C179.034983,58.5645922 179.034983,58.5645922 180.821935,54.0057548 C181.089046,52.8635723 181.535811,51.7708714 182.145603,50.7683194 C186.516167,39.4989002 195.041231,30.3265075 205.971635,25.1331176 L211.266309,22.4242432 C220.002521,17.7993356 229.003466,12.9762177 240.651749,22.4242432 C247.270091,27.7759219 248.527576,27.9080621 251.241096,28.2384127 C256.054706,28.8181431 260.74579,30.1561579 265.139615,32.2026191 C272.485975,35.241844 274.272927,33.5240212 276.390797,31.5419182 C280.438341,27.9253167 286.511053,27.757695 290.7526,31.1454974 C294.650207,33.7237 299.361113,34.7818393 303.989284,34.1186523 C310.477472,33.2518672 317.04542,34.986068 322.255909,38.9417702 C327.131571,42.5105259 333.214515,44.0286581 339.198864,43.170257 C344.09756,42.2909005 349.147236,43.3322401 353.295933,46.0773418 C356.356874,48.1341588 360.361055,48.1341588 363.421996,46.0773418 C369.326421,42.3077051 377.173379,44.0222121 380.960604,49.9094082 L380.960604,50.4379691 C385.017124,55.400548 390.486557,59.0175538 396.646074,60.810976 C402.094899,62.2182203 406.817652,65.6127804 409.882761,70.3250716 C410.676962,71.5804036 411.272612,72.1089646 411.669714,72.1089646 C413.619423,70.8695323 415.380305,69.3564329 416.898204,67.6161973 C420.339742,63.7180607 424.641662,58.9610129 430.134888,61.7359574 C432.120391,62.8591495 433.311693,61.7359574 436.157579,58.300312 C439.003467,54.8646663 441.518435,51.6933011 445.952725,54.7985962 C446.73582,55.5856972 447.82217,55.9953934 448.930979,55.921788 C452.173966,55.921788 454.755122,56.9128395 460.777813,66.0965845 C463.094233,69.5983003 464.682634,71.7125439 465.807752,73.2982265 C469.116924,77.7249237 469.116924,78.2534846 469.381656,85.3890562 L469.381656,89.3532628 C469.72687,93.4913415 469.436727,97.6577839 468.521271,101.708373 L469.381656,102.567284 C472.482466,106.58889 474.733971,111.196568 476,116.111656 L471.367159,117.366988 C470.372003,113.246564 468.572802,109.362449 466.072485,105.93686 C464.0208,103.888686 463.292781,103.029775 464.0208,100.453041 C464.826367,96.8561967 465.071919,93.1569102 464.748816,89.4854028 L464.748816,85.4551263 C464.748816,79.3106063 464.748816,79.3106063 462.167663,76.0731709 C460.910179,74.4874883 459.321778,72.2411048 456.939173,68.6733189 C451.776867,60.7449059 450.320833,60.6788358 448.798613,60.6127657 C446.73405,60.5832567 444.744503,59.8355333 443.173021,58.4985221 L442.97447,58.4985221 C442.445005,58.4985221 440.98897,60.4145553 440.260951,61.339537 C437.944531,64.3126918 434.039709,69.2018796 428.149385,66.0965845 C426.428617,65.105533 424.112197,67.484057 421.067758,70.9197024 C418.023321,74.3553481 415.375984,77.5267133 411.80208,76.9981523 C409.45739,76.5848279 407.445705,75.0908928 406.375039,72.9678759 C403.937335,69.2002623 400.148916,66.5056354 395.785692,65.4358836 C388.807484,63.2416103 382.635913,59.0346553 378.048534,53.3450539 C372.95241,47.1344637 370.106525,48.3897957 365.870783,50.3058289 C361.387336,53.1492538 355.661514,53.1492538 351.178064,50.3058289 C347.912898,48.1241778 343.908462,47.3389387 340.059249,48.1255152 C333.047085,49.1170483 325.924022,47.3393315 320.204221,43.170257 C315.872159,39.7947963 310.364725,38.29534 304.915852,39.0078403 C299.263956,39.8539652 293.49716,38.6085901 288.700913,35.5061245 C282.876772,32.2026191 281.685471,33.3258111 279.633785,35.5061245 C276.390797,38.5453495 273.015442,40.9238735 263.286479,37.0918071 C259.411135,35.2866298 255.282132,34.0834708 251.042546,33.5240212 C247.270091,33.0615306 245.350772,32.5990398 237.805862,26.9170106 C228.606366,19.4510883 222.318941,22.8206638 213.648912,27.4455713 L208.155688,30.2205161 C198.281719,34.8914065 190.581755,43.1694776 186.646076,53.3450539 C186.182792,54.6003859 185.719508,55.6575075 185.388591,56.5164191 C184.546517,59.8468527 182.612886,62.8004752 179.895367,64.9073226 L177.115663,67.3519168 C173.078277,71.3013717 170.709873,76.6447992 170.497321,82.2837611 C170.034037,84.4640748 169.570753,86.9747388 168.908919,89.8818235 C167.834029,97.4104711 169.784877,105.057999 174.33596,111.156398 C176.144063,114.215809 177.693702,117.42028 178.968799,120.736564 C181.062228,126.194498 179.710149,132.372264 175.527261,136.46125 C174.415721,137.602153 173.578382,138.980268 173.078474,140.491527 C172.01954,145.314644 167.982351,147.759238 161.95966,151.393094 C159.709423,152.714496 157.12827,154.234109 154.216199,156.216212 C151.304128,158.198315 148.789158,159.651858 146.141821,161.23754 C137.523792,165.539069 129.868816,171.540185 123.639458,178.878259 C120.528837,182.908536 118.08005,185.48527 115.895997,188.128074 C110.39136,193.859006 106.033471,200.586472 103.056413,207.949107 C99.994951,214.556752 97.9852654,221.600901 97.0999052,228.827261 C96.6226252,233.401781 95.3927542,237.866382 93.4598172,242.041282 C90.7623045,248.257595 85.071335,252.66802 78.3699966,253.735692"/>
      <path d="M119.376168 35L117 34.6642975C117.462032 30.9044306 123.600467 25.600333 133.501168 17.8791777 136.339369 15.5964014 138.979556 13.4479061 141.223715 11.5008322 149.144276 4.78678433 168.549649-1.59156118 194.027453.355512717 207.840967.947743985 220.824927 7.22428207 230 17.7448968L228.085864 19.2219873C219.296285 9.3275724 206.990584 3.40715334 193.895444 2.77256994 169.275701.89263653 150.596378 6.73385821 143.005841 13.3807656 140.761682 15.3278395 138.055491 17.4763348 135.21729 19.7591112 128.616822 25.19749 120.036215 31.911538 119.640187 35M267.942466 546C267.942466 546 251.815068 537.878009 232.118493 525.331843 213.67774 513.512032 179.241781 490.070509 148.705479 468.147736 125.811243 453.09722 101.452147 440.398401 76 430.245106L76.8592464 428C102.50168 438.238006 127.038649 451.047816 150.093493 466.232792 180.431507 488.155568 214.999658 511.531058 233.374315 523.284835 253.203082 535.831001 268.867809 543.820928 269 543.886962L267.942466 546z"/>
    </g>
    <path stroke="#2C3B4C" stroke-linecap="round" stroke-linejoin="round" stroke-width="6" d="M408.615602,735.884819 C410.462373,727.865978 414.049707,720.351468 419.123428,713.873714 C421.039949,710.833142 423.088646,707.726469 424.872993,704.619797 C428.390024,696.409404 429.95109,687.493807 429.432992,678.576625 C429.423363,674.989658 429.710723,671.408049 430.292123,667.868518 C432.668755,668.344479 435.009458,668.984981 437.297339,669.785403 C449.986032,673.751366 471.26603,680.42741 486.66429,665.621138 C493.781996,658.090934 499.112724,649.054095 502.260811,639.181372 C503.99607,633.58244 506.727379,628.342707 510.323417,623.714106 C513.987036,620.01396 517.918892,616.589509 522.086893,613.468698 C532.802408,605.647093 542.523024,596.546167 551.032977,586.367937 C569.140803,564.48903 584.076452,503.941963 586.257322,487.747605 C588.438193,471.553248 583.217321,438.966234 580.970365,424.754859 C580.90005,423.190379 580.656237,421.638546 580.243411,420.127902 C580.763904,409.896809 582.562216,399.771054 585.596453,389.986566 C589.365611,385.625152 591.6764,380.193775 592.205146,374.453203 C593.669684,370.796593 595.650383,367.368675 598.086884,364.273892 C601.524924,359.752863 604.306111,354.768036 606.347754,349.467624 C607.627496,343.551891 606.785268,337.374403 603.968626,332.017375 C603.031768,329.875669 602.258538,327.666026 601.655582,325.407435 C601.17967,321.872921 601.404234,318.279268 602.316451,314.831529 C604.4209,302.531729 605.613715,290.093201 605.885146,277.617555 C606.537617,256.04798 603.840021,234.507745 597.888626,213.765518 L605.026015,203.916704 L605.026015,203.454008 C605.488623,201.867622 609.850364,188.383341 610.445145,185.937663 C610.961408,182.126656 611.182356,178.281435 611.106015,174.436364 C611.216573,168.374205 610.796419,162.314 609.850364,156.325123 C609.39048,154.422553 609.256406,152.455771 609.453841,150.508375 C609.58571,149.388555 609.58571,148.257124 609.453841,147.137304 C610.881796,144.856287 612.425856,142.650071 614.079928,140.527363 C616.735204,137.743096 618.962392,134.579893 620.688621,131.141245 C622.208622,126.514286 617.780796,121.160233 615.666014,118.912853 C613.854078,112.592161 611.066916,106.593051 607.405144,101.13211 C605.615292,99.5100222 603.587021,98.1724471 601.391232,97.1661443 C597.293841,94.9848637 591.676452,92.0764893 590.486887,88.5071206 C588.504278,82.6903719 581.036453,78.7905061 575.617323,76.0143306 C574.493845,75.4194358 573.106018,74.6923423 572.445148,74.2296463 C568.084631,66.6192524 562.970221,59.4665854 557.179065,52.8795344 C554.596901,49.8501881 551.42681,47.3766022 547.860805,45.6085985 C545.981986,44.6353883 544.228768,43.4367603 542.639937,42.0392298 C537.877632,37.9477 532.319771,34.8869229 526.316461,33.0497091 C524.86188,32.4379058 523.448993,31.7313282 522.086893,30.9345276 C516.377577,28.0853491 510.508036,25.5693568 504.507766,23.3991939 C497.16746,20.8142607 489.566213,19.0410413 481.839944,18.1112405 L480.055594,18.1112405 C478.648841,17.9790093 477.232785,17.9790093 475.826029,18.1112405 C473.579074,18.1112405 472.918204,18.1112405 472.323423,17.4502464 C470.208641,15.335065 465.119945,13.8147784 453.686903,11.9639947 L450.448643,11.9639947 C445.203376,11.3571282 440.245739,9.24514324 436.173862,5.88284819 C431.888068,2.75698683 426.3919,1.8041377 421.304298,3.30497091 C418.804113,3.97624846 416.186875,4.08908169 413.638213,3.635468 C405.801466,1.99480788 397.881389,0.781196826 389.912998,0 L384.692129,0.330497091 C379.735607,0.660994178 372.201694,1.18978952 365.526913,1.18978952 C360.424529,1.256784 355.329025,1.58772328 350.260827,2.18128079 C346.687575,2.64514659 343.091302,2.90995289 339.488654,2.97447381 L307.634746,2.97447381 C294.417356,2.97447381 290.914748,5.88284819 289.659096,11.2369011 L289.659096,12.2283923 C289.35424,12.2945771 289.038735,12.2945771 288.733879,12.2283923 C278.146021,16.7894269 268.048944,22.4147374 258.59823,29.0176445 C253.245187,32.3226153 247.165188,36.1563817 245.777362,36.6851768 C241.965109,38.1938687 238.36602,40.1937399 235.071277,42.6341247 C231.024178,45.3294894 226.832381,47.8009097 222.514756,50.0372595 C217.426104,53.0070689 212.942164,56.9088329 209.297366,61.538558 C207.583561,63.7153498 205.582751,65.649832 203.349541,67.2892076 C198.459107,69.7348859 186.761717,77.9312138 186.299108,78.261711 L185.968674,78.261711 C184.514761,79.5175999 172.024327,91.0188984 169.57911,94.0594716 C163.654618,103.812176 159.347335,114.459647 156.824329,125.588894 C155.972186,130.107963 154.688627,134.534862 152.991286,138.808778 C151.584911,142.180054 150.500657,145.676877 149.753026,149.252486 C149.158243,152.293059 148.3652,162.472369 147.439982,173.70927 C146.382591,186.929154 145.193026,201.933722 144.399983,205.701389 C143.60694,209.469055 143.012157,218.921272 142.219113,230.686969 C141.702519,241.979137 140.555222,253.233594 138.782592,264.397672 C136.638434,273.050499 135.507363,281.923321 135.412158,290.837439 C128.589897,294.445955 122.241196,298.886443 116.511291,304.057323 C103.95477,315.558621 112.876508,354.29288 114.79303,361.960412 C117.057212,369.992496 117.885003,378.361475 117.238247,386.681595 L117.238247,399.901478 C117.983092,415.367007 122.039761,430.492219 129.133898,444.254188 C129.133898,447.162562 128.406941,456.48258 128.406941,462.629827 C128.406941,465.7365 126.49042,480.476668 124.441724,496.20833 C122.062594,514.980564 119.286942,536.330678 118.824334,544.989701 C116.581767,560.627905 112.68274,575.983222 107.193031,590.796598 C102.38624,589.872105 97.5326763,589.210133 92.6539019,588.813616 C89.0852069,588.813616 59.6104278,590.003406 58.0243411,590.069503 L55.5130368,590.069503 L37.405213,691.598209 C28.8946487,698.920991 20.8183285,706.733987 13.2173897,714.997404 C8.203522,721.181037 3.77848081,727.81985 0,734.82723"/>
  </g>
</svg>
