<svg xmlns="http://www.w3.org/2000/svg" width="628" height="742" viewBox="0 0 628 742">
  <path fill="none" stroke="#2C3B4C" stroke-linecap="round" stroke-linejoin="round" stroke-width="6" d="M408.615602,735.884819 C410.462373,727.865978 414.049707,720.351468 419.123428,713.873714 C421.039949,710.833142 423.088646,707.726469 424.872993,704.619797 C428.390024,696.409404 429.95109,687.493807 429.432992,678.576625 C429.423363,674.989658 429.710723,671.408049 430.292123,667.868518 C432.668755,668.344479 435.009458,668.984981 437.297339,669.785403 C449.986032,673.751366 471.26603,680.42741 486.66429,665.621138 C493.781996,658.090934 499.112724,649.054095 502.260811,639.181372 C503.99607,633.58244 506.727379,628.342707 510.323417,623.714106 C513.987036,620.01396 517.918892,616.589509 522.086893,613.468698 C532.802408,605.647093 542.523024,596.546167 551.032977,586.367937 C569.140803,564.48903 584.076452,503.941963 586.257322,487.747605 C588.438193,471.553248 583.217321,438.966234 580.970365,424.754859 C580.90005,423.190379 580.656237,421.638546 580.243411,420.127902 C580.763904,409.896809 582.562216,399.771054 585.596453,389.986566 C589.365611,385.625152 591.6764,380.193775 592.205146,374.453203 C593.669684,370.796593 595.650383,367.368675 598.086884,364.273892 C601.524924,359.752863 604.306111,354.768036 606.347754,349.467624 C607.627496,343.551891 606.785268,337.374403 603.968626,332.017375 C603.031768,329.875669 602.258538,327.666026 601.655582,325.407435 C601.17967,321.872921 601.404234,318.279268 602.316451,314.831529 C604.4209,302.531729 605.613715,290.093201 605.885146,277.617555 C606.537617,256.04798 603.840021,234.507745 597.888626,213.765518 L605.026015,203.916704 L605.026015,203.454008 C605.488623,201.867622 609.850364,188.383341 610.445145,185.937663 C610.961408,182.126656 611.182356,178.281435 611.106015,174.436364 C611.216573,168.374205 610.796419,162.314 609.850364,156.325123 C609.39048,154.422553 609.256406,152.455771 609.453841,150.508375 C609.58571,149.388555 609.58571,148.257124 609.453841,147.137304 C610.881796,144.856287 612.425856,142.650071 614.079928,140.527363 C616.735204,137.743096 618.962392,134.579893 620.688621,131.141245 C622.208622,126.514286 617.780796,121.160233 615.666014,118.912853 C613.854078,112.592161 611.066916,106.593051 607.405144,101.13211 C605.615292,99.5100222 603.587021,98.1724471 601.391232,97.1661443 C597.293841,94.9848637 591.676452,92.0764893 590.486887,88.5071206 C588.504278,82.6903719 581.036453,78.7905061 575.617323,76.0143306 C574.493845,75.4194358 573.106018,74.6923423 572.445148,74.2296463 C568.084631,66.6192524 562.970221,59.4665854 557.179065,52.8795344 C554.596901,49.8501881 551.42681,47.3766022 547.860805,45.6085985 C545.981986,44.6353883 544.228768,43.4367603 542.639937,42.0392298 C537.877632,37.9477 532.319771,34.8869229 526.316461,33.0497091 C524.86188,32.4379058 523.448993,31.7313282 522.086893,30.9345276 C516.377577,28.0853491 510.508036,25.5693568 504.507766,23.3991939 C497.16746,20.8142607 489.566213,19.0410413 481.839944,18.1112405 L480.055594,18.1112405 C478.648841,17.9790093 477.232785,17.9790093 475.826029,18.1112405 C473.579074,18.1112405 472.918204,18.1112405 472.323423,17.4502464 C470.208641,15.335065 465.119945,13.8147784 453.686903,11.9639947 L450.448643,11.9639947 C445.203376,11.3571282 440.245739,9.24514324 436.173862,5.88284819 C431.888068,2.75698683 426.3919,1.8041377 421.304298,3.30497091 C418.804113,3.97624846 416.186875,4.08908169 413.638213,3.635468 C405.801466,1.99480788 397.881389,0.781196826 389.912998,0 L384.692129,0.330497091 C379.735607,0.660994178 372.201694,1.18978952 365.526913,1.18978952 C360.424529,1.256784 355.329025,1.58772328 350.260827,2.18128079 C346.687575,2.64514659 343.091302,2.90995289 339.488654,2.97447381 L307.634746,2.97447381 C294.417356,2.97447381 290.914748,5.88284819 289.659096,11.2369011 L289.659096,12.2283923 C289.35424,12.2945771 289.038735,12.2945771 288.733879,12.2283923 C278.146021,16.7894269 268.048944,22.4147374 258.59823,29.0176445 C253.245187,32.3226153 247.165188,36.1563817 245.777362,36.6851768 C241.965109,38.1938687 238.36602,40.1937399 235.071277,42.6341247 C231.024178,45.3294894 226.832381,47.8009097 222.514756,50.0372595 C217.426104,53.0070689 212.942164,56.9088329 209.297366,61.538558 C207.583561,63.7153498 205.582751,65.649832 203.349541,67.2892076 C198.459107,69.7348859 186.761717,77.9312138 186.299108,78.261711 L185.968674,78.261711 C184.514761,79.5175999 172.024327,91.0188984 169.57911,94.0594716 C163.654618,103.812176 159.347335,114.459647 156.824329,125.588894 C155.972186,130.107963 154.688627,134.534862 152.991286,138.808778 C151.584911,142.180054 150.500657,145.676877 149.753026,149.252486 C149.158243,152.293059 148.3652,162.472369 147.439982,173.70927 C146.382591,186.929154 145.193026,201.933722 144.399983,205.701389 C143.60694,209.469055 143.012157,218.921272 142.219113,230.686969 C141.702519,241.979137 140.555222,253.233594 138.782592,264.397672 C136.638434,273.050499 135.507363,281.923321 135.412158,290.837439 C128.589897,294.445955 122.241196,298.886443 116.511291,304.057323 C103.95477,315.558621 112.876508,354.29288 114.79303,361.960412 C117.057212,369.992496 117.885003,378.361475 117.238247,386.681595 L117.238247,399.901478 C117.983092,415.367007 122.039761,430.492219 129.133898,444.254188 C129.133898,447.162562 128.406941,456.48258 128.406941,462.629827 C128.406941,465.7365 126.49042,480.476668 124.441724,496.20833 C122.062594,514.980564 119.286942,536.330678 118.824334,544.989701 C116.581767,560.627905 112.68274,575.983222 107.193031,590.796598 C102.38624,589.872105 97.5326763,589.210133 92.6539019,588.813616 C89.0852069,588.813616 59.6104278,590.003406 58.0243411,590.069503 L55.5130368,590.069503 L37.405213,691.598209 C28.8946487,698.920991 20.8183285,706.733987 13.2173897,714.997404 C8.203522,721.181037 3.77848081,727.81985 0,734.82723" transform="translate(3 3)"/>
</svg>
