<?xml version="1.0" encoding="UTF-8"?>
<svg width="271px" height="200px" viewBox="0 0 271 200" version="1.1" xmlns="http://www.w3.org/2000/svg" xmlns:xlink="http://www.w3.org/1999/xlink">
    <title>Group 21 Copy</title>
    <defs>
        <radialGradient cx="50%" cy="86.2797494%" fx="50%" fy="86.2797494%" r="90.679686%" gradientTransform="translate(0.500000,0.862797),scale(0.899281,1.000000),rotate(-90.000000),translate(-0.500000,-0.862797)" id="radialGradient-1">
            <stop stop-color="#E41B5B" offset="0%"></stop>
            <stop stop-color="#EB5686" offset="100%"></stop>
        </radialGradient>
    </defs>
    <g id="Welcome" stroke="none" stroke-width="1" fill="none" fill-rule="evenodd">
        <g id="Artboard" transform="translate(-3968.000000, -6711.000000)">
            <g id="Group-2-Copy-7" transform="translate(3807.000000, 6515.000000)">
                <g id="Group-21-Copy" transform="translate(161.000000, 196.000000)">
                    <path d="M15.6601093,200 C33.8816029,200 45.6347905,197.114765 50.9196721,191.344294 C56.2045537,185.573823 58.8469945,179.01354 58.8469945,171.663443 C58.8469945,167.794971 58.3282332,163.571889 57.2907104,158.994197 L57.2907104,158.994197 L55.442623,151.06383 L53.789071,142.45648 L52.6218579,137.137331 C52.1030965,134.880722 51.8437158,132.624113 51.8437158,130.367505 C51.8437158,123.920052 53.9673953,118.536428 58.2147541,114.216634 C62.4621129,109.896841 69.7734062,107.736944 80.1486339,107.736944 L80.1486339,107.736944 L89,107.736944 L89,92.3597679 L80.1486339,92.3597679 C69.6437158,92.3597679 62.3,90.1837524 58.1174863,85.8317215 C53.9349727,81.4796905 51.8437158,76.2411348 51.8437158,70.1160542 C51.8437158,67.794971 52.1030965,65.377176 52.6218579,62.8626692 L52.6218579,62.8626692 L53.789071,57.7369439 L55.442623,49.1295938 L57.2907104,41.1992263 C58.3282332,36.686009 58.8469945,32.4629271 58.8469945,28.5299807 C58.8469945,21.2443585 56.2045537,14.6679562 50.9196721,8.80077369 C45.6347905,2.93359123 33.8816029,0 15.6601093,0 L15.6601093,0 L0,0 L0,15.4738878 L15.4655738,15.4738878 C25.3220401,15.4738878 31.8227687,16.8762089 34.9677596,19.6808511 C38.1127505,22.4854932 39.6852459,25.9187621 39.6852459,29.9806576 C39.6852459,32.9464861 39.0367942,37.4919407 37.7398907,43.6170213 L37.7398907,43.6170213 L35.210929,54.9323017 C33.9788707,61.0573823 33.3628415,65.9896841 33.3628415,69.729207 C33.3628415,73.9845261 34.0599271,77.7401676 35.4540984,80.9961315 C36.8482696,84.2520954 38.9881603,87.4435848 41.8737705,90.5705996 C44.7593807,93.6976144 49.2823315,96.8729852 55.442623,100.096712 C49.2823315,103.320438 44.7593807,106.479691 41.8737705,109.574468 C38.9881603,112.669246 36.8482696,115.860735 35.4540984,119.148936 C34.0599271,122.437137 33.3628415,126.208897 33.3628415,130.464217 C33.3628415,134.20374 33.9788707,139.103804 35.210929,145.16441 L35.210929,145.16441 L37.7398907,156.479691 C39.0367942,162.669246 39.6852459,167.2147 39.6852459,170.116054 C39.6852459,174.17795 38.1127505,177.627337 34.9677596,180.464217 C31.8227687,183.301096 25.3220401,184.719536 15.4655738,184.719536 L15.4655738,184.719536 L0,184.719536 L0,200 L15.6601093,200 Z" id="Path" fill="#FFFFFF" fill-rule="nonzero" transform="translate(44.500000, 100.000000) scale(-1, 1) translate(-44.500000, -100.000000) "></path>
                    <path d="M197.660109,200 C215.881603,200 227.634791,197.114765 232.919672,191.344294 C238.204554,185.573823 240.846995,179.01354 240.846995,171.663443 C240.846995,167.794971 240.328233,163.571889 239.29071,158.994197 L239.29071,158.994197 L237.442623,151.06383 L235.789071,142.45648 L234.621858,137.137331 C234.103097,134.880722 233.843716,132.624113 233.843716,130.367505 C233.843716,123.920052 235.967395,118.536428 240.214754,114.216634 C244.462113,109.896841 251.773406,107.736944 262.148634,107.736944 L262.148634,107.736944 L271,107.736944 L271,92.3597679 L262.148634,92.3597679 C251.643716,92.3597679 244.3,90.1837524 240.117486,85.8317215 C235.934973,81.4796905 233.843716,76.2411348 233.843716,70.1160542 C233.843716,67.794971 234.103097,65.377176 234.621858,62.8626692 L234.621858,62.8626692 L235.789071,57.7369439 L237.442623,49.1295938 L239.29071,41.1992263 C240.328233,36.686009 240.846995,32.4629271 240.846995,28.5299807 C240.846995,21.2443585 238.204554,14.6679562 232.919672,8.80077369 C227.634791,2.93359123 215.881603,0 197.660109,0 L197.660109,0 L182,0 L182,15.4738878 L197.465574,15.4738878 C207.32204,15.4738878 213.822769,16.8762089 216.96776,19.6808511 C220.11275,22.4854932 221.685246,25.9187621 221.685246,29.9806576 C221.685246,32.9464861 221.036794,37.4919407 219.739891,43.6170213 L219.739891,43.6170213 L217.210929,54.9323017 C215.978871,61.0573823 215.362842,65.9896841 215.362842,69.729207 C215.362842,73.9845261 216.059927,77.7401676 217.454098,80.9961315 C218.84827,84.2520954 220.98816,87.4435848 223.87377,90.5705996 C226.759381,93.6976144 231.282332,96.8729852 237.442623,100.096712 C231.282332,103.320438 226.759381,106.479691 223.87377,109.574468 C220.98816,112.669246 218.84827,115.860735 217.454098,119.148936 C216.059927,122.437137 215.362842,126.208897 215.362842,130.464217 C215.362842,134.20374 215.978871,139.103804 217.210929,145.16441 L217.210929,145.16441 L219.739891,156.479691 C221.036794,162.669246 221.685246,167.2147 221.685246,170.116054 C221.685246,174.17795 220.11275,177.627337 216.96776,180.464217 C213.822769,183.301096 207.32204,184.719536 197.465574,184.719536 L197.465574,184.719536 L182,184.719536 L182,200 L197.660109,200 Z" id="Path" fill="#FFFFFF" fill-rule="nonzero"></path>
                    <g id="Group-3-Copy-3" transform="translate(66.000000, 38.000000)" fill="url(#radialGradient-1)">
                        <path d="M69.5816686,18.7734045 C65.7704487,15.2966378 57.5952523,0 41.8143361,0 C26.0334199,0 16.3337459,8.20292047 12.413631,12.2229465 C8.27573346,16.2429726 5.17235654,20.8061538 3.10340776,25.9126467 C1.03445897,31.0191395 0,36.2070404 0,41.476558 C0,46.7460235 1.03445897,51.8795828 3.10340776,56.8774446 C5.17235654,61.9839374 8.27573346,66.5471186 12.413631,70.5671447 C47.4041114,105.859769 65.2623174,123.705271 65.9882491,124.103651 C67.0771467,124.70122 68.2749706,125 69.5816686,125 C70.6705662,125 71.7050529,124.755544 72.6850764,124.266623 C73.3384254,123.940676 91.3599687,106.04085 126.749706,70.5671447 C130.887601,66.5471186 133.990956,61.9839374 136.059929,56.8774446 C138.019976,51.8795828 139,46.7460235 139,41.476558 C139,36.2070404 138.019976,31.0191395 136.059929,25.9126467 C133.990956,20.8061538 130.887601,16.188631 126.749706,12.0599739 C122.829612,8.14863103 115.468002,0 97.3490012,0 C79.23,0 73.3928886,15.2966378 69.5816686,18.7734045 Z" id="Fill-1"></path>
                    </g>
                </g>
            </g>
        </g>
    </g>
</svg>