<svg xmlns="http://www.w3.org/2000/svg" xmlns:xlink="http://www.w3.org/1999/xlink" width="1583" height="776" viewBox="0 0 1583 776">
  <defs>
    <rect id="emoji-unemployed.inline-a" width="1583" height="776" x="0" y="0" rx="60"/>
  </defs>
  <g fill="none" fill-rule="evenodd">
    <mask id="emoji-unemployed.inline-b" fill="#fff">
      <use xlink:href="#emoji-unemployed.inline-a"/>
    </mask>
    <rect width="1574" height="767" x="4.5" y="4.5" stroke="#FFF" stroke-width="9" rx="60"/>
    <rect width="1583" height="479" y="203" fill="#FFF" mask="url(#emoji-unemployed.inline-b)"/>
    <rect width="1583" height="203" fill="#CE241C" mask="url(#emoji-unemployed.inline-b)"/>
    <rect width="1583" height="94" y="682" fill="#CE241C" mask="url(#emoji-unemployed.inline-b)"/>
    <path fill="#FFF" fill-rule="nonzero" d="M421.127441,151 L421.127441,106.34082 L460.221191,106.34082 L460.221191,151 L480.989746,151 L480.989746,50.9580078 L460.221191,50.9580078 L460.221191,89.1015625 L421.127441,89.1015625 L421.127441,50.9580078 L400.426758,50.9580078 L400.426758,151 L421.127441,151 Z M577.366699,151 L577.366699,133.01416 L521.983887,133.01416 L521.983887,107.291016 L570.57959,107.291016 L570.57959,89.9160156 L521.983887,89.9160156 L521.983887,68.6723633 L574.92334,68.6723633 L574.92334,50.9580078 L501.554688,50.9580078 L501.554688,151 L577.366699,151 Z M664.105957,151 L664.105957,133.01416 L614.560059,133.01416 L614.560059,50.9580078 L593.655762,50.9580078 L593.655762,151 L664.105957,151 Z M749.012695,151 L749.012695,133.01416 L699.466797,133.01416 L699.466797,50.9580078 L678.5625,50.9580078 L678.5625,151 L749.012695,151 Z M807.721191,153.782715 C822.019368,153.782715 832.946615,149.891439 840.50293,142.108887 C850.593099,132.561686 855.638184,118.806478 855.638184,100.843262 C855.638184,82.5180664 850.593099,68.7628581 840.50293,59.5776367 C832.946615,51.7950846 822.019368,47.9038086 807.721191,47.9038086 C793.423014,47.9038086 782.495768,51.7950846 774.939453,59.5776367 C764.804036,68.7628581 759.736328,82.5180664 759.736328,100.843262 C759.736328,118.806478 764.804036,132.561686 774.939453,142.108887 C782.495768,149.891439 793.423014,153.782715 807.721191,153.782715 Z M807.721191,136.068359 C799.440918,136.068359 792.834798,133.01416 787.902832,126.905762 C782.970866,120.797363 780.504883,112.109863 780.504883,100.843262 C780.504883,89.5766602 782.970866,80.8891602 787.902832,74.7807617 C792.834798,68.6723633 799.440918,65.6181641 807.721191,65.6181641 C816.001465,65.6181641 822.573649,68.6836751 827.437744,74.8146973 C832.301839,80.9457194 834.733887,89.6219076 834.733887,100.843262 C834.733887,112.109863 832.301839,120.797363 827.437744,126.905762 C822.573649,133.01416 816.001465,136.068359 807.721191,136.068359 Z M929.346191,151 L929.346191,50.9580078 L908.577637,50.9580078 L908.577637,151 L929.346191,151 Z M1002.23975,151 L1009.1626,130.435059 L1046.0166,130.435059 L1052.46436,151 L1075.1333,151 L1039.70459,50.9580078 L1016.08545,50.9580078 L980.385254,151 L1002.23975,151 Z M1040.17969,113.195801 L1014.7959,113.195801 L1027.69141,73.8305664 L1040.17969,113.195801 Z M1106.96484,151 L1106.96409,82.6921623 C1106.95983,80.8043056 1106.93746,78.2916024 1106.89697,75.1540527 C1106.85649,72.016503 1106.83412,69.5219113 1106.82985,67.6702776 L1106.8291,67.043457 L1125.62939,151 L1145.92285,151 L1164.85889,67.043457 L1164.85889,67.043457 L1164.85813,67.6702776 C1164.85387,69.5219113 1164.8315,72.016503 1164.79102,75.1540527 C1164.75053,78.2916024 1164.72816,80.8043056 1164.7239,82.6921623 L1164.72314,151 L1184.20215,151 L1184.20215,50.9580078 L1154.13525,50.9580078 L1136.08154,129.620605 L1117.89209,50.9580078 L1087.48584,50.9580078 L1087.48584,151 L1106.96484,151 Z" mask="url(#emoji-unemployed.inline-b)"/>
    <path fill="#000" fill-rule="nonzero" d="M179.9021,514.152344 C187.478597,514.152344 194.855713,511.873698 202.033447,507.316406 C207.90096,503.556641 212.913981,498.856934 217.07251,493.217285 C226.471924,480.399902 232.766683,464.278483 235.956787,444.853027 C238.064535,432.263509 239.118408,414.717936 239.118408,392.216309 C239.118408,389.652832 238.377848,387.31722 236.896729,385.209473 C234.95988,382.361165 232.054606,380.937012 228.180908,380.937012 C223.452718,380.937012 219.806885,382.902344 217.243408,386.833008 C215.363525,389.795247 214.423584,392.871419 214.423584,396.061523 C214.423584,420.272135 213.056396,439.070964 210.322021,452.458008 C205.081136,478.320638 194.941162,491.138021 179.9021,490.910156 C170.901449,490.796224 165.204834,489.799316 162.812256,487.919434 C158.197998,484.330566 154.69458,478.007324 152.302002,468.949707 C150.251221,461.37321 149.22583,453.170085 149.22583,444.340332 C149.22583,441.605957 149.368245,437.475911 149.653076,431.950195 C149.937907,426.424479 150.080322,422.294434 150.080322,419.560059 L150.080322,419.560059 L150.080892,418.877414 C150.086209,415.589835 150.128743,410.87557 150.208496,404.734619 C150.288249,398.593669 150.330783,393.904215 150.3361,390.66626 L150.33667,389.994629 C150.33667,386.57666 149.026449,383.785319 146.406006,381.620605 C144.013428,379.569824 141.25057,378.544434 138.117432,378.544434 C134.129801,378.544434 131.025146,381.221842 128.803467,386.57666 C127.151449,390.621257 126.325439,394.922201 126.325439,399.479492 C126.325439,401.701172 126.268473,405.01945 126.154541,409.434326 L126.140596,409.980474 C126.03596,414.123822 125.983643,417.26005 125.983643,419.38916 L125.983098,419.693464 C125.973288,422.479283 125.831055,426.536377 125.556396,431.864746 L125.526424,432.451556 C125.261575,437.685756 125.12915,441.648682 125.12915,444.340332 C125.12915,473.506999 132.591715,493.986328 147.516846,505.77832 C154.580648,511.361003 165.375732,514.152344 179.9021,514.152344 Z M282.098389,514.750488 C290.301514,514.750488 294.403076,506.347982 294.403076,489.542969 C294.403076,485.042643 294.303385,478.263672 294.104004,469.206055 C293.904622,460.148438 293.804932,453.369466 293.804932,448.869141 C293.804932,448.818216 293.804971,448.765978 293.805049,448.712425 L293.805991,448.375336 C293.820821,444.6703 293.991366,435.748801 294.317627,421.61084 C321.889242,457.271647 346.641032,484.985677 368.572998,504.75293 C373.586019,509.253255 378.086344,511.503418 382.073975,511.503418 C389.251709,511.503418 393.410238,507.829102 394.549561,500.480469 C395.517985,494.328125 396.002197,489.827799 396.002197,486.979492 L396.002197,486.979492 L396.002659,486.314219 C396.012605,478.825768 396.18335,461.046224 396.514893,432.975586 C396.622495,425.066786 396.679286,420.613229 396.685791,419.614915 L396.685791,419.474609 C396.685791,390.820638 392.04305,376.493652 382.757568,376.493652 C374.440511,376.493652 370.281982,380.424316 370.281982,388.285645 C370.281982,390.56429 370.566813,393.697428 371.136475,397.685059 C371.763102,402.185384 372.133382,405.261556 372.247314,406.913574 C372.804855,416.503279 373.089557,434.851123 373.10142,461.957106 L373.101326,465.233093 C373.097374,471.208557 373.069051,475.039388 373.016357,476.725586 C347.837321,453.426432 322.316488,423.319824 296.453857,386.405762 C291.326904,379.114095 286.65568,375.468262 282.440186,375.468262 C278.68042,375.468262 275.333659,376.806966 272.399902,379.484375 C269.466146,382.161784 267.999268,385.209473 267.999268,388.627441 C267.999268,392.04541 268.341064,397.14388 269.024658,403.922852 C269.708252,410.701823 270.050049,415.800293 270.050049,419.218262 C270.050049,422.807129 270.135498,428.218913 270.306396,435.453613 L270.322168,436.126526 C270.482552,443.02477 270.562744,448.21225 270.562744,451.688965 L270.562388,452.019469 C270.555275,455.376974 270.441461,460.30831 270.220947,466.813477 C269.993083,473.535482 269.87915,478.576986 269.87915,481.937988 C269.87915,484.216634 269.69401,487.663086 269.32373,492.277344 C268.953451,496.891602 268.768311,500.338053 268.768311,502.616699 C268.768311,505.86377 269.87915,508.626628 272.10083,510.905273 C274.60734,513.46875 277.93986,514.750488 282.098389,514.750488 Z M470.342041,516.459473 C488.286377,516.459473 500.106852,515.918294 505.803467,514.835938 C512.468506,513.582682 515.801025,509.765951 515.801025,503.385742 C515.801025,499.56901 514.462321,496.606771 511.784912,494.499023 C509.4493,492.619141 506.629476,491.679199 503.325439,491.679199 C502.243083,491.679199 500.591064,491.850098 498.369385,492.191895 L497.959162,492.253979 C495.939756,492.554386 494.395996,492.70459 493.327881,492.70459 C489.79598,492.70459 484.469645,492.790039 477.348877,492.960938 C470.228109,493.131836 464.901774,493.217285 461.369873,493.217285 C454.818766,493.217285 451.229899,492.847005 450.603271,492.106445 C449.29305,490.568359 448.637939,484.216634 448.637939,473.05127 C448.637939,468.60791 448.837321,462.76888 449.236084,455.53418 C465.528402,454.223958 477.719157,453.113118 485.80835,452.20166 C494.865967,451.404134 501.673421,450.834473 506.230713,450.492676 C513.465413,449.581217 517.082764,445.736003 517.082764,438.957031 C517.082764,435.42513 515.886475,432.591064 513.493896,430.454834 C511.101318,428.318604 508.224528,427.250488 504.863525,427.250488 C501.958252,427.250488 495.065348,427.791667 484.184814,428.874023 C465.101156,430.753906 453.964274,431.80778 450.77417,432.035645 C451.286865,417.110514 451.543213,405.859701 451.543213,398.283203 C457.068929,396.916016 462.281331,395.890625 467.18042,395.207031 C472.079508,394.523438 476.665283,394.181641 480.937744,394.181641 C489.653564,394.181641 498.625732,395.434896 507.854248,397.941406 C509.107503,398.283203 510.303792,398.454102 511.443115,398.454102 C514.975016,398.454102 517.88029,397.14388 520.158936,394.523438 C522.209717,392.244792 523.235107,389.624349 523.235107,386.662109 C523.235107,381.421224 520.614665,377.803874 515.373779,375.810059 C506.771891,372.506022 495.293213,370.854004 480.937744,370.854004 C475.639893,370.854004 470.014486,371.267008 464.061523,372.093018 C458.108561,372.919027 451.828044,374.15804 445.219971,375.810059 C443.112223,374.385905 440.805094,373.673828 438.298584,373.673828 C430.323324,373.673828 426.335693,378.003255 426.335693,386.662109 C426.335693,388.655924 426.620524,391.603923 427.190186,395.506104 C427.759847,399.408285 428.044678,402.356283 428.044678,404.350098 C428.044678,411.926595 427.489258,423.362549 426.378418,438.657959 C425.267578,453.953369 424.712158,465.417806 424.712158,473.05127 C424.712158,491.451335 427.816813,503.414225 434.026123,508.939941 C439.665771,513.952962 451.771077,516.459473 470.342041,516.459473 Z M678.324463,515.092285 C681.457601,515.092285 684.277425,514.066895 686.783936,512.016113 C689.461344,509.737467 690.800049,506.917643 690.800049,503.556641 C690.800049,502.018555 688.265055,492.448242 683.195068,474.845703 C678.182048,457.527995 674.023519,436.735352 670.719482,412.467773 C669.295329,402.042969 667.956624,394.922201 666.703369,391.105469 C663.684163,381.649089 659.069906,376.920898 652.860596,376.920898 C646.423421,376.920898 641.666748,380.993978 638.590576,389.140137 L638.590576,389.140137 L633.80542,408.793457 C628.222738,429.016439 622.184326,447.587402 615.690186,464.506348 C610.734131,447.359538 607.002848,431.352051 604.496338,416.483887 C601.875895,401.159993 599.426351,391.02002 597.147705,386.063965 C594.698161,380.823079 590.881429,378.202637 585.69751,378.202637 C581.140218,378.202637 577.366211,380.210693 574.375488,384.226807 C571.384766,388.24292 568.607666,396.289388 566.044189,408.366211 C564.335205,417.138997 562.654704,425.911784 561.002686,434.68457 C560.786814,435.709961 559.963803,438.722934 558.533653,443.723488 L558.339368,444.402007 C556.756309,449.924384 554.48246,457.708188 551.517822,467.753418 C547.587158,481.02653 545.621826,492.277344 545.621826,501.505859 C545.621826,504.638997 546.590251,507.344889 548.5271,509.623535 C550.805745,512.300944 553.9104,513.639648 557.841064,513.639648 C564.10734,513.639648 568.408285,509.595052 570.743896,501.505859 C571.769287,495.125651 572.823161,488.71696 573.905518,482.279785 C578.519775,463.651855 582.108643,449.723633 584.672119,440.495117 C588.20402,456.55957 592.19165,471.883464 596.63501,486.466797 L596.63501,486.466797 L601.420166,502.360352 C604.268473,508.683594 608.370036,511.845215 613.724854,511.845215 C619.136637,511.845215 623.352132,509.196289 626.371338,503.898438 C628.649984,499.910807 630.84318,494.812337 632.950928,488.603027 L632.950928,488.603027 L638.077881,472.880371 C644.00236,456.531087 648.246338,444.539714 650.809814,436.90625 C653.999919,456.103841 656.962158,470.82959 659.696533,481.083496 L659.696533,481.083496 L664.481689,501.762207 C667.500895,510.648926 672.115153,515.092285 678.324463,515.092285 Z M723.86792,510.050781 C727.11499,510.050781 729.792399,508.968424 731.900146,506.803711 C734.007894,504.638997 735.061768,502.047038 735.061768,499.027832 C735.061768,480.798665 735.232666,467.696452 735.574463,459.721191 C739.391195,460.119954 741.783773,460.319336 742.752197,460.319336 C756.936768,460.319336 769.156006,456.531087 779.409912,448.95459 C790.97404,440.352702 796.756104,428.760091 796.756104,414.176758 C796.756104,402.555664 791.315837,392.700521 780.435303,384.611328 C770.637126,377.376628 760.155355,373.759277 748.98999,373.759277 C744.090902,373.759277 739.932373,373.887451 736.514404,374.143799 C733.096436,374.400146 730.419027,374.784668 728.482178,375.297363 C720.222087,374.670736 716.063558,381.763021 716.006592,396.574219 C715.949626,405.233073 715.379964,418.36377 714.297607,435.966309 C713.158285,453.284017 712.588623,466.357747 712.588623,475.1875 L712.588623,475.1875 L712.588623,499.027832 C712.588623,502.047038 713.656738,504.638997 715.792969,506.803711 C717.929199,508.968424 720.62085,510.050781 723.86792,510.050781 Z M742.752197,438.358887 C741.783773,438.358887 739.846924,438.131022 736.94165,437.675293 C737.910075,424.288249 738.451253,414.433105 738.565186,408.109863 C738.617932,403.151699 738.646259,399.341257 738.650166,396.678539 L738.650635,396.061523 C739.619059,395.947591 740.801107,395.876383 742.196777,395.8479 C743.592448,395.819417 745.201742,395.805176 747.024658,395.805176 C753.689697,395.805176 759.842041,397.628092 765.481689,401.273926 C771.349202,405.033691 774.282959,409.334635 774.282959,414.176758 C774.282959,421.582357 771.149821,427.535319 764.883545,432.035645 C759.016032,436.251139 751.638916,438.358887 742.752197,438.358887 Z M819.40149,497.95993 C819.546856,509.951162 826.524435,515.946777 840.334229,515.946777 C848.59432,515.946777 859.16154,514.864421 872.035889,512.699707 C886.106527,510.364095 896.502848,507.715169 903.224854,504.75293 C908.180908,502.53125 910.658936,498.970866 910.658936,494.071777 C910.658936,491.166504 909.662028,488.546061 907.668213,486.210449 C905.446533,483.590007 902.54126,482.279785 898.952393,482.279785 C897.756104,482.279785 896.502848,482.479167 895.192627,482.87793 C874.058187,489.258138 856.740479,492.562174 843.239502,492.790039 C843.809163,483.390625 844.350342,476.412272 844.863037,471.85498 C846.401123,446.277181 847.170166,418.306803 847.170166,387.943848 C847.170166,384.696777 846.030843,381.933919 843.752197,379.655273 C841.473551,377.376628 838.625244,376.237305 835.207275,376.237305 C831.789307,376.237305 828.955241,377.376628 826.705078,379.655273 C824.454915,381.933919 823.329834,384.696777 823.329834,387.943848 C823.329834,418.249837 822.589274,445.764486 821.108154,470.487793 C820.003011,488.943685 819.433862,497.992874 819.400708,497.63536 L819.399,497.626 L819.40149,497.95993 Z M991.236572,513.212402 C1011.97225,513.212402 1028.77726,504.126302 1041.65161,485.954102 C1052.81698,470.231445 1058.39966,452.685872 1058.39966,433.317383 C1058.39966,415.03125 1053.4436,401.330892 1043.53149,392.216309 C1033.61938,383.101725 1018.72274,378.544434 998.841553,378.544434 C978.162842,378.544434 961.016032,387.516602 947.401123,405.460938 C935.267334,421.411458 929.200439,439.070964 929.200439,458.439453 C929.200439,474.902669 935.523682,488.318197 948.170166,498.686035 C960.019124,508.37028 974.374593,513.212402 991.236572,513.212402 Z M991.236572,490.055664 C980.469971,490.055664 971.554769,487.207357 964.490967,481.510742 C957.142334,475.586263 953.468018,467.895833 953.468018,458.439453 C953.468018,444.425781 957.711995,431.665365 966.199951,420.158203 C975.257568,407.853516 986.138102,401.701172 998.841553,401.701172 C1011.8868,401.701172 1020.9729,403.922852 1026.09985,408.366211 C1031.45467,413.037435 1034.13208,421.354492 1034.13208,433.317383 C1034.13208,447.615885 1030.28687,460.376302 1022.59644,471.598633 C1014.22241,483.90332 1003.76912,490.055664 991.236572,490.055664 Z M1118.38403,513.981445 C1122.77043,513.981445 1126.64412,511.503418 1130.00513,506.547363 C1130.63175,505.578939 1135.38843,496.891602 1144.27515,480.485352 C1149.4021,471.028971 1155.61141,457.983724 1162.90308,441.349609 C1171.67586,421.468424 1177.51489,408.537109 1180.42017,402.555664 C1183.7242,395.776693 1185.37622,391.418783 1185.37622,389.481934 C1185.37622,386.120931 1184.066,383.32959 1181.44556,381.10791 C1179.05298,379.057129 1176.29012,378.031738 1173.15698,378.031738 C1167.9161,378.031738 1164.2133,380.595215 1162.04858,385.722168 C1158.63062,393.697428 1156.06714,399.650391 1154.35815,403.581055 C1146.212,421.24056 1139.9742,434.428223 1135.64478,443.144043 C1131.08748,437.219564 1125.8466,429.158854 1119.92212,418.961914 C1110.52271,403.011393 1105.62362,394.694336 1105.22485,394.010742 L1105.22485,394.010742 L1098.81616,383.756836 C1095.73999,379.940104 1092.32202,378.031738 1088.56226,378.031738 C1085.37215,378.031738 1082.58081,379.085612 1080.18823,381.193359 C1077.62476,383.472005 1076.34302,386.263346 1076.34302,389.567383 C1076.34302,391.67513 1076.91268,393.697428 1078.052,395.634277 C1089.95793,414.717936 1098.98706,428.987956 1105.1394,438.444336 C1113.34253,451.318685 1119.63729,460.91748 1124.02368,467.240723 C1112.11776,487.919434 1106.16479,499.65446 1106.16479,502.445801 C1106.16479,505.806803 1107.47502,508.626628 1110.09546,510.905273 C1112.48804,512.956055 1115.2509,513.981445 1118.38403,513.981445 Z M1255.6145,516.459473 C1273.55884,516.459473 1285.37931,515.918294 1291.07593,514.835938 C1297.74097,513.582682 1301.07349,509.765951 1301.07349,503.385742 C1301.07349,499.56901 1299.73478,496.606771 1297.05737,494.499023 C1294.72176,492.619141 1291.90194,491.679199 1288.5979,491.679199 C1287.51554,491.679199 1285.86353,491.850098 1283.64185,492.191895 L1283.23162,492.253979 C1281.21222,492.554386 1279.66846,492.70459 1278.60034,492.70459 C1275.06844,492.70459 1269.74211,492.790039 1262.62134,492.960938 C1255.50057,493.131836 1250.17424,493.217285 1246.64233,493.217285 C1240.09123,493.217285 1236.50236,492.847005 1235.87573,492.106445 C1234.56551,490.568359 1233.9104,484.216634 1233.9104,473.05127 C1233.9104,468.60791 1234.10978,462.76888 1234.50854,455.53418 C1250.80086,454.223958 1262.99162,453.113118 1271.08081,452.20166 C1280.13843,451.404134 1286.94588,450.834473 1291.50317,450.492676 C1298.73787,449.581217 1302.35522,445.736003 1302.35522,438.957031 C1302.35522,435.42513 1301.15894,432.591064 1298.76636,430.454834 C1296.37378,428.318604 1293.49699,427.250488 1290.13599,427.250488 C1287.23071,427.250488 1280.33781,427.791667 1269.45728,428.874023 C1250.37362,430.753906 1239.23674,431.80778 1236.04663,432.035645 C1236.55933,417.110514 1236.81567,405.859701 1236.81567,398.283203 C1242.34139,396.916016 1247.55379,395.890625 1252.45288,395.207031 C1257.35197,394.523438 1261.93774,394.181641 1266.21021,394.181641 C1274.92603,394.181641 1283.89819,395.434896 1293.12671,397.941406 C1294.37996,398.283203 1295.57625,398.454102 1296.71558,398.454102 C1300.24748,398.454102 1303.15275,397.14388 1305.4314,394.523438 C1307.48218,392.244792 1308.50757,389.624349 1308.50757,386.662109 C1308.50757,381.421224 1305.88713,377.803874 1300.64624,375.810059 C1292.04435,372.506022 1280.56567,370.854004 1266.21021,370.854004 C1260.91235,370.854004 1255.28695,371.267008 1249.33398,372.093018 C1243.38102,372.919027 1237.1005,374.15804 1230.49243,375.810059 C1228.38468,374.385905 1226.07756,373.673828 1223.57104,373.673828 C1215.59578,373.673828 1211.60815,378.003255 1211.60815,386.662109 C1211.60815,388.655924 1211.89299,391.603923 1212.46265,395.506104 C1213.03231,399.408285 1213.31714,402.356283 1213.31714,404.350098 C1213.31714,411.926595 1212.76172,423.362549 1211.65088,438.657959 C1210.54004,453.953369 1209.98462,465.417806 1209.98462,473.05127 C1209.98462,491.451335 1213.08927,503.414225 1219.29858,508.939941 C1224.93823,513.952962 1237.04354,516.459473 1255.6145,516.459473 Z M1378.6604,516.459473 C1395.80721,516.459473 1409.10881,513.383301 1418.56519,507.230957 C1426.99618,501.762207 1433.63273,494.499023 1438.47485,485.441406 C1443.31698,476.554688 1445.73804,467.183757 1445.73804,457.328613 C1445.73804,440.979329 1438.70272,426.054199 1424.63208,412.553223 C1412.84009,401.21696 1398.59855,392.842936 1381.90747,387.431152 C1380.25545,386.918457 1375.01457,384.554362 1366.18481,380.338867 C1358.60832,376.806966 1353.88013,375.041016 1352.00024,375.041016 C1348.58228,375.041016 1345.36369,376.593343 1342.34448,379.697998 C1339.32528,382.802653 1337.81567,385.921549 1337.81567,389.054688 C1337.81567,395.37793 1337.94385,404.862793 1338.2002,417.509277 L1338.21638,418.312206 C1338.45126,430.025518 1338.57381,438.96794 1338.58402,445.13947 L1338.5843,446.356686 C1338.57228,452.050359 1338.30183,460.464341 1337.77295,471.598633 C1337.23177,482.991862 1336.96118,491.536784 1336.96118,497.233398 C1336.96118,500.423503 1338.1005,503.143636 1340.37915,505.393799 C1342.6578,507.643962 1345.47762,508.797526 1348.83862,508.854492 C1352.59839,511.24707 1357.75382,513.183919 1364.30493,514.665039 C1369.71672,515.861328 1374.50187,516.459473 1378.6604,516.459473 Z M1378.57495,493.473633 C1375.04305,493.473633 1371.8387,493.117594 1368.96191,492.405518 C1366.08512,491.693441 1363.53589,490.625326 1361.31421,489.201172 L1361.31421,489.201172 L1361.31421,404.606445 C1379.48641,412.06901 1391.33537,417.53776 1396.86108,421.012695 C1413.38127,431.323568 1421.64136,443.542806 1421.64136,457.67041 C1421.64136,463.708822 1420.146,469.519368 1417.15527,475.102051 C1414.16455,480.684733 1410.1342,485.099609 1405.06421,488.34668 C1399.70939,491.764648 1390.87964,493.473633 1378.57495,493.473633 Z" mask="url(#emoji-unemployed.inline-b)"/>
    <rect width="1573" height="766" x="5" y="5" stroke="#FFF" stroke-width="10" mask="url(#emoji-unemployed.inline-b)" rx="60"/>
  </g>
</svg>
