<svg xmlns="http://www.w3.org/2000/svg" xmlns:xlink="http://www.w3.org/1999/xlink" width="1582" height="776" viewBox="0 0 1582 776">
  <defs>
    <rect id="emoji-today-i-am.inline-a" width="1583" height="776" x="0" y="0" rx="60"/>
  </defs>
  <g fill="none" fill-rule="evenodd" transform="translate(-1.988)">
    <mask id="emoji-today-i-am.inline-b" fill="#fff">
      <use xlink:href="#emoji-today-i-am.inline-a"/>
    </mask>
    <rect width="1574" height="767" x="4.5" y="4.5" stroke="#FFF" stroke-width="9" rx="60"/>
    <rect width="1583" height="479" y="203" fill="#FFF" mask="url(#emoji-today-i-am.inline-b)"/>
    <rect width="1583" height="203" fill="#CE241C" mask="url(#emoji-today-i-am.inline-b)"/>
    <rect width="1583" height="94" y="682" fill="#CE241C" mask="url(#emoji-today-i-am.inline-b)"/>
    <path fill="#000" fill-rule="nonzero" d="M152.992315,404.713867 C155.087042,404.790039 156.962774,404.085449 158.619512,402.600098 C160.27625,401.114746 161.10462,399.267578 161.10462,397.058594 C161.10462,395.420898 160.419073,392.964355 159.047979,389.688965 C158.489385,388.368652 158.009079,387.209147 157.607061,386.210449 L157.375245,385.630527 C156.707979,383.948652 156.294366,382.787793 156.134405,382.147949 C152.782842,368.018066 149.94544,355.46875 147.622198,344.5 C145.984502,336.349609 144.784795,330.236816 144.023077,326.161621 C142.613897,321.096191 139.814581,318.563477 135.625127,318.563477 C133.416143,318.563477 127.550909,325.780762 118.029424,340.215332 C111.402471,350.27002 105.384893,359.981934 99.9766899,369.351074 C96.4346978,370.379395 94.5875298,371.807617 94.435186,373.635742 C94.3590142,374.664062 94.5875298,375.768555 95.1207329,376.949219 C89.560186,388.18457 86.7799126,394.773438 86.7799126,396.71582 C86.7799126,398.924805 87.6178032,400.743408 89.2935845,402.171631 C90.9693657,403.599854 92.8546196,404.313965 94.9493462,404.313965 C97.9200493,404.313965 100.243292,402.942871 101.919073,400.200684 C103.004522,398.096436 104.009039,396.124298 104.932623,394.284271 L105.477061,393.196108 C107.972452,388.191997 109.833331,384.223633 111.059698,381.291016 C114.258917,380.719727 118.867315,380.224609 124.884893,379.805664 C131.283331,379.386719 135.891729,378.967773 138.710088,378.548828 C140.157354,384.414062 141.890264,389.59375 143.908819,394.087891 C146.955694,401.057617 149.983526,404.599609 152.992315,404.713867 Z M119.400518,366.95166 C124.618292,358.153809 128.71253,351.203125 131.683233,346.099609 C133.282842,354.021484 134.539678,360.458008 135.453741,365.40918 C134.349249,365.561523 131.66419,365.770996 127.398565,366.037598 C123.780401,366.266113 121.114385,366.570801 119.400518,366.95166 Z M217.490197,403.457031 C220.384728,403.457031 222.612756,401.990723 224.174279,399.058105 C225.393029,396.772949 226.002404,394.202148 226.002404,391.345703 C226.002404,390.050781 225.869103,388.127441 225.602502,385.575684 C225.3359,383.023926 225.2026,381.100586 225.2026,379.805664 C225.2026,374.092773 224.802697,366.323242 224.002893,356.49707 C223.126916,345.375977 222.612756,337.644531 222.460412,333.302734 C225.659631,333.264648 230.287072,333.455078 236.342736,333.874023 C242.626916,334.292969 247.254357,334.502441 250.22506,334.502441 C252.510217,334.502441 254.424035,333.750244 255.966516,332.24585 C257.508996,330.741455 258.280236,328.903809 258.280236,326.73291 C258.280236,324.562012 257.508996,322.733887 255.966516,321.248535 C254.424035,319.763184 252.510217,319.020508 250.22506,319.020508 C247.330529,319.020508 242.988732,318.820557 237.19967,318.420654 L236.605964,318.379998 C231.112894,318.0072 226.968999,317.820801 224.174279,317.820801 C221.851037,317.820801 218.375695,317.858887 213.748254,317.935059 C209.120812,318.01123 205.645471,318.049316 203.322228,318.049316 C200.998986,318.049316 197.952111,317.839844 194.181603,317.420898 C189.458947,316.849609 186.431115,316.525879 185.098107,316.449707 C182.508264,316.259277 180.413537,317.097168 178.813928,318.963379 C177.442834,320.524902 176.757287,322.276855 176.757287,324.219238 C176.757287,328.180176 178.871057,330.674805 183.098596,331.703125 C188.087853,332.921875 194.829064,333.53125 203.322228,333.53125 L203.322228,333.53125 L206.292932,333.53125 C206.445275,337.339844 206.978478,344.252441 207.892541,354.269043 C208.692346,362.990723 209.092248,369.90332 209.092248,375.006836 C209.092248,376.796875 209.216027,379.462891 209.463586,383.004883 C209.711144,386.546875 209.834924,389.193848 209.834924,390.945801 C209.834924,391.51709 209.739709,392.345459 209.549279,393.430908 C209.35885,394.516357 209.263635,395.325684 209.263635,395.858887 C209.263635,398.105957 210.158654,399.972168 211.948693,401.45752 C213.548303,402.790527 215.395471,403.457031 217.490197,403.457031 Z M307.924603,403.457031 C310.819134,403.457031 313.047161,401.990723 314.608685,399.058105 C315.827435,396.772949 316.43681,394.202148 316.43681,391.345703 C316.43681,390.050781 316.303509,388.127441 316.036908,385.575684 L315.991244,385.131897 C315.755085,382.799825 315.637005,381.024414 315.637005,379.805664 C315.637005,374.092773 315.237103,366.323242 314.437298,356.49707 C313.561322,345.375977 313.047161,337.644531 312.894818,333.302734 C316.094036,333.264648 320.721478,333.455078 326.777142,333.874023 C333.061322,334.292969 337.688763,334.502441 340.659466,334.502441 C342.944622,334.502441 344.858441,333.750244 346.400921,332.24585 C347.943402,330.741455 348.714642,328.903809 348.714642,326.73291 C348.714642,324.562012 347.943402,322.733887 346.400921,321.248535 C344.858441,319.763184 342.944622,319.020508 340.659466,319.020508 C337.764935,319.020508 333.423138,318.820557 327.634076,318.420654 C321.845013,318.020752 317.503216,317.820801 314.608685,317.820801 C312.285443,317.820801 308.810101,317.858887 304.18266,317.935059 L303.632897,317.944016 C299.279034,318.014216 295.986947,318.049316 293.756634,318.049316 C291.433392,318.049316 288.386517,317.839844 284.616009,317.420898 C279.893353,316.849609 276.865521,316.525879 275.532513,316.449707 C272.942669,316.259277 270.847943,317.097168 269.248333,318.963379 C267.87724,320.524902 267.191693,322.276855 267.191693,324.219238 C267.191693,328.180176 269.305462,330.674805 273.533001,331.703125 C278.522259,332.921875 285.26347,333.53125 293.756634,333.53125 L293.756634,333.53125 L296.727337,333.53125 C296.879681,337.339844 297.412884,344.252441 298.326947,354.269043 C299.126751,362.990723 299.526654,369.90332 299.526654,375.006836 C299.526654,376.796875 299.650433,379.462891 299.897992,383.004883 C300.14555,386.546875 300.269329,389.193848 300.269329,390.945801 C300.269329,391.51709 300.174115,392.345459 299.983685,393.430908 C299.793255,394.516357 299.69804,395.325684 299.69804,395.858887 C299.69804,398.105957 300.59306,399.972168 302.383099,401.45752 C303.982708,402.790527 305.829876,403.457031 307.924603,403.457031 Z M392.931762,408.655762 C404.928833,408.655762 412.831665,408.293945 416.640259,407.570312 C421.096313,406.732422 423.324341,404.180664 423.324341,399.915039 C423.324341,397.363281 422.429321,395.382812 420.639282,393.973633 C419.077759,392.716797 417.192505,392.088379 414.98352,392.088379 C414.259887,392.088379 413.155395,392.202637 411.670044,392.431152 C410.184692,392.659668 409.061157,392.773926 408.299438,392.773926 C405.93811,392.773926 402.377075,392.831055 397.616333,392.945312 C392.855591,393.05957 389.294555,393.116699 386.933227,393.116699 L386.540512,393.116017 C382.409744,393.101468 380.141235,392.854137 379.734985,392.374023 C378.859009,391.345703 378.42102,387.099121 378.42102,379.634277 C378.42102,376.663574 378.554321,372.759766 378.820923,367.922852 C389.713501,367.046875 397.863891,366.304199 403.272095,365.694824 C409.327759,365.161621 413.879028,364.780762 416.925903,364.552246 C421.762817,363.942871 424.181274,361.37207 424.181274,356.839844 C424.181274,354.478516 423.38147,352.58374 421.78186,351.155518 C420.182251,349.727295 418.258911,349.013184 416.011841,349.013184 C414.069458,349.013184 409.461059,349.375 402.186645,350.098633 C389.427856,351.355469 381.982055,352.060059 379.849243,352.212402 C380.192016,342.233887 380.363403,334.711914 380.363403,329.646484 C384.057739,328.732422 387.542602,328.046875 390.817993,327.589844 C394.093384,327.132812 397.159302,326.904297 400.015747,326.904297 C405.842895,326.904297 411.84143,327.742188 418.011352,329.417969 C418.849243,329.646484 419.649048,329.760742 420.410766,329.760742 C422.772095,329.760742 424.714477,328.884766 426.237915,327.132812 C427.609009,325.609375 428.294555,323.857422 428.294555,321.876953 C428.294555,318.373047 426.542602,315.95459 423.038696,314.621582 C417.28772,312.412598 409.613403,311.308105 400.015747,311.308105 C396.473755,311.308105 392.712768,311.584229 388.732788,312.136475 C384.752807,312.688721 380.553833,313.51709 376.135864,314.621582 C374.726684,313.669434 373.184204,313.193359 371.508423,313.193359 C366.176391,313.193359 363.510376,316.087891 363.510376,321.876953 C363.510376,323.209961 363.700805,325.180908 364.081665,327.789795 C364.462524,330.398682 364.652954,332.369629 364.652954,333.702637 C364.652954,338.768066 364.281616,346.413818 363.53894,356.639893 C362.796264,366.865967 362.424927,374.530762 362.424927,379.634277 C362.424927,391.936035 364.50061,399.934082 368.651977,403.628418 C372.422485,406.97998 380.515747,408.655762 392.931762,408.655762 Z M453.316363,407.513184 C458.800738,407.513184 461.542926,401.895508 461.542926,390.660156 C461.542926,387.651367 461.476276,383.119141 461.342975,377.063477 C461.209674,371.007812 461.143024,366.475586 461.143024,363.466797 L461.143141,363.338022 C461.147295,360.993425 461.261513,354.961643 461.485797,345.242676 C479.919391,369.084473 496.467731,387.613281 511.130817,400.829102 C514.482379,403.837891 517.491168,405.342285 520.157184,405.342285 C524.956012,405.342285 527.736285,402.885742 528.498004,397.972656 C529.145465,393.859375 529.469196,390.850586 529.469196,388.946289 C529.469196,388.82968 529.469265,388.708613 529.469405,388.583088 L529.470031,388.193138 C529.480759,383.017143 529.594738,371.233037 529.811969,352.84082 C529.882567,347.651844 529.920449,344.687575 529.926227,343.948014 L529.926227,343.814453 C529.926227,324.657227 526.822223,315.078613 520.614215,315.078613 C515.053668,315.078613 512.273395,317.706543 512.273395,322.962402 C512.273395,324.48584 512.463824,326.580566 512.844684,329.246582 C513.263629,332.255371 513.511188,334.312012 513.58736,335.416504 C513.968219,341.967285 514.158649,354.630859 514.158649,373.407227 L514.158411,374.270878 C514.156112,378.344052 514.137149,380.950699 514.10152,382.09082 C497.267535,366.513672 480.205035,346.385254 462.91402,321.705566 C459.486285,316.830566 456.363238,314.393066 453.544879,314.393066 C451.031207,314.393066 448.793658,315.288086 446.832233,317.078125 C444.870807,318.868164 443.890094,320.905762 443.890094,323.190918 C443.890094,325.476074 444.11861,328.884766 444.575641,333.416992 C445.032672,337.949219 445.261188,341.35791 445.261188,343.643066 C445.261188,346.04248 445.318317,349.660645 445.432574,354.497559 L445.445504,355.050255 C445.551142,359.61099 445.603961,363.044922 445.603961,365.352051 L445.603564,365.638786 C445.597481,367.881955 445.521442,371.156982 445.375446,375.463867 C445.223102,379.958008 445.14693,383.328613 445.14693,385.575684 C445.14693,387.099121 445.023151,389.40332 444.775592,392.488281 C444.528033,395.573242 444.404254,397.877441 444.404254,399.400879 C444.404254,401.571777 445.14693,403.418945 446.632281,404.942383 C448.308063,406.65625 450.53609,407.513184 453.316363,407.513184 Z M579.342078,408.655762 C590.805945,408.655762 599.699011,406.599121 606.021277,402.48584 C611.657996,398.82959 616.095007,393.973633 619.332312,387.917969 C622.569617,381.976562 624.188269,375.711426 624.188269,369.122559 C624.188269,358.191895 619.484656,348.213379 610.077429,339.187012 C602.19364,331.60791 592.672156,326.009277 581.512976,322.391113 C580.408484,322.04834 576.904578,320.467773 571.001257,317.649414 C565.935828,315.288086 562.774695,314.107422 561.517859,314.107422 C559.232703,314.107422 557.080847,315.145264 555.062293,317.220947 C553.043738,319.296631 552.034461,321.381836 552.034461,323.476562 L552.034461,323.476562 L552.0353,324.22199 C552.044534,328.435725 552.129947,334.528557 552.291541,342.500488 C552.462927,350.955566 552.548621,357.296875 552.548621,361.524414 C552.548621,365.333008 552.367713,371.045898 552.005896,378.663086 C551.64408,386.280273 551.463172,391.993164 551.463172,395.801758 C551.463172,397.93457 552.22489,399.753174 553.748328,401.257568 C555.271765,402.761963 557.157019,403.533203 559.40409,403.571289 C561.917761,405.170898 565.364539,406.46582 569.744422,407.456055 C573.362586,408.255859 576.561804,408.655762 579.342078,408.655762 Z M579.284949,393.288086 C576.923621,393.288086 574.781287,393.050049 572.857947,392.573975 C570.934607,392.0979 569.230261,391.383789 567.74491,390.431641 L567.74491,390.431641 L567.74491,333.874023 C579.894324,338.863281 587.816199,342.519531 591.510535,344.842773 C602.555457,351.736328 608.077918,359.905762 608.077918,369.351074 C608.077918,373.388184 607.078162,377.272949 605.07865,381.005371 C603.079138,384.737793 600.384558,387.689453 596.99491,389.860352 C593.414832,392.145508 587.511511,393.288086 579.284949,393.288086 Z M647.953241,405.056641 C650.466913,405.056641 654.237421,404.723389 659.264765,404.056885 C664.292108,403.390381 668.062616,403.057129 670.576288,403.057129 C672.709101,403.057129 675.908319,403.009521 680.173944,402.914307 C684.439569,402.819092 687.638788,402.771484 689.771601,402.771484 C692.056757,402.771484 693.951532,402.019287 695.455927,400.514893 C696.960321,399.010498 697.712519,397.191895 697.712519,395.059082 C697.712519,392.92627 696.960321,391.098145 695.455927,389.574707 C693.951532,388.05127 692.056757,387.289551 689.771601,387.289551 C684.515741,387.289551 679.355097,387.34668 674.289667,387.460938 L674.289667,387.460938 L674.346796,361.810059 C674.346796,350.193848 674.613398,340.881836 675.146601,333.874023 C684.020624,334.94043 689.44787,335.473633 691.428339,335.473633 C693.408808,335.473633 695.179804,334.883301 696.741327,333.702637 C698.645624,332.293457 699.597773,330.370117 699.597773,327.932617 C699.597773,323.324219 697.255487,320.696289 692.570917,320.048828 C680.802362,318.449219 671.185663,317.649414 663.720819,317.649414 C655.418085,317.649414 649.590937,317.801758 646.239374,318.106445 C644.182733,318.296875 642.449823,319.039551 641.040644,320.334473 C639.517206,321.743652 638.755487,323.571777 638.755487,325.818848 C638.755487,328.027832 639.526728,329.875 641.069208,331.360352 C642.611689,332.845703 644.525507,333.588379 646.810663,333.588379 L646.810663,333.588379 L659.207636,333.245605 C658.445917,342.652832 658.065058,352.536133 658.065058,362.895508 L658.065058,362.895508 L658.065209,364.266904 C658.065259,364.49275 658.065322,364.717237 658.065398,364.940364 L658.066002,366.262808 C658.072297,377.147203 658.110068,384.632191 658.179316,388.717773 C653.951776,389.289062 650.543085,389.574707 647.953241,389.574707 C645.668085,389.574707 643.77331,390.336426 642.268915,391.859863 C640.764521,393.383301 640.012323,395.211426 640.012323,397.344238 C640.012323,399.477051 640.764521,401.295654 642.268915,402.800049 C643.77331,404.304443 645.668085,405.056641 647.953241,405.056641 Z M723.876905,407.513184 C729.36128,407.513184 732.103467,401.895508 732.103467,390.660156 C732.103467,387.651367 732.036817,383.119141 731.903516,377.063477 C731.770215,371.007812 731.703565,366.475586 731.703565,363.466797 L731.704035,363.201371 C731.712185,360.764498 731.826286,354.778266 732.046338,345.242676 C750.479932,369.084473 767.028272,387.613281 781.691358,400.829102 C785.04292,403.837891 788.051709,405.342285 790.717725,405.342285 C795.516553,405.342285 798.296827,402.885742 799.058545,397.972656 C799.706006,393.859375 800.029737,390.850586 800.029737,388.946289 L800.029737,388.946289 L800.030207,388.391457 C800.038357,383.322109 800.152458,371.471897 800.37251,352.84082 C800.444966,347.515292 800.482962,344.533101 800.486768,343.89425 L800.486768,343.814453 C800.486768,324.657227 797.382764,315.078613 791.174756,315.078613 C785.614209,315.078613 782.833936,317.706543 782.833936,322.962402 C782.833936,324.48584 783.024366,326.580566 783.405225,329.246582 C783.82417,332.255371 784.071729,334.312012 784.147901,335.416504 C784.517721,341.777407 784.707991,353.901875 784.71871,371.789906 L784.718655,374.687009 C784.715326,378.522077 784.696461,380.990014 784.662061,382.09082 C767.828077,366.513672 750.765577,346.385254 733.474561,321.705566 C730.046827,316.830566 726.92378,314.393066 724.10542,314.393066 C721.591749,314.393066 719.3542,315.288086 717.392774,317.078125 C715.431348,318.868164 714.450635,320.905762 714.450635,323.190918 C714.450635,325.476074 714.679151,328.884766 715.136182,333.416992 C715.593213,337.949219 715.821729,341.35791 715.821729,343.643066 C715.821729,346.04248 715.878858,349.660645 715.993116,354.497559 L716.006046,355.050255 C716.111684,359.61099 716.164502,363.044922 716.164502,365.352051 C716.164502,367.599121 716.088331,370.969727 715.935987,375.463867 C715.783643,379.958008 715.707471,383.328613 715.707471,385.575684 C715.707471,387.099121 715.583692,389.40332 715.336133,392.488281 C715.088575,395.573242 714.964795,397.877441 714.964795,399.400879 C714.964795,401.571777 715.707471,403.418945 717.192823,404.942383 C718.868604,406.65625 721.096631,407.513184 723.876905,407.513184 Z M846.474885,406.941895 C857.177033,406.941895 866.508088,403.51416 874.468049,396.658691 C882.313752,389.841309 887.531525,380.757812 890.121369,369.408203 C892.406525,367.884766 893.549103,365.73291 893.549103,362.952637 C893.549103,360.781738 892.777863,358.953613 891.235383,357.468262 C889.692902,355.98291 887.779084,355.240234 885.493928,355.240234 C875.134553,355.240234 866.0701,355.887695 858.300568,357.182617 C844.513459,359.505859 837.619904,363.581055 837.619904,369.408203 C837.619904,371.388672 838.324494,373.159668 839.733674,374.721191 C841.295197,376.473145 843.256623,377.349121 845.617951,377.349121 C846.798615,377.349121 847.979279,377.08252 849.159943,376.549316 C855.710725,373.616699 863.404084,371.807617 872.240021,371.12207 C869.992951,377.825195 866.527131,382.928711 861.84256,386.432617 C857.424592,389.746094 852.302033,391.402832 846.474885,391.402832 C840.80008,391.402832 836.972443,390.203125 834.991975,387.803711 C833.125764,385.518555 832.192658,381.195801 832.192658,374.835449 C832.192658,362.305176 836.43924,350.669922 844.932404,339.929688 C850.759553,332.541016 855.386994,328.84668 858.814728,328.84668 C862.052033,328.84668 865.62259,329.922607 869.526398,332.074463 C873.430207,334.226318 875.9534,335.302246 877.095978,335.302246 C879.381135,335.302246 881.304475,334.49292 882.865998,332.874268 C884.427521,331.255615 885.208283,329.417969 885.208283,327.361328 C885.208283,323.78125 881.437775,320.410645 873.89676,317.249512 C867.536408,314.583496 862.509064,313.250488 858.814728,313.250488 C852.759064,313.250488 847.08426,315.478516 841.790314,319.93457 C834.249299,326.294922 828.079377,334.597656 823.280549,344.842773 C818.481721,355.087891 816.082307,365.085449 816.082307,374.835449 C816.082307,385.537598 818.615021,393.564209 823.680451,398.915283 C828.745881,404.266357 836.344025,406.941895 846.474885,406.941895 Z M1007.06293,406.484863 C1020.92622,406.484863 1032.16157,400.410156 1040.76899,388.260742 C1048.23383,377.749023 1051.96625,366.018555 1051.96625,353.069336 C1051.96625,340.84375 1048.65278,331.684082 1042.02582,325.590332 C1035.39887,319.496582 1025.4394,316.449707 1012.14741,316.449707 C998.322212,316.449707 986.858345,322.448242 977.755805,334.445312 C969.643501,345.109375 965.587348,356.916016 965.587348,369.865234 C965.587348,380.87207 969.814887,389.841309 978.269966,396.772949 C986.191841,403.247559 995.789497,406.484863 1007.06293,406.484863 Z M1007.06293,391.00293 C999.864692,391.00293 993.904243,389.098633 989.181587,385.290039 C984.268501,381.329102 981.811958,376.1875 981.811958,369.865234 C981.811958,360.496094 984.64936,351.964844 990.324165,344.271484 C996.379829,336.044922 1003.65424,331.931641 1012.14741,331.931641 C1020.86909,331.931641 1026.94379,333.416992 1030.37153,336.387695 C1033.95161,339.510742 1035.74165,345.071289 1035.74165,353.069336 C1035.74165,362.628906 1033.17084,371.160156 1028.02924,378.663086 C1022.43061,386.889648 1015.44184,391.00293 1007.06293,391.00293 Z M1078.75906,407.513184 C1084.24343,407.513184 1086.98562,401.895508 1086.98562,390.660156 C1086.98562,387.651367 1086.91897,383.119141 1086.78567,377.063477 C1086.65237,371.007812 1086.58572,366.475586 1086.58572,363.466797 L1086.58619,363.201371 C1086.59434,360.764498 1086.70844,354.778266 1086.92849,345.242676 C1105.36209,369.084473 1121.91043,387.613281 1136.57351,400.829102 C1139.92507,403.837891 1142.93386,405.342285 1145.59988,405.342285 C1150.39871,405.342285 1153.17898,402.885742 1153.9407,397.972656 C1154.58816,393.859375 1154.91189,390.850586 1154.91189,388.946289 L1154.91189,388.946289 L1154.9121,388.583088 C1154.91217,388.520326 1154.91226,388.456449 1154.91236,388.391457 L1154.9132,387.988133 C1154.92643,382.709948 1155.04025,370.994177 1155.25466,352.84082 C1155.32712,347.515292 1155.36512,344.533101 1155.36892,343.89425 L1155.36892,343.814453 C1155.36892,324.657227 1152.26492,315.078613 1146.05691,315.078613 C1140.49636,315.078613 1137.71609,317.706543 1137.71609,322.962402 C1137.71609,324.48584 1137.90652,326.580566 1138.28738,329.246582 C1138.6492,331.845082 1138.88318,333.733404 1138.98933,334.91155 L1139.01861,335.25999 L1139.01861,335.25999 L1139.03005,335.416504 C1139.41091,341.967285 1139.60134,354.630859 1139.60134,373.407227 C1139.60134,373.554656 1139.60132,373.700342 1139.60128,373.844284 L1139.60039,375.092678 C1139.59611,378.696614 1139.57739,381.029328 1139.54422,382.09082 C1122.71023,366.513672 1105.64773,346.385254 1088.35672,321.705566 C1084.92898,316.830566 1081.80593,314.393066 1078.98757,314.393066 C1076.4739,314.393066 1074.23635,315.288086 1072.27493,317.078125 C1070.3135,318.868164 1069.33279,320.905762 1069.33279,323.190918 C1069.33279,325.476074 1069.5613,328.884766 1070.01834,333.416992 C1070.47537,337.949219 1070.70388,341.35791 1070.70388,343.643066 C1070.70388,346.04248 1070.76101,349.660645 1070.87527,354.497559 C1070.98953,359.334473 1071.04666,362.952637 1071.04666,365.352051 C1071.04666,367.599121 1070.97048,370.969727 1070.81814,375.463867 C1070.6658,379.958008 1070.58963,383.328613 1070.58963,385.575684 C1070.58963,387.099121 1070.46585,389.40332 1070.21829,392.488281 C1069.97073,395.573242 1069.84695,397.877441 1069.84695,399.400879 C1069.84695,401.571777 1070.58963,403.418945 1072.07498,404.942383 C1073.75076,406.65625 1075.97879,407.513184 1078.75906,407.513184 Z M1172.22415,396.378701 C1172.35555,404.334893 1177.02012,408.312988 1186.21788,408.312988 C1191.74034,408.312988 1198.80528,407.589355 1207.4127,406.14209 C1216.81993,404.580566 1223.77061,402.80957 1228.26475,400.829102 C1231.57823,399.34375 1233.23497,396.963379 1233.23497,393.687988 C1233.23497,391.745605 1232.56846,389.993652 1231.23546,388.432129 C1229.75011,386.680176 1227.80772,385.804199 1225.40831,385.804199 C1224.6085,385.804199 1223.77061,385.9375 1222.89464,386.204102 C1208.76475,390.469727 1197.18663,392.678711 1188.16026,392.831055 C1188.54112,386.546875 1188.90294,381.881348 1189.24571,378.834473 C1190.27403,361.733887 1190.78819,343.033691 1190.78819,322.733887 C1190.78819,320.562988 1190.02647,318.71582 1188.50303,317.192383 C1186.9796,315.668945 1185.0753,314.907227 1182.79014,314.907227 C1180.50499,314.907227 1178.61021,315.668945 1177.10582,317.192383 C1175.60142,318.71582 1174.84923,320.562988 1174.84923,322.733887 C1174.84923,342.995605 1174.35411,361.391113 1173.36387,377.92041 C1172.60216,390.641113 1172.2213,396.677734 1172.2213,396.030273 L1172.22031,396.037 L1172.22415,396.378701 Z M1253.40082,405.056641 C1255.91449,405.056641 1259.685,404.723389 1264.71234,404.056885 C1269.73969,403.390381 1273.51019,403.057129 1276.02387,403.057129 C1278.15668,403.057129 1281.3559,403.009521 1285.62152,402.914307 C1289.88715,402.819092 1293.08637,402.771484 1295.21918,402.771484 C1297.50434,402.771484 1299.39911,402.019287 1300.9035,400.514893 C1302.4079,399.010498 1303.1601,397.191895 1303.1601,395.059082 C1303.1601,392.92627 1302.4079,391.098145 1300.9035,389.574707 C1299.39911,388.05127 1297.50434,387.289551 1295.21918,387.289551 C1289.96332,387.289551 1284.80267,387.34668 1279.73725,387.460938 L1279.73725,387.460938 L1279.79437,361.810059 C1279.79437,350.193848 1280.06098,340.881836 1280.59418,333.874023 C1289.4682,334.94043 1294.89545,335.473633 1296.87592,335.473633 C1298.85639,335.473633 1300.62738,334.883301 1302.18891,333.702637 C1304.0932,332.293457 1305.04535,330.370117 1305.04535,327.932617 C1305.04535,323.324219 1302.70307,320.696289 1298.0185,320.048828 C1286.24994,318.449219 1276.63324,317.649414 1269.1684,317.649414 C1260.86566,317.649414 1255.03851,317.801758 1251.68695,318.106445 C1249.63031,318.296875 1247.8974,319.039551 1246.48822,320.334473 C1244.96478,321.743652 1244.20307,323.571777 1244.20307,325.818848 C1244.20307,328.027832 1244.97431,329.875 1246.51679,331.360352 C1248.05927,332.845703 1249.97309,333.588379 1252.25824,333.588379 L1252.25824,333.588379 L1264.65521,333.245605 C1263.8935,342.652832 1263.51264,352.536133 1263.51264,362.895508 L1263.51264,362.895508 L1263.51324,365.605665 C1263.51838,376.846443 1263.55626,384.550479 1263.62689,388.717773 C1259.39935,389.289062 1255.99066,389.574707 1253.40082,389.574707 C1251.11566,389.574707 1249.22089,390.336426 1247.71649,391.859863 C1246.2121,393.383301 1245.4599,395.211426 1245.4599,397.344238 C1245.4599,399.477051 1246.2121,401.295654 1247.71649,402.800049 C1249.22089,404.304443 1251.11566,405.056641 1253.40082,405.056641 Z M1329.32448,407.513184 C1334.80886,407.513184 1337.55105,401.895508 1337.55105,390.660156 C1337.55105,387.651367 1337.4844,383.119141 1337.35109,377.063477 C1337.21779,371.007812 1337.15114,366.475586 1337.15114,363.466797 C1337.15114,361.219727 1337.2654,355.14502 1337.49392,345.242676 C1355.92751,369.084473 1372.47585,387.613281 1387.13894,400.829102 C1390.4905,403.837891 1393.49929,405.342285 1396.1653,405.342285 C1400.96413,405.342285 1403.7444,402.885742 1404.50612,397.972656 C1405.15358,393.859375 1405.47731,390.850586 1405.47731,388.946289 L1405.47731,388.946289 L1405.47815,388.193138 C1405.48888,383.017143 1405.60286,371.233037 1405.82009,352.84082 C1405.89069,347.651844 1405.92857,344.687575 1405.93435,343.948014 L1405.93435,343.84973 L1405.93435,343.84973 L1405.93435,343.814453 C1405.93435,324.657227 1402.83034,315.078613 1396.62233,315.078613 C1391.06179,315.078613 1388.28151,317.706543 1388.28151,322.962402 C1388.28151,324.48584 1388.47194,326.580566 1388.8528,329.246582 C1389.27175,332.255371 1389.51931,334.312012 1389.59548,335.416504 C1389.97634,341.967285 1390.16677,354.630859 1390.16677,373.407227 L1390.16653,374.270878 C1390.16423,378.344052 1390.14527,380.950699 1390.10964,382.09082 C1373.27565,366.513672 1356.21315,346.385254 1338.92214,321.705566 C1335.4944,316.830566 1332.37136,314.393066 1329.553,314.393066 C1327.03933,314.393066 1324.80178,315.288086 1322.84035,317.078125 C1320.87893,318.868164 1319.89821,320.905762 1319.89821,323.190918 C1319.89821,325.476074 1320.12673,328.884766 1320.58376,333.416992 C1321.04079,337.949219 1321.26931,341.35791 1321.26931,343.643066 C1321.26931,346.04248 1321.32644,349.660645 1321.44069,354.497559 L1321.45362,355.050255 C1321.55926,359.61099 1321.61208,363.044922 1321.61208,365.352051 L1321.61168,365.638786 C1321.6056,367.881955 1321.52956,371.156982 1321.38356,375.463867 C1321.23122,379.958008 1321.15505,383.328613 1321.15505,385.575684 C1321.15505,387.099121 1321.03127,389.40332 1320.78371,392.488281 C1320.53615,395.573242 1320.41237,397.877441 1320.41237,399.400879 C1320.41237,401.571777 1321.15505,403.418945 1322.6404,404.942383 C1324.31618,406.65625 1326.54421,407.513184 1329.32448,407.513184 Z M1455.17881,408.655762 C1467.17588,408.655762 1475.07871,408.293945 1478.88731,407.570312 C1483.34336,406.732422 1485.57139,404.180664 1485.57139,399.915039 C1485.57139,397.363281 1484.67637,395.382812 1482.88633,393.973633 C1481.32481,392.716797 1479.43955,392.088379 1477.23057,392.088379 C1476.50694,392.088379 1475.40244,392.202637 1473.91709,392.431152 C1472.43174,392.659668 1471.30821,392.773926 1470.54649,392.773926 C1468.18516,392.773926 1464.62412,392.831055 1459.86338,392.945312 C1455.10264,393.05957 1451.5416,393.116699 1449.18028,393.116699 L1448.78756,393.116017 C1444.65679,393.101468 1442.38828,392.854137 1441.98203,392.374023 C1441.10606,391.345703 1440.66807,387.099121 1440.66807,379.634277 C1440.66807,376.663574 1440.80137,372.759766 1441.06797,367.922852 C1451.96055,367.046875 1460.11094,366.304199 1465.51914,365.694824 C1471.57481,365.161621 1476.12608,364.780762 1479.17295,364.552246 C1484.00987,363.942871 1486.42832,361.37207 1486.42832,356.839844 C1486.42832,354.478516 1485.62852,352.58374 1484.02891,351.155518 C1482.4293,349.727295 1480.50596,349.013184 1478.25889,349.013184 C1476.31651,349.013184 1471.70811,349.375 1464.43369,350.098633 C1451.6749,351.355469 1444.2291,352.060059 1442.09629,352.212402 C1442.43906,342.233887 1442.61045,334.711914 1442.61045,329.646484 C1446.30479,328.732422 1449.78965,328.046875 1453.06504,327.589844 C1456.34043,327.132812 1459.40635,326.904297 1462.26279,326.904297 C1468.08994,326.904297 1474.08848,327.742188 1480.2584,329.417969 C1481.09629,329.646484 1481.8961,329.760742 1482.65781,329.760742 C1485.01914,329.760742 1486.96153,328.884766 1488.48496,327.132812 C1489.85606,325.609375 1490.5416,323.857422 1490.5416,321.876953 C1490.5416,318.373047 1488.78965,315.95459 1485.28574,314.621582 C1479.53477,312.412598 1471.86045,311.308105 1462.26279,311.308105 C1458.7208,311.308105 1454.95982,311.584229 1450.97984,312.136475 C1446.99986,312.688721 1442.80088,313.51709 1438.38291,314.621582 C1436.97373,313.669434 1435.43125,313.193359 1433.75547,313.193359 C1428.42344,313.193359 1425.75742,316.087891 1425.75742,321.876953 C1425.75742,323.209961 1425.94785,325.180908 1426.32871,327.789795 C1426.70957,330.398682 1426.9,332.369629 1426.9,333.702637 C1426.9,338.768066 1426.52866,346.413818 1425.78599,356.639893 C1425.04331,366.865967 1424.67197,374.530762 1424.67197,379.634277 C1424.67197,391.936035 1426.74766,399.934082 1430.89903,403.628418 C1434.66953,406.97998 1442.76279,408.655762 1455.17881,408.655762 Z M382.619995,567.371094 C393.474487,567.371094 404.13855,562.953125 414.612182,554.117188 C416.592651,552.441406 417.582886,550.47998 417.582886,548.23291 C417.582886,546.214355 416.84021,544.424316 415.354858,542.862793 C413.755249,541.187012 411.812866,540.349121 409.52771,540.349121 C408.004272,540.349121 405.757202,541.339355 402.786499,543.319824 C401.849354,543.958052 400.980757,544.544869 400.180707,545.080276 L399.511738,545.526605 C396.903008,547.261561 395.100064,548.392179 394.102905,548.918457 C390.218139,550.898926 386.390503,551.88916 382.619995,551.88916 C378.735229,551.88916 375.40271,550.403809 372.622436,547.433105 C369.842163,544.462402 368.452026,540.901367 368.452026,536.75 C368.452026,527.647461 372.850952,517.878418 381.648804,507.442871 C387.932983,499.978027 393.474487,496.245605 398.273315,496.245605 C400.710815,496.245605 402.21521,496.378906 402.786499,496.645508 C403.548218,496.988281 404.309936,498.016602 405.071655,499.730469 C406.70935,503.348633 409.242065,505.157715 412.6698,505.157715 C415.411987,505.157715 417.506714,504.129395 418.953979,502.072754 C420.058471,500.51123 420.610718,498.77832 420.610718,496.874023 C420.610718,492.608398 420.286987,488.875977 419.639526,485.676758 C418.725464,481.220703 416.32605,478.992676 412.441284,478.992676 C410.079956,478.992676 408.061401,479.811523 406.38562,481.449219 C405.3573,481.220703 404.167114,481.049316 402.815063,480.935059 C401.463012,480.820801 399.949096,480.763672 398.273315,480.763672 C388.370971,480.763672 378.6781,486.400391 369.194702,497.673828 C358.035522,510.96582 352.455932,523.991211 352.455932,536.75 C352.455932,544.900391 355.274292,551.984375 360.911011,558.001953 C366.814331,564.248047 374.050659,567.371094 382.619995,567.371094 Z M475.910846,569.484863 C489.774127,569.484863 501.009479,563.410156 509.616901,551.260742 C517.081744,540.749023 520.814166,529.018555 520.814166,516.069336 C520.814166,503.84375 517.50069,494.684082 510.873737,488.590332 C504.246783,482.496582 494.287311,479.449707 480.995319,479.449707 C467.170123,479.449707 455.706256,485.448242 446.603717,497.445312 C438.491412,508.109375 434.43526,519.916016 434.43526,532.865234 C434.43526,543.87207 438.662799,552.841309 447.117877,559.772949 C455.039752,566.247559 464.637408,569.484863 475.910846,569.484863 Z M475.910846,554.00293 C468.712604,554.00293 462.752155,552.098633 458.029498,548.290039 C453.116412,544.329102 450.659869,539.1875 450.659869,532.865234 C450.659869,523.496094 453.497272,514.964844 459.172076,507.271484 C465.22774,499.044922 472.502155,494.931641 480.995319,494.931641 C489.716998,494.931641 495.791705,496.416992 499.21944,499.387695 C502.799518,502.510742 504.589557,508.071289 504.589557,516.069336 C504.589557,525.628906 502.018756,534.160156 496.877155,541.663086 C491.278522,549.889648 484.289752,554.00293 475.910846,554.00293 Z M547.60697,570.513184 C553.091345,570.513184 555.833533,564.895508 555.833533,553.660156 C555.833533,550.651367 555.766882,546.119141 555.633582,540.063477 C555.500281,534.007812 555.433631,529.475586 555.433631,526.466797 L555.434101,526.201371 C555.442251,523.764498 555.556352,517.778266 555.776404,508.242676 C574.209998,532.084473 590.758338,550.613281 605.421423,563.829102 C608.772986,566.837891 611.781775,568.342285 614.447791,568.342285 C619.246619,568.342285 622.026892,565.885742 622.788611,560.972656 C623.436072,556.859375 623.759802,553.850586 623.759802,551.946289 L623.759802,551.946289 L623.760273,551.391457 C623.768423,546.322109 623.882524,534.471897 624.102576,515.84082 C624.175032,510.515292 624.213027,507.533101 624.216834,506.89425 L624.216834,506.814453 C624.216834,487.657227 621.11283,478.078613 614.904822,478.078613 C609.344275,478.078613 606.564002,480.706543 606.564002,485.962402 C606.564002,487.48584 606.754431,489.580566 607.135291,492.246582 C607.554236,495.255371 607.801795,497.312012 607.877966,498.416504 C608.247786,504.777407 608.438056,516.901875 608.448776,534.789906 L608.44872,537.687009 C608.445391,541.522077 608.426527,543.990014 608.392127,545.09082 C591.558142,529.513672 574.495642,509.385254 557.204627,484.705566 C553.776892,479.830566 550.653845,477.393066 547.835486,477.393066 C545.321814,477.393066 543.084265,478.288086 541.12284,480.078125 C539.161414,481.868164 538.180701,483.905762 538.180701,486.190918 C538.180701,488.476074 538.409216,491.884766 538.866248,496.416992 C539.323279,500.949219 539.551795,504.35791 539.551795,506.643066 C539.551795,509.04248 539.608923,512.660645 539.723181,517.497559 L539.736111,518.050255 C539.841749,522.61099 539.894568,526.044922 539.894568,528.352051 C539.894568,530.599121 539.818396,533.969727 539.666052,538.463867 C539.513709,542.958008 539.437537,546.328613 539.437537,548.575684 C539.437537,550.099121 539.313757,552.40332 539.066199,555.488281 C538.81864,558.573242 538.694861,560.877441 538.694861,562.400879 C538.694861,564.571777 539.437537,566.418945 540.922888,567.942383 C542.59867,569.65625 544.826697,570.513184 547.60697,570.513184 Z M650.324091,572.055664 C652.571161,572.055664 654.561151,571.312988 656.294062,569.827637 C658.026972,568.342285 658.893427,566.495117 658.893427,564.286133 L658.893427,564.286133 L658.893427,528.466309 C665.71081,526.714355 670.509638,525.838379 673.289911,525.838379 C675.27038,525.838379 678.241083,525.990723 682.202021,526.29541 L682.713049,526.334288 C686.419408,526.613057 689.219769,526.752441 691.11413,526.752441 C693.3612,526.752441 695.265497,526.009766 696.827021,524.524414 C698.388544,523.039062 699.169306,521.191895 699.169306,518.98291 C699.169306,514.412598 696.712763,511.822754 691.799677,511.213379 C686.543817,510.565918 680.373896,510.242188 673.289911,510.242188 C669.481317,510.242188 664.682489,510.946777 658.893427,512.355957 C658.969599,507.100098 658.969599,500.815918 658.893427,493.503418 C662.587763,492.894043 665.948847,492.437012 668.976679,492.132324 C672.004511,491.827637 674.680048,491.675293 677.00329,491.675293 C684.087274,491.675293 690.08581,492.475098 694.998896,494.074707 C696.065302,494.41748 697.036493,494.588867 697.91247,494.588867 C700.083368,494.588867 701.940058,493.808105 703.482538,492.246582 C705.025019,490.685059 705.796259,488.818848 705.796259,486.647949 C705.796259,483.677246 701.663935,481.068359 693.399286,478.821289 C686.810419,477.03125 681.345087,476.13623 677.00329,476.13623 C674.032587,476.13623 670.700067,476.317139 667.005732,476.678955 C663.311396,477.040771 659.255243,477.602539 654.837274,478.364258 C653.732782,477.792969 652.456903,477.507324 651.009638,477.507324 C648.724482,477.507324 646.829706,478.25 645.325312,479.735352 C643.820917,481.220703 643.06872,483.086914 643.06872,485.333984 C643.06872,486.819336 643.040155,489.066406 642.983026,492.075195 C642.925898,495.083984 642.897333,497.331055 642.897333,498.816406 L642.897333,564.286133 C642.897333,566.533203 643.58288,568.389893 644.953974,569.856201 C646.325067,571.32251 648.115107,572.055664 650.324091,572.055664 Z M753.498243,571.655762 C765.495313,571.655762 773.398145,571.293945 777.206739,570.570312 C781.662793,569.732422 783.890821,567.180664 783.890821,562.915039 C783.890821,560.363281 782.995801,558.382812 781.205762,556.973633 C779.644239,555.716797 777.758985,555.088379 775.55,555.088379 C774.826368,555.088379 773.721875,555.202637 772.236524,555.431152 C770.751172,555.659668 769.627637,555.773926 768.865918,555.773926 C766.50459,555.773926 762.943555,555.831055 758.182813,555.945312 C753.422071,556.05957 749.861036,556.116699 747.499708,556.116699 L747.106992,556.116017 C742.976224,556.101468 740.707715,555.854137 740.301465,555.374023 C739.425489,554.345703 738.9875,550.099121 738.9875,542.634277 C738.9875,539.663574 739.120801,535.759766 739.387403,530.922852 C750.279981,530.046875 758.430372,529.304199 763.838575,528.694824 C769.894239,528.161621 774.445508,527.780762 777.492383,527.552246 C782.329297,526.942871 784.747754,524.37207 784.747754,519.839844 C784.747754,517.478516 783.94795,515.58374 782.34834,514.155518 C780.748731,512.727295 778.825391,512.013184 776.578321,512.013184 C774.635938,512.013184 770.02754,512.375 762.753125,513.098633 C749.994336,514.355469 742.548536,515.060059 740.415723,515.212402 C740.758497,505.233887 740.929883,497.711914 740.929883,492.646484 C744.624219,491.732422 748.109083,491.046875 751.384473,490.589844 C754.659864,490.132812 757.725782,489.904297 760.582227,489.904297 C766.409375,489.904297 772.407911,490.742188 778.577833,492.417969 C779.415723,492.646484 780.215528,492.760742 780.977247,492.760742 C783.338575,492.760742 785.280958,491.884766 786.804395,490.132812 C788.175489,488.609375 788.861036,486.857422 788.861036,484.876953 C788.861036,481.373047 787.109083,478.95459 783.605176,477.621582 C777.8542,475.412598 770.179883,474.308105 760.582227,474.308105 C757.040235,474.308105 753.279249,474.584229 749.299268,475.136475 C745.319288,475.688721 741.120313,476.51709 736.702344,477.621582 C735.293165,476.669434 733.750684,476.193359 732.074903,476.193359 C726.742872,476.193359 724.076856,479.087891 724.076856,484.876953 C724.076856,486.209961 724.267286,488.180908 724.648145,490.789795 C725.029004,493.398682 725.219434,495.369629 725.219434,496.702637 C725.219434,501.768066 724.848096,509.413818 724.10542,519.639893 C723.362745,529.865967 722.991407,537.530762 722.991407,542.634277 C722.991407,554.936035 725.06709,562.934082 729.218458,566.628418 C732.988965,569.97998 741.082227,571.655762 753.498243,571.655762 Z M812.968781,567.999512 C815.253937,567.999512 817.158234,567.247314 818.681672,565.74292 C820.205109,564.238525 820.966828,562.400879 820.966828,560.22998 C820.966828,559.01123 820.757355,552.860352 820.33841,541.777344 C834.163605,545.966797 846.846223,553.469727 858.386262,564.286133 C860.100129,565.885742 861.985383,566.685547 864.042023,566.685547 C866.251008,566.685547 868.155305,565.914307 869.754914,564.371826 C871.354523,562.829346 872.154328,560.991699 872.154328,558.858887 C872.154328,556.992676 871.487824,555.297852 870.154816,553.774414 C865.051301,547.90918 857.453156,542.158203 847.360383,536.521484 C854.177766,533.893555 859.290803,530.665771 862.699494,526.838135 C866.108185,523.010498 867.812531,518.602051 867.812531,513.612793 C867.812531,501.501465 859.681184,491.351562 843.418488,483.163086 C839.686066,481.258789 835.15384,479.98291 829.821809,479.335449 L829.821809,479.335449 L829.750126,479.326941 C829.090698,479.259068 824.372893,478.900088 815.596711,478.25 C812.168976,477.983398 809.483918,479.14502 807.541535,481.734863 C806.056184,483.753418 805.313508,486.000488 805.313508,488.476074 L805.313508,488.476074 L805.19925,534.579102 L805.19925,534.579102 L805.198667,535.212912 C805.193615,538.05352 805.155723,542.117397 805.084992,547.404541 L805.076977,548.009167 C805.006148,553.401947 804.970734,557.475551 804.970734,560.22998 C804.970734,562.400879 805.732453,564.238525 807.255891,565.74292 C808.779328,567.247314 810.683625,567.999512 812.968781,567.999512 Z M823.251984,524.75293 C822.528351,524.75293 821.690461,524.733887 820.738312,524.695801 L820.738312,524.695801 L820.738312,494.360352 C824.88968,494.626953 827.117707,494.779297 827.422394,494.817383 C833.097199,495.388672 838.505402,497.540527 843.647004,501.272949 C849.055207,505.233887 851.759309,509.347168 851.759309,513.612793 C851.759309,514.450684 850.949982,515.688477 849.33133,517.326172 C847.712678,518.963867 845.93216,520.277832 843.989777,521.268066 C839.495637,523.591309 832.583039,524.75293 823.251984,524.75293 Z M919.513538,571.655762 C931.510609,571.655762 939.413441,571.293945 943.222035,570.570312 C947.678089,569.732422 949.906117,567.180664 949.906117,562.915039 C949.906117,560.363281 949.011097,558.382812 947.221058,556.973633 C945.659535,555.716797 943.774281,555.088379 941.565296,555.088379 C940.841663,555.088379 939.737171,555.202637 938.25182,555.431152 C936.766468,555.659668 935.642933,555.773926 934.881214,555.773926 C932.519886,555.773926 928.958851,555.831055 924.198109,555.945312 C919.437367,556.05957 915.876331,556.116699 913.515003,556.116699 L913.122288,556.116017 C908.99152,556.101468 906.723011,555.854137 906.316761,555.374023 C905.440785,554.345703 905.002796,550.099121 905.002796,542.634277 C905.002796,539.663574 905.136097,535.759766 905.402699,530.922852 C916.295277,530.046875 924.445667,529.304199 929.85387,528.694824 C935.909535,528.161621 940.460804,527.780762 943.507679,527.552246 C948.344593,526.942871 950.76305,524.37207 950.76305,519.839844 C950.76305,517.478516 949.963245,515.58374 948.363636,514.155518 C946.764027,512.727295 944.840687,512.013184 942.593617,512.013184 C940.651234,512.013184 936.042835,512.375 928.768421,513.098633 C916.009632,514.355469 908.563831,515.060059 906.431019,515.212402 C906.773792,505.233887 906.945179,497.711914 906.945179,492.646484 C910.639515,491.732422 914.124378,491.046875 917.399769,490.589844 C920.67516,490.132812 923.741078,489.904297 926.597523,489.904297 C932.424671,489.904297 938.423206,490.742188 944.593128,492.417969 C945.431019,492.646484 946.230824,492.760742 946.992542,492.760742 C949.35387,492.760742 951.296253,491.884766 952.819691,490.132812 C954.190785,488.609375 954.876331,486.857422 954.876331,484.876953 C954.876331,481.373047 953.124378,478.95459 949.620472,477.621582 C943.869495,475.412598 936.195179,474.308105 926.597523,474.308105 C923.055531,474.308105 919.294544,474.584229 915.314564,475.136475 C911.334583,475.688721 907.135609,476.51709 902.71764,477.621582 C901.30846,476.669434 899.76598,476.193359 898.090199,476.193359 C892.758167,476.193359 890.092152,479.087891 890.092152,484.876953 C890.092152,486.209961 890.282581,488.180908 890.663441,490.789795 C891.0443,493.398682 891.23473,495.369629 891.23473,496.702637 C891.23473,501.768066 890.863392,509.413818 890.120716,519.639893 C889.37804,529.865967 889.006703,537.530762 889.006703,542.634277 C889.006703,554.936035 891.082386,562.934082 895.233753,566.628418 C899.004261,569.97998 907.097523,571.655762 919.513538,571.655762 Z M979.898139,570.513184 C985.382514,570.513184 988.124702,564.895508 988.124702,553.660156 C988.124702,550.651367 988.058052,546.119141 987.924751,540.063477 C987.79145,534.007812 987.7248,529.475586 987.7248,526.466797 L987.72527,526.201371 C987.73342,523.764498 987.847521,517.778266 988.067573,508.242676 C1006.50117,532.084473 1023.04951,550.613281 1037.71259,563.829102 C1041.06416,566.837891 1044.07294,568.342285 1046.73896,568.342285 C1051.53779,568.342285 1054.31806,565.885742 1055.07978,560.972656 C1055.72724,556.859375 1056.05097,553.850586 1056.05097,551.946289 L1056.05097,551.946289 L1056.05118,551.583088 C1056.05125,551.520326 1056.05134,551.456449 1056.05144,551.391457 L1056.05228,550.988133 C1056.06551,545.709948 1056.17934,533.994177 1056.39374,515.84082 C1056.46434,510.651844 1056.50223,507.687575 1056.508,506.948014 L1056.508,506.814453 C1056.508,487.657227 1053.404,478.078613 1047.19599,478.078613 C1041.63544,478.078613 1038.85517,480.706543 1038.85517,485.962402 C1038.85517,487.48584 1039.0456,489.580566 1039.42646,492.246582 C1039.78828,494.845082 1040.02226,496.733404 1040.12841,497.91155 L1040.15769,498.25999 L1040.15769,498.25999 L1040.16914,498.416504 C1040.53344,504.682469 1040.72351,516.541234 1040.73934,533.992801 L1040.7403,535.594715 L1040.7403,535.594715 L1040.74042,536.407227 C1040.74042,536.702085 1040.74035,536.989969 1040.74019,537.270878 L1040.73947,538.092678 C1040.73519,541.696614 1040.71647,544.029328 1040.6833,545.09082 C1023.84931,529.513672 1006.78681,509.385254 989.495796,484.705566 C986.068061,479.830566 982.945014,477.393066 980.126655,477.393066 C977.612983,477.393066 975.375434,478.288086 973.414009,480.078125 C971.452583,481.868164 970.47187,483.905762 970.47187,486.190918 C970.47187,488.476074 970.700386,491.884766 971.157417,496.416992 C971.614448,500.949219 971.842964,504.35791 971.842964,506.643066 C971.842964,509.04248 971.900093,512.660645 972.01435,517.497559 C972.128608,522.334473 972.185737,525.952637 972.185737,528.352051 L972.18534,528.638786 C972.179257,530.881955 972.103218,534.156982 971.957221,538.463867 C971.804878,542.958008 971.728706,546.328613 971.728706,548.575684 C971.728706,550.099121 971.604927,552.40332 971.357368,555.488281 C971.109809,558.573242 970.98603,560.877441 970.98603,562.400879 C970.98603,564.571777 971.728706,566.418945 973.214057,567.942383 C974.889839,569.65625 977.117866,570.513184 979.898139,570.513184 Z M1102.89602,567.371094 C1113.75051,567.371094 1124.41458,562.953125 1134.88821,554.117188 C1136.86868,552.441406 1137.85891,550.47998 1137.85891,548.23291 C1137.85891,546.214355 1137.11624,544.424316 1135.63088,542.862793 C1134.03128,541.187012 1132.08889,540.349121 1129.80374,540.349121 C1128.2803,540.349121 1126.03323,541.339355 1123.06253,543.319824 C1122.12538,543.958052 1121.25678,544.544869 1120.45673,545.080276 L1119.78776,545.526605 C1117.17904,547.261561 1115.37609,548.392179 1114.37893,548.918457 C1110.49417,550.898926 1106.66653,551.88916 1102.89602,551.88916 C1099.01126,551.88916 1095.67874,550.403809 1092.89846,547.433105 C1090.11819,544.462402 1088.72805,540.901367 1088.72805,536.75 C1088.72805,527.647461 1093.12698,517.878418 1101.92483,507.442871 C1108.20901,499.978027 1113.75051,496.245605 1118.54934,496.245605 C1120.98684,496.245605 1122.49124,496.378906 1123.06253,496.645508 C1123.82424,496.988281 1124.58596,498.016602 1125.34768,499.730469 C1126.98538,503.348633 1129.51809,505.157715 1132.94583,505.157715 C1135.68801,505.157715 1137.78274,504.129395 1139.23001,502.072754 C1140.3345,500.51123 1140.88674,498.77832 1140.88674,496.874023 C1140.88674,492.608398 1140.56301,488.875977 1139.91555,485.676758 C1139.00149,481.220703 1136.60208,478.992676 1132.71731,478.992676 C1130.35598,478.992676 1128.33743,479.811523 1126.66165,481.449219 C1125.63333,481.220703 1124.44314,481.049316 1123.09109,480.935059 C1121.73904,480.820801 1120.22512,480.763672 1118.54934,480.763672 C1108.647,480.763672 1098.95413,486.400391 1089.47073,497.673828 C1078.31155,510.96582 1072.73196,523.991211 1072.73196,536.75 C1072.73196,544.900391 1075.55032,551.984375 1081.18704,558.001953 C1087.09036,564.248047 1094.32669,567.371094 1102.89602,567.371094 Z M1187.16051,571.655762 C1199.15758,571.655762 1207.06041,571.293945 1210.869,570.570312 C1215.32506,569.732422 1217.55308,567.180664 1217.55308,562.915039 C1217.55308,560.363281 1216.65806,558.382812 1214.86803,556.973633 C1213.3065,555.716797 1211.42125,555.088379 1209.21226,555.088379 C1208.48863,555.088379 1207.38414,555.202637 1205.89879,555.431152 C1204.41344,555.659668 1203.2899,555.773926 1202.52818,555.773926 C1200.16685,555.773926 1196.60582,555.831055 1191.84508,555.945312 C1187.08433,556.05957 1183.5233,556.116699 1181.16197,556.116699 L1180.76926,556.116017 C1176.63849,556.101468 1174.36998,555.854137 1173.96373,555.374023 C1173.08775,554.345703 1172.64976,550.099121 1172.64976,542.634277 C1172.64976,539.663574 1172.78306,535.759766 1173.04967,530.922852 C1183.94224,530.046875 1192.09263,529.304199 1197.50084,528.694824 C1203.5565,528.161621 1208.10777,527.780762 1211.15465,527.552246 C1215.99156,526.942871 1218.41002,524.37207 1218.41002,519.839844 C1218.41002,517.478516 1217.61021,515.58374 1216.0106,514.155518 C1214.41099,512.727295 1212.48765,512.013184 1210.24058,512.013184 C1208.2982,512.013184 1203.6898,512.375 1196.41539,513.098633 C1183.6566,514.355469 1176.2108,515.060059 1174.07799,515.212402 C1174.42076,505.233887 1174.59215,497.711914 1174.59215,492.646484 C1178.28648,491.732422 1181.77135,491.046875 1185.04674,490.589844 C1188.32213,490.132812 1191.38804,489.904297 1194.24449,489.904297 C1200.07164,489.904297 1206.07017,490.742188 1212.2401,492.417969 C1213.07799,492.646484 1213.87779,492.760742 1214.63951,492.760742 C1217.00084,492.760742 1218.94322,491.884766 1220.46666,490.132812 C1221.83775,488.609375 1222.5233,486.857422 1222.5233,484.876953 C1222.5233,481.373047 1220.77135,478.95459 1217.26744,477.621582 C1211.51646,475.412598 1203.84215,474.308105 1194.24449,474.308105 C1190.7025,474.308105 1186.94151,474.584229 1182.96153,475.136475 C1178.98155,475.688721 1174.78258,476.51709 1170.36461,477.621582 C1168.95543,476.669434 1167.41295,476.193359 1165.73717,476.193359 C1160.40513,476.193359 1157.73912,479.087891 1157.73912,484.876953 C1157.73912,486.209961 1157.92955,488.180908 1158.31041,490.789795 C1158.69127,493.398682 1158.8817,495.369629 1158.8817,496.702637 C1158.8817,501.768066 1158.51036,509.413818 1157.76768,519.639893 C1157.02501,529.865967 1156.65367,537.530762 1156.65367,542.634277 C1156.65367,554.936035 1158.72935,562.934082 1162.88072,566.628418 C1166.65123,569.97998 1174.74449,571.655762 1187.16051,571.655762 Z" mask="url(#emoji-today-i-am.inline-b)"/>
    <path fill="#FFF" fill-rule="nonzero" d="M435.572297,157 L435.572297,74.6723633 L465.503449,74.6723633 L465.503449,56.9580078 L384.465363,56.9580078 L384.465363,74.6723633 L414.532258,74.6723633 L414.532258,157 L435.572297,157 Z M521.972199,159.782715 C536.270376,159.782715 547.197622,155.891439 554.753937,148.108887 C564.844107,138.561686 569.889191,124.806478 569.889191,106.843262 C569.889191,88.5180664 564.844107,74.7628581 554.753937,65.5776367 C547.197622,57.7950846 536.270376,53.9038086 521.972199,53.9038086 C507.674022,53.9038086 496.746776,57.7950846 489.190461,65.5776367 C479.055044,74.7628581 473.987336,88.5180664 473.987336,106.843262 C473.987336,124.806478 479.055044,138.561686 489.190461,148.108887 C496.746776,155.891439 507.674022,159.782715 521.972199,159.782715 Z M521.972199,142.068359 C513.691926,142.068359 507.085806,139.01416 502.15384,132.905762 C497.221874,126.797363 494.755891,118.109863 494.755891,106.843262 C494.755891,95.5766602 497.221874,86.8891602 502.15384,80.7807617 C507.085806,74.6723633 513.691926,71.6181641 521.972199,71.6181641 C530.252473,71.6181641 536.824657,74.6836751 541.688752,80.8146973 C546.552847,86.9457194 548.984894,95.6219076 548.984894,106.843262 C548.984894,118.109863 546.552847,126.797363 541.688752,132.905762 C536.824657,139.01416 530.252473,142.068359 521.972199,142.068359 Z M628.937043,157 C644.049673,157 655.22578,150.778483 662.465363,138.335449 C667.804556,129.10498 670.474152,117.838379 670.474152,104.535645 C670.474152,99.2869466 669.840689,93.7667643 668.573762,87.9750977 C667.306835,82.183431 664.931346,76.7989909 661.447297,71.8217773 C657.103547,65.6681315 651.424999,61.4375 644.411652,59.1298828 C640.294139,57.7724609 635.135936,57.0485026 628.937043,56.9580078 L628.937043,56.9580078 L585.838898,56.9580078 L585.838898,157 L628.937043,157 Z M625.407746,139.625 L606.132355,139.625 L606.132355,74.3330078 L625.407746,74.3330078 C634.909699,74.3330078 641.255646,77.0591634 644.445588,82.5114746 C647.635529,87.9637858 649.2305,95.7802734 649.2305,105.960938 C649.2305,113.336263 648.167186,119.693522 646.040559,125.032715 C642.149282,134.760905 635.271678,139.625 625.407746,139.625 L625.407746,139.625 Z M701.016144,157 L707.938996,136.435059 L744.793,136.435059 L751.240754,157 L773.909699,157 L738.480988,56.9580078 L714.861848,56.9580078 L679.161652,157 L701.016144,157 Z M738.956086,119.195801 L713.572297,119.195801 L726.467805,79.8305664 L738.956086,119.195801 Z M833.907746,157 L833.907746,119.399414 L867.368195,56.9580078 L843.681184,56.9580078 L823.794953,100.53125 L803.026398,56.9580078 L778.389191,56.9580078 L813.003449,119.399414 L813.003449,157 L833.907746,157 Z M937.071809,157 L937.071809,56.9580078 L916.303254,56.9580078 L916.303254,157 L937.071809,157 Z M1009.96536,157 L1016.88821,136.435059 L1053.74222,136.435059 L1060.18997,157 L1082.85892,157 L1047.43021,56.9580078 L1023.81107,56.9580078 L988.110871,157 L1009.96536,157 Z M1047.9053,119.195801 L1022.52152,119.195801 L1035.41702,79.8305664 L1047.9053,119.195801 Z M1114.69046,157 L1114.69046,89.3325195 C1114.69046,87.3868815 1114.66784,84.6607259 1114.62259,81.1540527 L1114.61563,80.6070418 C1114.57502,77.365022 1114.55472,74.8438271 1114.55472,73.043457 L1114.55472,73.043457 L1133.35501,157 L1153.64847,157 L1172.5845,73.043457 C1172.5845,74.9438477 1172.56188,77.6473796 1172.51663,81.1540527 L1172.50968,81.7012517 C1172.46907,84.9455276 1172.44876,87.4892835 1172.44876,89.3325195 L1172.44876,157 L1191.92777,157 L1191.92777,56.9580078 L1161.86087,56.9580078 L1143.80716,135.620605 L1125.61771,56.9580078 L1095.21146,56.9580078 L1095.21146,157 L1114.69046,157 Z" mask="url(#emoji-today-i-am.inline-b)"/>
    <rect width="1573" height="766" x="5" y="5" stroke="#FFF" stroke-width="10" mask="url(#emoji-today-i-am.inline-b)" rx="60"/>
  </g>
</svg>
