<svg xmlns="http://www.w3.org/2000/svg" width="485" height="531" viewBox="0 0 485 531">
  <defs>
    <radialGradient id="emoji-working.inline-a" cx="50.154%" cy="51.01%" r="50.008%" fx="50.154%" fy="51.01%" gradientTransform="matrix(.90577 0 0 1 .047 0)">
      <stop offset="0%" stop-color="#FFF"/>
      <stop offset="100%" stop-color="#FFF" stop-opacity="0"/>
    </radialGradient>
  </defs>
  <g fill="none" fill-rule="evenodd">
    <path fill="#253240" fill-rule="nonzero" d="M466.054688,338 L18.9453125,338 C8.52539062,338 0,329.486623 0,319.081384 L0,18.9186164 C0,8.51337736 8.52539062,0 18.9453125,0 L466.054688,0 C476.474609,0 485,8.51337736 485,18.9186164 L485,319.081384 C485,329.486623 476.474609,338 466.054688,338 Z"/>
    <g fill="#00DC00" fill-rule="nonzero" transform="translate(24 30)">
      <rect width="253.152" height="7.683" x=".807" y=".406"/>
      <rect width="30.117" height="7.683" x="405.038" y=".406"/>
      <rect width="74.421" height="7.683" x="314.914" y=".406"/>
      <rect width="19.079" height="7.683" x=".807" y="22.546"/>
      <rect width="82.917" height="7.683" x="352.238" y="22.546"/>
      <rect width="74.421" height="7.683" x="45.566" y="22.546"/>
      <rect width="67.328" height="7.683" x="14.121" y="44.648"/>
      <rect width="74.421" height="7.683" x="314.914" y="44.648"/>
      <rect width="34.517" height="7.683" x=".807" y="66.788"/>
      <rect width="74.421" height="7.683" x="348.748" y="66.788"/>
      <rect width="214.424" height="7.683" x="19.128" y="88.89"/>
      <rect width="74.421" height="7.683" x="314.914" y="88.89"/>
      <rect width="74.421" height="7.683" x="314.914" y="111.03"/>
      <rect width="197.886" height="7.683" x="165.807" y="67.205"/>
      <rect width="253.152" height="7.683" x=".807" y="114.664"/>
      <rect width="30.117" height="7.683" x="405.038" y="114.664"/>
      <rect width="74.421" height="7.683" x="314.914" y="114.664"/>
      <rect width="19.079" height="7.683" x=".807" y="136.766"/>
      <rect width="19.079" height="7.683" x="413.307" y="167.724"/>
      <rect width="82.917" height="7.683" x="352.238" y="136.766"/>
      <rect width="74.421" height="7.683" x="2.552" y="233.16"/>
      <rect width="67.328" height="7.683" x="14.121" y="158.906"/>
      <rect width="74.421" height="7.683" x="314.914" y="158.906"/>
      <rect width="34.517" height="7.683" x=".807" y="181.008"/>
      <rect width="74.421" height="7.683" x="314.914" y="181.008"/>
      <rect width="214.424" height="7.683" x="19.128" y="203.148"/>
      <rect width="214.424" height="7.683" x="205.976" y="203.148"/>
      <rect width="74.421" height="7.683" x="314.914" y="203.148"/>
      <rect width="253.152" height="7.683" x="179.917" y="225.288"/>
      <rect width="74.421" height="7.683" x="314.914" y="225.288"/>
    </g>
    <path fill="#00BFA5" fill-rule="nonzero" d="M77,447.531111 L77,485 L407,485 L407,447.531111 C407,390.05861 325.995869,360.886674 243.249713,361 C160.995869,361.113988 77,386.686788 77,447.531111 Z"/>
    <path fill="#E49500" fill-rule="nonzero" d="M241.481013,342 L207,342 L207,378.271633 C207,394.686533 221.050633,408 238.367089,408 L244.632911,408 C261.949367,408 276,394.686533 276,378.271633 L276,342 L241.481013,342 Z"/>
    <path fill="#C48E6A" fill-rule="nonzero" d="M49.0995455,0.791578947 C49.0995455,0.791578947 46.7227273,0.526315789 46.3077273,0.488421053 C50.3068182,6.47578947 54.985,15.3810526 56.8713636,19.0189474 C59.8895455,24.8547368 61.8890909,30.5768421 56.4940909,34.6694737 C54.0040909,36.5642105 51.7404545,36.8294737 49.8918182,36.0715789 C48.0809091,34.5936842 46.4586364,31.5621053 46.4586364,31.5621053 C39.3281818,18.4126316 34.3859091,11.8189474 34.3859091,11.8189474 C33.8954545,11.2505263 32.8390909,9.43157895 31.3677273,8.52210526 C29.4813636,7.38526316 30.0472727,9.39368421 30.0472727,9.39368421 C38.3472727,22.3915789 43.4027273,32.7747368 43.4027273,32.7747368 C45.5531818,36.7157895 45.1759091,39.52 44.5722727,41.0736842 C43.8554545,42.9684211 39.7431818,45.6210526 39.7431818,45.6210526 C31.3677273,50.6610526 27.5195455,43.9536842 27.5195455,43.9536842 C27.5195455,43.9536842 22.615,37.7768421 14.3904545,22.3536842 C14.3904545,22.3536842 13.1077273,20.2315789 12.3154545,21.7094737 C12.3154545,21.7094737 12.7681818,24.3242105 13.9754545,26.7873684 C13.9754545,26.7873684 17.7104545,35.7305263 24.9918182,46.0378947 C26.765,50.32 24.6522727,53.4652632 22.2,54.9052632 C19.2195455,56.6105263 16.7672727,56.08 14.7677273,54.7157895 C12.9190909,52.8968421 8.58045455,47.9326316 2.24227273,36.4884211 C2.24227273,36.4884211 0.997272727,33.6463158 0.393636364,34.6315789 C0.393636364,34.6315789 -0.247727273,35.3894737 1.48772727,39.7852632 C1.48772727,39.7852632 4.01545455,46.1136842 10.3159091,54.5263158 C12.655,57.7852632 12.3909091,59.3768421 11.4477273,60.3621053 C9.335,62.4842105 5.82636364,62.9768421 3.22318182,61.7263158 C5.48681818,63.1284211 9.41045455,64.8336842 13.2209091,62.4463158 C13.2209091,62.4463158 15.6731818,60.6652632 15.8618182,58.7705263 C20.0118182,61.0821053 25.7463636,56.7621053 25.7463636,56.7621053 C28.425,54.6778947 29.1418182,52.3663158 29.0663636,50.3578947 L29.0663636,50.3578947 C34.5745455,53.6547368 41.6295455,49.1073684 41.6295455,49.1073684 C47.8168182,45.5831579 49.0240909,41.8694737 49.0240909,39.4442105 C52.2309091,41.4526316 56.1922727,39.9368421 56.1922727,39.9368421 C63.1718182,36.8294737 62.9454545,29.9705263 62.9454545,29.9705263 C62.6436364,20.4968421 53.5136364,7.08210526 49.0995455,0.791578947 Z" transform="translate(11 409)"/>
    <g transform="translate(0 403)">
      <path d="M36.784 56.406C36.784 56.52 36.746 56.596 36.708 56.71 36.708 56.596 36.746 56.52 36.784 56.406zM27.854 61.726C27.664 61.688 27.512 61.612 27.36 61.536 27.512 61.612 27.664 61.65 27.854 61.726zM22.648 66.438C22.648 66.438 22.686 66.4 22.686 66.362 22.61 66.438 22.534 66.514 22.458 66.59 22.534 66.552 22.61 66.514 22.648 66.438zM25.954 60.814C26.03 60.852 26.106 60.89 26.182 60.928 26.106 60.852 25.992 60.814 25.878 60.738 25.916 60.776 25.954 60.776 25.954 60.814zM20.026 68.072C19.874 68.11 19.76 68.186 19.608 68.224 19.76 68.148 19.912 68.11 20.026 68.072zM31.426 61.802C31.236 61.84 31.046 61.878 30.818 61.916 31.046 61.878 31.236 61.878 31.426 61.802zM34.352 60.358C34.048 60.586 33.744 60.814 33.44 60.966 33.744 60.814 34.048 60.586 34.352 60.358zM35.872 58.686C35.796 58.8 35.72 58.876 35.644 58.99 35.72 58.876 35.796 58.8 35.872 58.686zM29.564 62.03C29.374 62.03 29.146 61.992 28.956 61.954 29.184 61.992 29.374 62.03 29.564 62.03zM35.15 59.598C35.036 59.75 34.884 59.864 34.732 59.978 34.884 59.864 35.036 59.75 35.15 59.598zM36.442 57.622C36.404 57.736 36.328 57.812 36.29 57.888 36.328 57.774 36.404 57.698 36.442 57.622zM18.848 68.376C18.658 68.414 18.468 68.414 18.278 68.452 18.468 68.414 18.658 68.414 18.848 68.376zM36.214 52.112C36.214 52.112 36.214 52.074 36.176 52.074 36.252 52.226 36.29 52.378 36.328 52.53 36.328 52.378 36.29 52.264 36.214 52.112zM36.708 53.594C36.746 53.746 36.746 53.86 36.784 54.012 36.746 53.86 36.746 53.746 36.708 53.594zM15.922 68.338C15.656 68.3 15.39 68.224 15.162 68.148 15.39 68.224 15.656 68.262 15.922 68.338zM17.594 68.49C17.214 68.49 16.796 68.49 16.416 68.414 16.796 68.49 17.214 68.528 17.594 68.49zM36.898 55.076C36.898 55.19 36.898 55.304 36.86 55.418 36.86 55.304 36.898 55.19 36.898 55.076z"/>
      <path fill="#E0BB95" fill-rule="nonzero" d="M15.922,68.338 C16.074,68.376 16.264,68.414 16.416,68.452 C16.796,68.49 17.214,68.528 17.594,68.528 C17.822,68.528 18.05,68.49 18.278,68.452 C18.468,68.414 18.658,68.414 18.848,68.376 C19.114,68.338 19.342,68.262 19.608,68.186 C19.76,68.148 19.874,68.11 20.026,68.034 C20.938,67.73 21.774,67.236 22.458,66.59 C22.534,66.514 22.61,66.438 22.686,66.362 C23.598,65.374 23.826,63.778 21.508,60.586 C15.124,52.15 12.616,45.804 12.616,45.804 C10.868,41.358 11.514,40.636 11.514,40.636 C12.122,39.648 13.376,42.498 13.376,42.498 C19.722,53.898 24.054,58.876 25.916,60.738 C25.992,60.814 26.106,60.852 26.22,60.928 C26.6,61.156 26.98,61.384 27.36,61.536 C27.512,61.612 27.702,61.65 27.854,61.726 C28.234,61.84 28.614,61.916 28.994,61.992 C29.184,62.03 29.374,62.03 29.602,62.068 C30.02,62.068 30.438,62.03 30.856,61.954 C31.046,61.916 31.236,61.916 31.464,61.84 C32.11,61.65 32.756,61.422 33.478,61.004 C33.782,60.814 34.086,60.624 34.39,60.396 C34.542,60.282 34.656,60.13 34.808,60.016 C34.96,59.902 35.112,59.75 35.226,59.636 C35.416,59.446 35.53,59.218 35.72,59.028 C35.796,58.914 35.872,58.838 35.948,58.724 C36.1,58.496 36.252,58.192 36.366,57.926 C36.404,57.85 36.48,57.736 36.518,57.66 C36.632,57.356 36.708,57.052 36.784,56.748 C36.822,56.634 36.86,56.558 36.86,56.444 C36.936,56.14 36.936,55.798 36.936,55.456 C36.936,55.342 36.974,55.228 36.974,55.114 C36.974,54.772 36.898,54.43 36.86,54.05 C36.822,53.898 36.822,53.784 36.784,53.632 C36.708,53.29 36.556,52.91 36.442,52.568 C36.404,52.416 36.328,52.264 36.29,52.112 C28.994,41.814 25.232,32.846 25.232,32.846 C24.016,30.338 23.56,27.754 23.56,27.754 C24.358,26.272 25.65,28.4 25.65,28.4 C33.934,43.866 38.874,50.06 38.874,50.06 C38.874,50.06 42.75,56.786 51.186,51.732 C51.186,51.732 55.366,49.034 56.05,47.172 C56.658,45.614 57.038,42.802 54.872,38.85 C54.872,38.85 49.78,28.438 41.42,15.404 C41.42,15.404 40.85,13.352 42.75,14.53 C44.232,15.442 45.296,17.266 45.79,17.836 C45.79,17.836 50.73,24.448 57.95,37.634 C57.95,37.634 59.546,40.674 61.408,42.156 C63.232,42.916 65.55,42.65 68.058,40.75 C73.492,36.646 71.478,30.908 68.438,25.056 C66.538,21.408 61.826,12.478 57.798,6.474 C58.14,6.512 59.698,6.702 60.344,6.74 C59.584,6.588 58.748,6.474 57.798,6.436 C57.266,5.638 56.734,4.916 56.24,4.232 C55.252,2.902 52.744,-2.836 43.206,2.37 C40.128,4.042 39.064,5.562 39.558,7.728 C39.178,8.184 38.494,8.716 37.43,8.298 C34.124,4.612 30.02,3.814 25.27,7.538 C19.874,11.756 19.874,14.758 20.862,17.76 L20.824,17.76 C20.824,17.76 20.596,19.85 19.038,19.66 C17.404,18.254 15.428,18.254 12.35,20.496 C4.028,26.5 7.486,32.2 8.854,35.544 C8.664,35.848 8.36,36.076 7.828,36.038 C6.764,35.468 5.358,35.468 3.496,36.532 C-0.912,39.04 -0.266,47.362 0.988,50.098 C2.356,53.062 9.918,63.474 12.54,66.4 C13.148,67.046 13.87,67.54 14.668,67.882 C14.82,67.958 15.01,68.034 15.162,68.072 C15.39,68.224 15.656,68.262 15.922,68.338 Z"/>
      <path fill="#C48E6A" fill-rule="nonzero" d="M49.438 54.468L51.338 52.34C48.108 54.164 42.484 55.532 39.748 51.656 39.52 51.314 39.292 51.01 39.064 50.668L36.138 51.846C36.176 51.922 36.176 51.998 36.214 52.074 36.214 52.074 36.214 52.112 36.252 52.112 36.328 52.264 36.328 52.378 36.404 52.53 36.518 52.91 36.67 53.252 36.746 53.594 36.784 53.746 36.784 53.86 36.822 54.012 36.898 54.354 36.936 54.734 36.936 55.076 36.936 55.19 36.936 55.304 36.898 55.418 36.898 55.76 36.86 56.102 36.822 56.406 36.822 56.52 36.784 56.596 36.746 56.71 36.67 57.014 36.594 57.318 36.48 57.622 36.442 57.736 36.366 57.812 36.328 57.888 36.214 58.154 36.062 58.42 35.91 58.686 35.834 58.8 35.758 58.876 35.682 58.99 35.53 59.218 35.378 59.408 35.188 59.598 35.074 59.75 34.922 59.864 34.77 59.978 34.618 60.092 34.504 60.244 34.352 60.358 34.048 60.586 33.744 60.814 33.44 60.966 32.756 61.384 32.072 61.612 31.426 61.802 31.236 61.84 31.046 61.878 30.818 61.916 30.4 61.992 29.944 62.03 29.564 62.03 29.374 62.03 29.146 61.992 28.956 61.954 28.576 61.916 28.196 61.802 27.816 61.688 27.626 61.612 27.474 61.574 27.322 61.498 26.942 61.346 26.562 61.118 26.182 60.89 26.106 60.852 26.03 60.814 25.954 60.776 25.954 60.776 25.916 60.738 25.916 60.738 24.586 59.826 23.446 58.534 22.496 57.28L21.622 57.622C21.774 57.774 21.926 57.888 22.04 58.002 26.334 61.954 24.89 63.854 23.028 66.058 22.914 66.21 22.8 66.286 22.724 66.4 22.724 66.4 22.686 66.438 22.686 66.476 22.61 66.514 22.572 66.59 22.496 66.628 21.774 67.274 20.976 67.768 20.064 68.072 19.912 68.11 19.798 68.186 19.646 68.224 19.38 68.3 19.152 68.338 18.886 68.414 18.696 68.452 18.506 68.452 18.316 68.49 18.088 68.528 17.86 68.528 17.632 68.566 17.252 68.566 16.834 68.566 16.454 68.49 16.264 68.452 16.112 68.414 15.96 68.376 15.694 68.338 15.428 68.262 15.2 68.186 15.01 68.11 14.858 68.072 14.706 67.996 14.63 67.958 14.516 67.92 14.44 67.882 16.72 69.288 20.672 70.998 24.51 68.604 24.51 68.604 26.98 66.818 27.17 64.918 31.35 67.236 37.126 62.904 37.126 62.904 39.824 60.814 40.546 58.496 40.47 56.482L40.47 56.482C41.838 57.318 43.32 57.622 44.802 57.66 45.448 56.558 46.17 55.912 46.17 55.912L49.438 54.468zM60.534 6.816C60.534 6.816 60.42 6.816 60.268 6.778 60.344 6.816 60.458 6.816 60.534 6.816 60.534 6.854 60.534 6.816 60.534 6.816z"/>
      <path fill="#C48E6A" fill-rule="nonzero" d="M36.784 54.012C36.86 54.354 36.898 54.734 36.898 55.076 36.898 54.734 36.822 54.354 36.784 54.012zM36.86 55.418C36.86 55.76 36.822 56.102 36.784 56.406 36.86 56.102 36.86 55.76 36.86 55.418zM35.644 58.99C35.492 59.218 35.34 59.408 35.15 59.598 35.34 59.408 35.492 59.18 35.644 58.99zM36.29 57.888C36.176 58.154 36.024 58.42 35.872 58.686 36.024 58.42 36.176 58.154 36.29 57.888zM36.366 52.53C36.48 52.91 36.632 53.252 36.708 53.594 36.632 53.252 36.518 52.91 36.366 52.53zM36.708 56.71C36.632 57.014 36.556 57.318 36.442 57.622 36.556 57.318 36.632 57.014 36.708 56.71zM20.026 68.072C20.938 67.768 21.736 67.274 22.458 66.628 21.774 67.274 20.938 67.73 20.026 68.072zM18.278 68.452C18.05 68.49 17.822 68.49 17.594 68.528 17.822 68.49 18.05 68.452 18.278 68.452zM16.416 68.414C16.226 68.376 16.074 68.338 15.922 68.3 16.074 68.376 16.226 68.414 16.416 68.414zM11.514 40.636C11.514 40.636 10.868 41.396 12.616 45.804 12.616 45.804 15.162 52.15 21.508 60.586 23.826 63.816 23.598 65.374 22.686 66.362 22.8 66.248 22.914 66.172 22.99 66.096 24.852 63.892 26.296 61.992 22.002 58.04 21.888 57.926 21.736 57.774 21.584 57.66L22.458 57.318C23.408 58.572 24.548 59.826 25.878 60.776 23.978 58.914 19.646 53.936 13.338 42.536 13.338 42.498 12.084 39.648 11.514 40.636zM53.086 55.152C59.318 51.618 60.534 47.894 60.534 45.462 63.764 47.476 67.754 45.956 67.754 45.956 74.784 42.84 74.556 35.962 74.556 35.962 74.214 26.576 65.018 13.162 60.534 6.854 60.42 6.816 60.344 6.816 60.23 6.778 59.622 6.702 58.026 6.55 57.684 6.512 61.712 12.516 66.424 21.446 68.324 25.094 71.364 30.946 73.378 36.684 67.944 40.788 65.436 42.688 63.156 42.954 61.294 42.194 59.47 40.712 57.836 37.672 57.836 37.672 50.654 24.486 45.676 17.874 45.676 17.874 45.182 17.304 44.118 15.48 42.636 14.568 40.736 13.428 41.306 15.442 41.306 15.442 49.666 28.476 54.758 38.888 54.758 38.888 56.924 42.84 56.544 45.652 55.936 47.21 55.214 49.11 51.072 51.77 51.072 51.77 42.636 56.824 38.76 50.098 38.76 50.098 38.76 50.098 33.82 43.904 25.536 28.438 25.536 28.438 24.244 26.31 23.446 27.792 23.446 27.792 23.902 30.414 25.118 32.884 25.118 32.884 28.88 41.852 36.176 52.15 36.138 52.074 36.138 51.998 36.1 51.922L39.026 50.744C39.254 51.086 39.482 51.39 39.71 51.732 42.408 55.608 48.07 54.24 51.3 52.416L49.4 54.544 46.094 55.912C46.094 55.912 45.372 56.558 44.726 57.66 49.058 57.736 53.086 55.152 53.086 55.152zM34.732 59.978C34.58 60.092 34.466 60.244 34.314 60.358 34.466 60.244 34.618 60.13 34.732 59.978zM15.124 68.11C14.934 68.034 14.782 67.996 14.63 67.92 14.782 67.996 14.972 68.072 15.124 68.11zM33.44 61.004C32.756 61.422 32.072 61.65 31.426 61.84 32.072 61.65 32.718 61.384 33.44 61.004zM30.856 61.916C30.438 61.992 29.982 62.03 29.602 62.03 29.982 62.03 30.4 61.992 30.856 61.916zM28.956 61.992C28.576 61.954 28.196 61.84 27.816 61.726 28.196 61.84 28.576 61.916 28.956 61.992zM27.322 61.536C26.942 61.384 26.562 61.156 26.182 60.928 26.562 61.156 26.942 61.384 27.322 61.536zM19.608 68.186C19.342 68.262 19.114 68.3 18.848 68.376 19.114 68.338 19.38 68.262 19.608 68.186z"/>
    </g>
    <g transform="translate(410 403)">
      <path d="M38.216 56.406C38.216 56.52 38.254 56.596 38.292 56.71 38.292 56.596 38.254 56.52 38.216 56.406zM47.146 61.726C47.336 61.688 47.488 61.612 47.64 61.536 47.488 61.612 47.336 61.65 47.146 61.726zM52.352 66.438C52.352 66.438 52.314 66.4 52.314 66.362 52.39 66.438 52.466 66.514 52.542 66.59 52.466 66.552 52.39 66.514 52.352 66.438zM49.046 60.814C48.97 60.852 48.894 60.89 48.818 60.928 48.894 60.852 49.008 60.814 49.122 60.738 49.084 60.776 49.046 60.776 49.046 60.814zM54.974 68.072C55.126 68.11 55.24 68.186 55.392 68.224 55.24 68.148 55.088 68.11 54.974 68.072zM43.574 61.802C43.764 61.84 43.954 61.878 44.182 61.916 43.954 61.878 43.764 61.878 43.574 61.802zM40.648 60.358C40.952 60.586 41.256 60.814 41.56 60.966 41.256 60.814 40.952 60.586 40.648 60.358zM39.128 58.686C39.204 58.8 39.28 58.876 39.356 58.99 39.28 58.876 39.204 58.8 39.128 58.686zM45.436 62.03C45.626 62.03 45.854 61.992 46.044 61.954 45.816 61.992 45.626 62.03 45.436 62.03zM39.85 59.598C39.964 59.75 40.116 59.864 40.268 59.978 40.116 59.864 39.964 59.75 39.85 59.598zM38.558 57.622C38.596 57.736 38.672 57.812 38.71 57.888 38.672 57.774 38.596 57.698 38.558 57.622zM56.152 68.376C56.342 68.414 56.532 68.414 56.722 68.452 56.532 68.414 56.342 68.414 56.152 68.376zM38.786 52.112C38.786 52.112 38.786 52.074 38.824 52.074 38.748 52.226 38.71 52.378 38.672 52.53 38.672 52.378 38.71 52.264 38.786 52.112zM38.292 53.594C38.254 53.746 38.254 53.86 38.216 54.012 38.254 53.86 38.254 53.746 38.292 53.594zM59.078 68.338C59.344 68.3 59.61 68.224 59.838 68.148 59.61 68.224 59.344 68.262 59.078 68.338zM57.406 68.49C57.786 68.49 58.204 68.49 58.584 68.414 58.204 68.49 57.786 68.528 57.406 68.49zM38.102 55.076C38.102 55.19 38.102 55.304 38.14 55.418 38.14 55.304 38.102 55.19 38.102 55.076z"/>
      <path fill="#E0BB95" fill-rule="nonzero" d="M59.078,68.338 C58.926,68.376 58.736,68.414 58.584,68.452 C58.204,68.49 57.786,68.528 57.406,68.528 C57.178,68.528 56.95,68.49 56.722,68.452 C56.532,68.414 56.342,68.414 56.152,68.376 C55.886,68.338 55.658,68.262 55.392,68.186 C55.24,68.148 55.126,68.11 54.974,68.034 C54.062,67.73 53.226,67.236 52.542,66.59 C52.466,66.514 52.39,66.438 52.314,66.362 C51.402,65.374 51.174,63.778 53.492,60.586 C59.876,52.15 62.384,45.804 62.384,45.804 C64.132,41.358 63.486,40.636 63.486,40.636 C62.878,39.648 61.624,42.498 61.624,42.498 C55.278,53.898 50.946,58.876 49.084,60.738 C49.008,60.814 48.894,60.852 48.78,60.928 C48.4,61.156 48.02,61.384 47.64,61.536 C47.488,61.612 47.298,61.65 47.146,61.726 C46.766,61.84 46.386,61.916 46.006,61.992 C45.816,62.03 45.626,62.03 45.398,62.068 C44.98,62.068 44.562,62.03 44.144,61.954 C43.954,61.916 43.764,61.916 43.536,61.84 C42.89,61.65 42.244,61.422 41.522,61.004 C41.218,60.814 40.914,60.624 40.61,60.396 C40.458,60.282 40.344,60.13 40.192,60.016 C40.04,59.902 39.888,59.75 39.774,59.636 C39.584,59.446 39.47,59.218 39.28,59.028 C39.204,58.914 39.128,58.838 39.052,58.724 C38.9,58.496 38.748,58.192 38.634,57.926 C38.596,57.85 38.52,57.736 38.482,57.66 C38.368,57.356 38.292,57.052 38.216,56.748 C38.178,56.634 38.14,56.558 38.14,56.444 C38.064,56.14 38.064,55.798 38.064,55.456 C38.064,55.342 38.026,55.228 38.026,55.114 C38.026,54.772 38.102,54.43 38.14,54.05 C38.178,53.898 38.178,53.784 38.216,53.632 C38.292,53.29 38.444,52.91 38.558,52.568 C38.596,52.416 38.672,52.264 38.71,52.112 C46.006,41.814 49.768,32.846 49.768,32.846 C50.984,30.338 51.44,27.754 51.44,27.754 C50.642,26.272 49.35,28.4 49.35,28.4 C41.066,43.866 36.126,50.06 36.126,50.06 C36.126,50.06 32.25,56.786 23.814,51.732 C23.814,51.732 19.634,49.034 18.95,47.172 C18.342,45.614 17.962,42.802 20.128,38.85 C20.128,38.85 25.22,28.438 33.58,15.404 C33.58,15.404 34.15,13.352 32.25,14.53 C30.768,15.442 29.704,17.266 29.21,17.836 C29.21,17.836 24.27,24.448 17.05,37.634 C17.05,37.634 15.454,40.674 13.592,42.156 C11.768,42.916 9.45,42.65 6.942,40.75 C1.508,36.646 3.522,30.908 6.562,25.056 C8.462,21.408 13.174,12.478 17.202,6.474 C16.86,6.512 15.302,6.702 14.656,6.74 C15.416,6.588 16.252,6.474 17.202,6.436 C17.734,5.638 18.266,4.916 18.76,4.232 C19.748,2.902 22.256,-2.836 31.794,2.37 C34.872,4.042 35.936,5.562 35.442,7.728 C35.822,8.184 36.506,8.716 37.57,8.298 C40.876,4.612 44.98,3.814 49.73,7.538 C55.126,11.756 55.126,14.758 54.138,17.76 L54.176,17.76 C54.176,17.76 54.404,19.85 55.962,19.66 C57.596,18.254 59.572,18.254 62.65,20.496 C70.972,26.5 67.514,32.2 66.146,35.544 C66.336,35.848 66.64,36.076 67.172,36.038 C68.236,35.468 69.642,35.468 71.504,36.532 C75.912,39.04 75.266,47.362 74.012,50.098 C72.644,53.062 65.082,63.474 62.46,66.4 C61.852,67.046 61.13,67.54 60.332,67.882 C60.18,67.958 59.99,68.034 59.838,68.072 C59.61,68.224 59.344,68.262 59.078,68.338 Z"/>
      <path fill="#C48E6A" fill-rule="nonzero" d="M25.562 54.468L23.662 52.34C26.892 54.164 32.516 55.532 35.252 51.656 35.48 51.314 35.708 51.01 35.936 50.668L38.862 51.846C38.824 51.922 38.824 51.998 38.786 52.074 38.786 52.074 38.786 52.112 38.748 52.112 38.672 52.264 38.672 52.378 38.596 52.53 38.482 52.91 38.33 53.252 38.254 53.594 38.216 53.746 38.216 53.86 38.178 54.012 38.102 54.354 38.064 54.734 38.064 55.076 38.064 55.19 38.064 55.304 38.102 55.418 38.102 55.76 38.14 56.102 38.178 56.406 38.178 56.52 38.216 56.596 38.254 56.71 38.33 57.014 38.406 57.318 38.52 57.622 38.558 57.736 38.634 57.812 38.672 57.888 38.786 58.154 38.938 58.42 39.09 58.686 39.166 58.8 39.242 58.876 39.318 58.99 39.47 59.218 39.622 59.408 39.812 59.598 39.926 59.75 40.078 59.864 40.23 59.978 40.382 60.092 40.496 60.244 40.648 60.358 40.952 60.586 41.256 60.814 41.56 60.966 42.244 61.384 42.928 61.612 43.574 61.802 43.764 61.84 43.954 61.878 44.182 61.916 44.6 61.992 45.056 62.03 45.436 62.03 45.626 62.03 45.854 61.992 46.044 61.954 46.424 61.916 46.804 61.802 47.184 61.688 47.374 61.612 47.526 61.574 47.678 61.498 48.058 61.346 48.438 61.118 48.818 60.89 48.894 60.852 48.97 60.814 49.046 60.776 49.046 60.776 49.084 60.738 49.084 60.738 50.414 59.826 51.554 58.534 52.504 57.28L53.378 57.622C53.226 57.774 53.074 57.888 52.96 58.002 48.666 61.954 50.11 63.854 51.972 66.058 52.048 66.172 52.2 66.248 52.276 66.324 52.276 66.324 52.314 66.362 52.314 66.4 52.39 66.438 52.428 66.514 52.504 66.552 53.226 67.198 54.024 67.692 54.936 67.996 55.088 68.034 55.202 68.11 55.354 68.148 55.62 68.224 55.848 68.262 56.114 68.338 56.304 68.376 56.494 68.376 56.684 68.414 56.912 68.452 57.14 68.452 57.368 68.49 57.748 68.49 58.166 68.49 58.546 68.414 58.736 68.376 58.888 68.338 59.04 68.3 59.306 68.262 59.572 68.186 59.8 68.11 59.99 68.034 60.142 67.996 60.294 67.92 60.37 67.882 60.484 67.844 60.56 67.806 58.28 69.212 54.328 70.922 50.49 68.528 50.49 68.528 48.02 66.742 47.83 64.842 43.65 67.16 37.874 62.828 37.874 62.828 35.176 60.738 34.454 58.42 34.53 56.406L34.53 56.406C33.162 57.242 31.68 57.546 30.198 57.584 29.552 56.482 28.83 55.836 28.83 55.836L25.562 54.468zM14.466 6.816C14.466 6.816 14.58 6.816 14.732 6.778 14.656 6.816 14.542 6.816 14.466 6.816 14.466 6.854 14.466 6.816 14.466 6.816z"/>
      <path fill="#C48E6A" fill-rule="nonzero" d="M38.216 54.012C38.14 54.354 38.102 54.734 38.102 55.076 38.102 54.734 38.178 54.354 38.216 54.012zM38.14 55.418C38.14 55.76 38.178 56.102 38.216 56.406 38.14 56.102 38.14 55.76 38.14 55.418zM39.356 58.99C39.508 59.218 39.66 59.408 39.85 59.598 39.66 59.408 39.508 59.18 39.356 58.99zM38.71 57.888C38.824 58.154 38.976 58.42 39.128 58.686 38.976 58.42 38.824 58.154 38.71 57.888zM38.634 52.53C38.52 52.91 38.368 53.252 38.292 53.594 38.368 53.252 38.482 52.91 38.634 52.53zM38.292 56.71C38.368 57.014 38.444 57.318 38.558 57.622 38.444 57.318 38.368 57.014 38.292 56.71zM54.974 68.072C54.062 67.768 53.264 67.274 52.542 66.628 53.226 67.274 54.062 67.73 54.974 68.072zM56.722 68.452C56.95 68.49 57.178 68.49 57.406 68.528 57.178 68.49 56.95 68.452 56.722 68.452zM58.584 68.414C58.774 68.376 58.926 68.338 59.078 68.3 58.926 68.376 58.774 68.414 58.584 68.414zM63.486 40.636C63.486 40.636 64.132 41.396 62.384 45.804 62.384 45.804 59.838 52.15 53.492 60.586 51.174 63.816 51.402 65.374 52.314 66.362 52.2 66.248 52.086 66.172 52.01 66.096 50.148 63.892 48.704 61.992 52.998 58.04 53.112 57.926 53.264 57.774 53.416 57.66L52.542 57.318C51.592 58.572 50.452 59.826 49.122 60.776 51.022 58.914 55.354 53.936 61.662 42.536 61.662 42.498 62.916 39.648 63.486 40.636zM21.914 55.152C15.682 51.618 14.466 47.894 14.466 45.462 11.236 47.476 7.246 45.956 7.246 45.956.216 42.84.444 35.962.444 35.962.786 26.576 9.982 13.162 14.466 6.854 14.58 6.816 14.656 6.816 14.77 6.778 15.378 6.702 16.974 6.55 17.316 6.512 13.288 12.516 8.576 21.446 6.676 25.094 3.636 30.946 1.622 36.684 7.056 40.788 9.564 42.688 11.844 42.954 13.706 42.194 15.53 40.712 17.164 37.672 17.164 37.672 24.346 24.486 29.324 17.874 29.324 17.874 29.818 17.304 30.882 15.48 32.364 14.568 34.264 13.428 33.694 15.442 33.694 15.442 25.334 28.476 20.242 38.888 20.242 38.888 18.076 42.84 18.456 45.652 19.064 47.21 19.786 49.11 23.928 51.77 23.928 51.77 32.364 56.824 36.24 50.098 36.24 50.098 36.24 50.098 41.18 43.904 49.464 28.438 49.464 28.438 50.756 26.31 51.554 27.792 51.554 27.792 51.098 30.414 49.882 32.884 49.882 32.884 46.12 41.852 38.824 52.15 38.862 52.074 38.862 51.998 38.9 51.922L35.974 50.744C35.746 51.086 35.518 51.39 35.29 51.732 32.592 55.608 26.93 54.24 23.7 52.416L25.6 54.544 28.906 55.912C28.906 55.912 29.628 56.558 30.274 57.66 25.942 57.736 21.914 55.152 21.914 55.152zM40.268 59.978C40.42 60.092 40.534 60.244 40.686 60.358 40.534 60.244 40.382 60.13 40.268 59.978zM59.876 68.11C60.066 68.034 60.218 67.996 60.37 67.92 60.218 67.996 60.028 68.072 59.876 68.11zM41.56 61.004C42.244 61.422 42.928 61.65 43.574 61.84 42.928 61.65 42.282 61.384 41.56 61.004zM44.144 61.916C44.562 61.992 45.018 62.03 45.398 62.03 45.018 62.03 44.6 61.992 44.144 61.916zM46.044 61.992C46.424 61.954 46.804 61.84 47.184 61.726 46.804 61.84 46.424 61.916 46.044 61.992zM47.678 61.536C48.058 61.384 48.438 61.156 48.818 60.928 48.438 61.156 48.058 61.384 47.678 61.536zM55.392 68.186C55.658 68.262 55.886 68.3 56.152 68.376 55.886 68.338 55.62 68.262 55.392 68.186z"/>
    </g>
    <g fill-rule="nonzero" transform="translate(98 27)">
      <path fill="#C48E6A" d="M266.436364 171.457159C266.436364 171.457159 288.772468 175.316932 288.772468 199.345909 288.772468 220.536818 272.465974 228.899659 256.159481 228.899659L256.159481 171.457159 266.436364 171.457159zM22.6732468 171.457159C22.6732468 171.457159.337142857 175.316932.337142857 199.345909.337142857 220.536818 16.6436364 228.899659 32.9501299 228.899659L32.9501299 171.457159 22.6732468 171.457159z"/>
      <path fill="#E0BB95" d="M144.554805,14.1903409 C48.2327273,14.1903409 23.0524675,88.6990909 23.0524675,193.367045 C23.0524675,301.894773 92.9428571,329.972727 144.554805,329.972727 C195.408312,329.972727 266.057186,302.727273 266.057186,193.367045 C266.095065,88.6990909 240.876883,14.1903409 144.554805,14.1903409 Z"/>
      <path fill="#5D4037" d="M104.547013 203.092159C104.547013 213.914659 97.3038961 222.655909 88.3163636 222.655909 79.3667532 222.655909 72.0477922 213.876818 72.0477922 203.092159 72.0477922 192.269659 79.3288312 183.490568 88.3163636 183.490568 97.3038961 183.490568 104.547013 192.231818 104.547013 203.092159M184.562597 203.092159C184.562597 213.914659 191.805714 222.655909 200.831169 222.655909 209.780779 222.655909 217.061818 213.876818 217.061818 203.092159 217.061818 192.269659 209.780779 183.490568 200.831169 183.490568 191.805714 183.490568 184.562597 192.231818 184.562597 203.092159"/>
      <path fill="#513F35" d="M179.746494,269.200227 C174.816623,269.200227 144.592727,269.200227 144.592727,269.200227 C144.592727,269.200227 114.330909,269.200227 109.438961,269.200227 C105.419221,269.200227 103.674805,271.886932 106.329351,275.97375 C110.045714,281.649886 123.925195,292.548068 144.592727,292.548068 C165.26026,292.548068 179.13974,281.649886 182.856104,275.97375 C185.510649,271.886932 183.766234,269.200227 179.746494,269.200227 Z"/>
      <path fill="#C48E6A" d="M161.543896,239.34375 C155.552208,241.046591 149.332987,241.84125 144.554805,241.84125 C139.776623,241.84125 133.557403,241.00875 127.565714,239.34375 C125.024935,238.624773 124.001039,241.046591 124.911169,242.635909 C126.807273,245.965909 134.467532,252.701591 144.554805,252.701591 C154.642078,252.701591 162.302338,245.965909 164.198442,242.635909 C165.108571,241.046591 164.122597,238.624773 161.543896,239.34375 Z"/>
      <path fill="#E0C686" d="M147.474805,0.529772727 C147.474805,0.529772727 145.578701,0.454090909 144.782338,0.491931818 C143.985974,0.491931818 142.08987,0.529772727 142.08987,0.529772727 C38.1454545,2.53534091 6.82181818,64.8971591 6.82181818,108.187159 C6.82181818,150.228409 6.85974026,181.144432 6.85974026,181.144432 C6.85974026,181.144432 8.52831169,179.441591 11.5620779,177.057614 C14.8233766,174.522273 18.425974,173.122159 18.425974,173.122159 L23.6592208,208.238523 L58.2820779,136.038068 C58.5096104,135.583977 58.9646753,135.319091 59.4576623,135.394773 L79.9735065,137.665227 C100.603117,139.935682 121.346494,141.070909 142.051948,141.10875 L142.051948,141.146591 C142.962078,141.146591 143.834286,141.10875 144.744416,141.10875 C145.654545,141.10875 146.526753,141.146591 147.436883,141.146591 L147.436883,141.10875 C168.142338,141.033068 188.885714,139.935682 209.515325,137.665227 L230.031169,135.394773 C230.524156,135.356932 230.979221,135.621818 231.206753,136.038068 L265.82961,208.238523 L271.062857,173.122159 C271.062857,173.122159 274.665455,174.560114 277.926753,177.057614 C280.998442,179.441591 282.629091,181.144432 282.629091,181.144432 C282.629091,181.144432 282.66715,150.26625 282.66715,108.187159 C282.742857,64.8971591 251.419221,2.53534091 147.474805,0.529772727 Z"/>
    </g>
    <ellipse cx="244.5" cy="319" fill="url(#emoji-working.inline-a)" fill-rule="nonzero" rx="164.5" ry="149"/>
    <g fill-rule="nonzero" transform="translate(62 282)">
      <path fill="#A9B9BB" d="M334.965417,0.691641791 L185.270417,0.691641791 L179.65875,0.691641791 L25.0345833,0.691641791 C11.4604167,0.691641791 0.38875,11.799403 0.38875,25.3334328 L0.38875,211.587463 L0.38875,219.889851 C0.38875,233.461791 11.4983333,244.531642 25.0345833,244.531642 L179.696667,244.531642 L185.308333,244.531642 L335.003333,244.531642 C348.615417,244.531642 359.649167,233.499701 359.649167,219.889851 L359.649167,211.587463 L359.649167,25.3334328 C359.649167,11.7235821 348.615417,0.691641791 334.965417,0.691641791 Z"/>
      <path fill="#909A9B" d="M236.42,192.670149 C230.997917,174.056119 228.722917,143.045373 227.775,121.360597 C227.168333,107.674925 215.907083,96.8704478 202.18125,96.8704478 L186.749167,96.8704478 L183.715833,96.8704478 L168.28375,96.8704478 C154.557917,96.8704478 143.296667,107.637015 142.69,121.360597 C141.742083,143.045373 139.467083,174.09403 134.045,192.670149 C125.05875,223.491343 110.991667,248.512239 135.41,248.512239 C154.899167,248.512239 175.980833,248.512239 183.715833,248.512239 C185.649583,248.512239 186.749167,248.512239 186.749167,248.512239 C194.484167,248.512239 215.565833,248.512239 235.055,248.512239 C259.473333,248.512239 245.40625,223.491343 236.42,192.670149 Z"/>
    </g>
  </g>
</svg>
