<svg xmlns="http://www.w3.org/2000/svg" xmlns:xlink="http://www.w3.org/1999/xlink" width="1583" height="776" viewBox="0 0 1583 776">
  <defs>
    <rect id="emoji-seeking-employment.inline-a" width="1583" height="776" x="0" y="0" rx="60"/>
  </defs>
  <g fill="none" fill-rule="evenodd">
    <mask id="emoji-seeking-employment.inline-b" fill="#fff">
      <use xlink:href="#emoji-seeking-employment.inline-a"/>
    </mask>
    <rect width="1574" height="767" x="4.5" y="4.5" stroke="#FFF" stroke-width="9" rx="60"/>
    <rect width="1583" height="479" y="203" fill="#FFF" mask="url(#emoji-seeking-employment.inline-b)"/>
    <rect width="1583" height="203" fill="#CE241C" mask="url(#emoji-seeking-employment.inline-b)"/>
    <rect width="1583" height="94" y="682" fill="#CE241C" mask="url(#emoji-seeking-employment.inline-b)"/>
    <path fill="#FFF" fill-rule="nonzero" d="M421.127441,156 L421.127441,111.34082 L460.221191,111.34082 L460.221191,156 L480.989746,156 L480.989746,55.9580078 L460.221191,55.9580078 L460.221191,94.1015625 L421.127441,94.1015625 L421.127441,55.9580078 L400.426758,55.9580078 L400.426758,156 L421.127441,156 Z M577.366699,156 L577.366699,138.01416 L521.983887,138.01416 L521.983887,112.291016 L570.57959,112.291016 L570.57959,94.9160156 L521.983887,94.9160156 L521.983887,73.6723633 L574.92334,73.6723633 L574.92334,55.9580078 L501.554688,55.9580078 L501.554688,156 L577.366699,156 Z M664.105957,156 L664.105957,138.01416 L614.560059,138.01416 L614.560059,55.9580078 L593.655762,55.9580078 L593.655762,156 L664.105957,156 Z M749.012695,156 L749.012695,138.01416 L699.466797,138.01416 L699.466797,55.9580078 L678.5625,55.9580078 L678.5625,156 L749.012695,156 Z M807.721191,158.782715 C822.019368,158.782715 832.946615,154.891439 840.50293,147.108887 C850.593099,137.561686 855.638184,123.806478 855.638184,105.843262 C855.638184,87.5180664 850.593099,73.7628581 840.50293,64.5776367 C832.946615,56.7950846 822.019368,52.9038086 807.721191,52.9038086 C793.423014,52.9038086 782.495768,56.7950846 774.939453,64.5776367 C764.804036,73.7628581 759.736328,87.5180664 759.736328,105.843262 C759.736328,123.806478 764.804036,137.561686 774.939453,147.108887 C782.495768,154.891439 793.423014,158.782715 807.721191,158.782715 Z M807.721191,141.068359 C799.440918,141.068359 792.834798,138.01416 787.902832,131.905762 C782.970866,125.797363 780.504883,117.109863 780.504883,105.843262 C780.504883,94.5766602 782.970866,85.8891602 787.902832,79.7807617 C792.834798,73.6723633 799.440918,70.6181641 807.721191,70.6181641 C816.001465,70.6181641 822.573649,73.6836751 827.437744,79.8146973 C832.301839,85.9457194 834.733887,94.6219076 834.733887,105.843262 C834.733887,117.109863 832.301839,125.797363 827.437744,131.905762 C822.573649,138.01416 816.001465,141.068359 807.721191,141.068359 Z M929.346191,156 L929.346191,55.9580078 L908.577637,55.9580078 L908.577637,156 L929.346191,156 Z M1002.23975,156 L1009.1626,135.435059 L1046.0166,135.435059 L1052.46436,156 L1075.1333,156 L1039.70459,55.9580078 L1016.08545,55.9580078 L980.385254,156 L1002.23975,156 Z M1040.17969,118.195801 L1014.7959,118.195801 L1027.69141,78.8305664 L1040.17969,118.195801 Z M1106.96484,156 L1106.96409,87.6921623 C1106.95983,85.8043056 1106.93746,83.2916024 1106.89697,80.1540527 C1106.85649,77.016503 1106.83412,74.5219113 1106.82985,72.6702776 L1106.8291,72.043457 L1125.62939,156 L1145.92285,156 L1164.85889,72.043457 L1164.85889,72.043457 L1164.85813,72.6702776 C1164.85387,74.5219113 1164.8315,77.016503 1164.79102,80.1540527 C1164.75053,83.2916024 1164.72816,85.8043056 1164.7239,87.6921623 L1164.72314,156 L1184.20215,156 L1184.20215,55.9580078 L1154.13525,55.9580078 L1136.08154,134.620605 L1117.89209,55.9580078 L1087.48584,55.9580078 L1087.48584,156 L1106.96484,156 Z" mask="url(#emoji-seeking-employment.inline-b)"/>
    <path fill="#2D2D2D" fill-rule="nonzero" d="M476.795898,402.646484 C491.420898,402.646484 504.420898,400.082031 515.795898,394.953125 C530.725586,388.199219 538.19043,378.271484 538.19043,365.169922 C538.19043,354.404297 534.584961,345.974609 527.374023,339.880859 C520.823242,334.396484 511.911133,331.222656 500.637695,330.359375 C494.188477,330.003906 487.713867,329.648438 481.213867,329.292969 C477.506836,328.785156 474.726562,327.90918 472.873047,326.665039 C471.019531,325.420898 470.092773,323.833984 470.092773,321.904297 C470.092773,318.197266 473.139648,314.769531 479.233398,311.621094 C485.124023,308.523438 491.344727,306.949219 497.895508,306.898438 C500.333008,306.898438 503.925781,307.40625 508.673828,308.421875 C513.421875,309.4375 516.989258,309.945312 519.375977,309.945312 C522.575195,309.945312 525.19043,308.802734 527.22168,306.517578 C529.049805,304.486328 529.963867,302.150391 529.963867,299.509766 C529.963867,295.802734 525.418945,292.527344 516.329102,289.683594 C509.016602,287.398438 502.87207,286.255859 497.895508,286.255859 C485.352539,286.255859 473.875977,290.381836 463.46582,298.633789 C453.055664,306.885742 447.774414,315.962891 447.62207,325.865234 C447.469727,333.736328 452.09082,339.779297 461.485352,343.994141 C468.442383,347.091797 476.313477,348.742188 485.098633,348.945312 C496.422852,349.199219 503.963867,350.0625 507.72168,351.535156 C513.00293,353.566406 515.643555,357.78125 515.643555,364.179688 C515.643555,368.851562 511.40332,373.142578 502.922852,377.052734 C494.74707,380.861328 486.291992,382.765625 477.557617,382.765625 C467.350586,382.765625 460.799805,379.642578 457.905273,373.396484 C455.772461,368.724609 452.420898,366.388672 447.850586,366.388672 C444.448242,366.388672 441.782227,367.442383 439.852539,369.549805 C437.922852,371.657227 436.958008,374.310547 436.958008,377.509766 C436.958008,383.755859 440.081055,389.265625 446.327148,394.039062 C453.741211,399.777344 463.897461,402.646484 476.795898,402.646484 Z M589.301758,405.541016 C605.297852,405.541016 615.834961,405.058594 620.913086,404.09375 C626.854492,402.976562 629.825195,399.574219 629.825195,393.886719 C629.825195,390.484375 628.631836,387.84375 626.245117,385.964844 C624.163086,384.289062 621.649414,383.451172 618.704102,383.451172 C617.739258,383.451172 616.266602,383.603516 614.286133,383.908203 C612.305664,384.212891 610.807617,384.365234 609.791992,384.365234 C606.643555,384.365234 601.895508,384.441406 595.547852,384.59375 C589.200195,384.746094 584.452148,384.822266 581.303711,384.822266 C575.463867,384.822266 572.264648,384.492188 571.706055,383.832031 C570.538086,382.460938 569.954102,376.798828 569.954102,366.845703 L569.95489,366.383151 C569.968036,362.482535 570.145508,357.431641 570.487305,351.230469 C585.010742,350.0625 595.87793,349.072266 603.088867,348.259766 C611.163086,347.548828 617.231445,347.041016 621.293945,346.736328 C627.743164,345.923828 630.967773,342.496094 630.967773,336.453125 C630.967773,333.304688 629.901367,330.77832 627.768555,328.874023 C625.635742,326.969727 623.071289,326.017578 620.075195,326.017578 C617.485352,326.017578 611.34082,326.5 601.641602,327.464844 C584.629883,329.140625 574.702148,330.080078 571.858398,330.283203 C572.31543,316.978516 572.543945,306.949219 572.543945,300.195312 C577.469727,298.976562 582.116211,298.0625 586.483398,297.453125 C590.850586,296.84375 594.938477,296.539062 598.74707,296.539062 C606.516602,296.539062 614.514648,297.65625 622.741211,299.890625 C623.858398,300.195312 624.924805,300.347656 625.94043,300.347656 C629.088867,300.347656 631.678711,299.179688 633.709961,296.84375 C635.538086,294.8125 636.452148,292.476562 636.452148,289.835938 C636.452148,285.164062 634.116211,281.939453 629.444336,280.162109 C621.776367,277.216797 611.543945,275.744141 598.74707,275.744141 C594.024414,275.744141 589.009766,276.112305 583.703125,276.848633 C578.396484,277.584961 572.797852,278.689453 566.907227,280.162109 C565.02832,278.892578 562.97168,278.257812 560.737305,278.257812 C553.62793,278.257812 550.073242,282.117188 550.073242,289.835938 C550.073242,291.613281 550.327148,294.241211 550.834961,297.719727 C551.342773,301.198242 551.59668,303.826172 551.59668,305.603516 C551.59668,312.357422 551.101562,322.551758 550.111328,336.186523 L550.052508,337.000511 C549.101487,350.228712 548.625977,360.177109 548.625977,366.845703 C548.625977,383.248047 551.393555,393.912109 556.928711,398.837891 C561.956055,403.306641 572.74707,405.541016 589.301758,405.541016 Z M686.725586,405.541016 C702.72168,405.541016 713.258789,405.058594 718.336914,404.09375 C724.27832,402.976562 727.249023,399.574219 727.249023,393.886719 C727.249023,390.484375 726.055664,387.84375 723.668945,385.964844 C721.586914,384.289062 719.073242,383.451172 716.12793,383.451172 C715.163086,383.451172 713.69043,383.603516 711.709961,383.908203 C709.729492,384.212891 708.231445,384.365234 707.21582,384.365234 C704.067383,384.365234 699.319336,384.441406 692.97168,384.59375 C686.624023,384.746094 681.875977,384.822266 678.727539,384.822266 C672.887695,384.822266 669.688477,384.492188 669.129883,383.832031 C667.961914,382.460938 667.37793,376.798828 667.37793,366.845703 C667.37793,362.884766 667.555664,357.679688 667.911133,351.230469 C682.43457,350.0625 693.301758,349.072266 700.512695,348.259766 C708.586914,347.548828 714.655273,347.041016 718.717773,346.736328 C725.166992,345.923828 728.391602,342.496094 728.391602,336.453125 C728.391602,333.304688 727.325195,330.77832 725.192383,328.874023 C723.05957,326.969727 720.495117,326.017578 717.499023,326.017578 C714.90918,326.017578 708.764648,326.5 699.06543,327.464844 C682.053711,329.140625 672.125977,330.080078 669.282227,330.283203 C669.739258,316.978516 669.967773,306.949219 669.967773,300.195312 C674.893555,298.976562 679.540039,298.0625 683.907227,297.453125 C688.274414,296.84375 692.362305,296.539062 696.170898,296.539062 C703.94043,296.539062 711.938477,297.65625 720.165039,299.890625 C721.282227,300.195312 722.348633,300.347656 723.364258,300.347656 C726.512695,300.347656 729.102539,299.179688 731.133789,296.84375 C732.961914,294.8125 733.875977,292.476562 733.875977,289.835938 C733.875977,285.164062 731.540039,281.939453 726.868164,280.162109 C719.200195,277.216797 708.967773,275.744141 696.170898,275.744141 C691.448242,275.744141 686.433594,276.112305 681.126953,276.848633 C675.820312,277.584961 670.22168,278.689453 664.331055,280.162109 C662.452148,278.892578 660.395508,278.257812 658.161133,278.257812 C651.051758,278.257812 647.49707,282.117188 647.49707,289.835938 C647.49707,291.613281 647.750977,294.241211 648.258789,297.719727 L648.329606,298.210871 C648.790207,301.446592 649.020508,303.910807 649.020508,305.603516 C649.020508,312.357422 648.525391,322.551758 647.535156,336.186523 C646.544922,349.821289 646.049805,360.041016 646.049805,366.845703 C646.049805,383.248047 648.817383,393.912109 654.352539,398.837891 C659.379883,403.306641 670.170898,405.541016 686.725586,405.541016 Z M756.651367,406.378906 C760.053711,406.378906 762.643555,405.083984 764.420898,402.494141 C765.69043,400.615234 766.325195,398.558594 766.325195,396.324219 L766.325195,396.324219 L766.401367,364.255859 C779.249023,376.697266 787.399414,384.339844 790.852539,387.183594 C802.430664,396.679688 811.850586,401.427734 819.112305,401.427734 C822.463867,401.427734 825.079102,400.056641 826.958008,397.314453 C828.329102,395.283203 829.014648,393.175781 829.014648,390.992188 C829.014648,386.066406 826.297852,382.740234 820.864258,381.013672 C817.868164,380.048828 815.075195,378.626953 812.485352,376.748047 C807.305664,372.888672 801.46582,367.962891 794.96582,361.970703 C789.379883,356.740234 783.819336,351.509766 778.28418,346.279297 C788.186523,336.833984 797.606445,327.261719 806.543945,317.5625 C818.629883,304.359375 824.672852,296.183594 824.672852,293.035156 C824.672852,290.140625 823.59375,287.677734 821.435547,285.646484 C819.277344,283.615234 816.750977,282.599609 813.856445,282.599609 C810.80957,282.599609 808.118164,283.869141 805.782227,286.408203 C782.981445,311.291016 769.803711,325.408203 766.249023,328.759766 C766.350586,325.458984 766.680664,319.289062 767.239258,310.25 C767.696289,302.480469 767.924805,296.310547 767.924805,291.740234 C767.924805,288.896484 766.921875,286.458984 764.916016,284.427734 C762.910156,282.396484 760.383789,281.380859 757.336914,281.380859 C754.290039,281.380859 751.750977,282.396484 749.719727,284.427734 C747.688477,286.458984 746.672852,288.896484 746.672852,291.740234 C746.672852,303.013672 746.317383,319.949219 745.606445,342.546875 C744.895508,365.144531 744.540039,382.080078 744.540039,393.353516 C744.540039,396.248047 745.428711,398.964844 747.206055,401.503906 C749.491211,404.753906 752.639648,406.378906 756.651367,406.378906 Z M846.53418,400.742188 C849.885742,400.742188 854.913086,400.297852 861.616211,399.40918 C868.319336,398.520508 873.34668,398.076172 876.698242,398.076172 C879.541992,398.076172 883.807617,398.012695 889.495117,397.885742 C895.182617,397.758789 899.448242,397.695312 902.291992,397.695312 C905.338867,397.695312 907.865234,396.692383 909.871094,394.686523 C911.876953,392.680664 912.879883,390.255859 912.879883,387.412109 C912.879883,384.568359 911.876953,382.130859 909.871094,380.099609 C907.865234,378.068359 905.338867,377.052734 902.291992,377.052734 C895.28418,377.052734 888.40332,377.128906 881.649414,377.28125 L881.649414,377.28125 L881.725586,343.080078 C881.725586,327.591797 882.081055,315.175781 882.791992,305.832031 C894.624023,307.253906 901.860352,307.964844 904.500977,307.964844 C907.141602,307.964844 909.50293,307.177734 911.584961,305.603516 C914.124023,303.724609 915.393555,301.160156 915.393555,297.910156 C915.393555,291.765625 912.270508,288.261719 906.024414,287.398438 C890.333008,285.265625 877.510742,284.199219 867.557617,284.199219 C856.487305,284.199219 848.717773,284.402344 844.249023,284.808594 C841.506836,285.0625 839.196289,286.052734 837.317383,287.779297 C835.286133,289.658203 834.270508,292.095703 834.270508,295.091797 C834.270508,298.037109 835.298828,300.5 837.355469,302.480469 C839.412109,304.460938 841.963867,305.451172 845.010742,305.451172 L845.010742,305.451172 L861.540039,304.994141 C860.524414,317.537109 860.016602,330.714844 860.016602,344.527344 L860.016602,344.527344 L860.016926,346.840733 C860.016998,347.093882 860.017082,347.345733 860.017178,347.596286 L860.0179,349.084026 C860.026409,363.5603 860.076758,373.517969 860.168945,378.957031 C854.532227,379.71875 849.987305,380.099609 846.53418,380.099609 C843.487305,380.099609 840.960938,381.115234 838.955078,383.146484 C836.949219,385.177734 835.946289,387.615234 835.946289,390.458984 C835.946289,393.302734 836.949219,395.727539 838.955078,397.733398 C840.960938,399.739258 843.487305,400.742188 846.53418,400.742188 Z M935.731445,404.017578 C943.043945,404.017578 946.700195,396.527344 946.700195,381.546875 C946.700195,377.535156 946.611328,371.492188 946.433594,363.417969 C946.255859,355.34375 946.166992,349.300781 946.166992,345.289062 C946.166992,342.292969 946.319336,334.193359 946.624023,320.990234 C971.202148,352.779297 993.266602,377.484375 1012.81738,395.105469 C1017.28613,399.117188 1021.29785,401.123047 1024.85254,401.123047 C1031.25098,401.123047 1034.95801,397.847656 1035.97363,391.296875 C1036.83691,385.8125 1037.26855,381.800781 1037.26855,379.261719 L1037.26855,379.261719 L1037.26898,378.656024 C1037.27802,371.973245 1037.43023,356.128268 1037.72559,331.121094 C1037.82105,324.104141 1037.87165,320.138369 1037.87793,319.223778 L1037.87793,319.085938 C1037.87793,293.542969 1033.73926,280.771484 1025.46191,280.771484 C1018.04785,280.771484 1014.34082,284.275391 1014.34082,291.283203 C1014.34082,293.314453 1014.59473,296.107422 1015.10254,299.662109 C1015.66113,303.673828 1015.99121,306.416016 1016.09277,307.888672 C1016.58904,316.424538 1016.84282,332.744533 1016.8541,356.848656 L1016.85426,359.537905 C1016.85418,359.70028 1016.85408,359.86093 1016.85396,360.019857 L1016.85302,360.952727 C1016.84695,365.665666 1016.82205,368.721788 1016.77832,370.121094 C994.333008,349.351562 971.583008,322.513672 948.52832,289.607422 C943.958008,283.107422 939.793945,279.857422 936.036133,279.857422 C932.68457,279.857422 929.701172,281.050781 927.085938,283.4375 C924.470703,285.824219 923.163086,288.541016 923.163086,291.587891 C923.163086,294.634766 923.467773,299.179688 924.077148,305.222656 L924.1391,305.842447 C924.707174,311.577287 924.991211,315.915612 924.991211,318.857422 C924.991211,322.056641 925.067383,326.880859 925.219727,333.330078 C925.37207,339.779297 925.448242,344.603516 925.448242,347.802734 C925.448242,350.798828 925.34668,355.292969 925.143555,361.285156 C924.94043,367.277344 924.838867,371.771484 924.838867,374.767578 C924.838867,376.798828 924.673828,379.871094 924.34375,383.984375 C924.013672,388.097656 923.848633,391.169922 923.848633,393.201172 C923.848633,396.095703 924.838867,398.558594 926.819336,400.589844 C929.053711,402.875 932.024414,404.017578 935.731445,404.017578 Z M1087.16113,403.255859 C1101.43066,403.255859 1113.87207,398.685547 1124.48535,389.544922 C1134.94629,380.455078 1141.90332,368.34375 1145.35645,353.210938 C1148.40332,351.179688 1149.92676,348.310547 1149.92676,344.603516 C1149.92676,341.708984 1148.89844,339.271484 1146.8418,337.291016 C1144.78516,335.310547 1142.2334,334.320312 1139.18652,334.320312 C1125.37402,334.320312 1113.28809,335.183594 1102.92871,336.910156 C1084.5459,340.007812 1075.35449,345.441406 1075.35449,353.210938 C1075.35449,355.851562 1076.29395,358.212891 1078.17285,360.294922 C1080.25488,362.630859 1082.87012,363.798828 1086.01855,363.798828 C1087.59277,363.798828 1089.16699,363.443359 1090.74121,362.732422 C1099.47559,358.822266 1109.7334,356.410156 1121.51465,355.496094 C1118.51855,364.433594 1113.89746,371.238281 1107.65137,375.910156 C1101.76074,380.328125 1094.93066,382.537109 1087.16113,382.537109 C1079.59473,382.537109 1074.49121,380.9375 1071.85059,377.738281 C1069.3623,374.691406 1068.11816,368.927734 1068.11816,360.447266 C1068.11816,343.740234 1073.78027,328.226562 1085.10449,313.90625 C1092.87402,304.054688 1099.04395,299.128906 1103.61426,299.128906 C1107.93066,299.128906 1112.69141,300.563477 1117.89648,303.432617 C1123.10156,306.301758 1126.46582,307.736328 1127.98926,307.736328 C1131.03613,307.736328 1133.60059,306.657227 1135.68262,304.499023 C1137.76465,302.34082 1138.80566,299.890625 1138.80566,297.148438 C1138.80566,292.375 1133.77832,287.880859 1123.72363,283.666016 C1115.24316,280.111328 1108.54004,278.333984 1103.61426,278.333984 C1095.54004,278.333984 1087.97363,281.304688 1080.91504,287.246094 C1070.86035,295.726562 1062.63379,306.796875 1056.23535,320.457031 C1049.83691,334.117188 1046.6377,347.447266 1046.6377,360.447266 C1046.6377,374.716797 1050.01465,385.418945 1056.76855,392.553711 C1063.52246,399.688477 1073.65332,403.255859 1087.16113,403.255859 Z M290.174805,600.541016 C306.170898,600.541016 316.708008,600.058594 321.786133,599.09375 C327.727539,597.976562 330.698242,594.574219 330.698242,588.886719 C330.698242,585.484375 329.504883,582.84375 327.118164,580.964844 C325.036133,579.289062 322.522461,578.451172 319.577148,578.451172 C318.612305,578.451172 317.139648,578.603516 315.15918,578.908203 C313.178711,579.212891 311.680664,579.365234 310.665039,579.365234 C307.516602,579.365234 302.768555,579.441406 296.420898,579.59375 C290.073242,579.746094 285.325195,579.822266 282.176758,579.822266 C276.336914,579.822266 273.137695,579.492188 272.579102,578.832031 C271.411133,577.460938 270.827148,571.798828 270.827148,561.845703 L270.827937,561.383151 C270.841083,557.482535 271.018555,552.431641 271.360352,546.230469 C285.883789,545.0625 296.750977,544.072266 303.961914,543.259766 C312.036133,542.548828 318.104492,542.041016 322.166992,541.736328 C328.616211,540.923828 331.84082,537.496094 331.84082,531.453125 C331.84082,528.304688 330.774414,525.77832 328.641602,523.874023 C326.508789,521.969727 323.944336,521.017578 320.948242,521.017578 C318.358398,521.017578 312.213867,521.5 302.514648,522.464844 C285.50293,524.140625 275.575195,525.080078 272.731445,525.283203 C273.188477,511.978516 273.416992,501.949219 273.416992,495.195312 C278.342773,493.976562 282.989258,493.0625 287.356445,492.453125 C291.723633,491.84375 295.811523,491.539062 299.620117,491.539062 C307.389648,491.539062 315.387695,492.65625 323.614258,494.890625 C324.731445,495.195312 325.797852,495.347656 326.813477,495.347656 C329.961914,495.347656 332.551758,494.179688 334.583008,491.84375 C336.411133,489.8125 337.325195,487.476562 337.325195,484.835938 C337.325195,480.164062 334.989258,476.939453 330.317383,475.162109 C322.649414,472.216797 312.416992,470.744141 299.620117,470.744141 C294.897461,470.744141 289.882812,471.112305 284.576172,471.848633 C279.269531,472.584961 273.670898,473.689453 267.780273,475.162109 C265.901367,473.892578 263.844727,473.257812 261.610352,473.257812 C254.500977,473.257812 250.946289,477.117188 250.946289,484.835938 C250.946289,486.613281 251.200195,489.241211 251.708008,492.719727 C252.21582,496.198242 252.469727,498.826172 252.469727,500.603516 C252.469727,507.357422 251.974609,517.551758 250.984375,531.186523 L250.925555,532.000511 C249.974534,545.228712 249.499023,555.177109 249.499023,561.845703 C249.499023,578.248047 252.266602,588.912109 257.801758,593.837891 C262.829102,598.306641 273.620117,600.541016 290.174805,600.541016 Z M463.541992,599.322266 C466.334961,599.322266 468.848633,598.408203 471.083008,596.580078 C473.469727,594.548828 474.663086,592.035156 474.663086,589.039062 C474.663086,587.750565 472.667381,580.138596 468.67597,566.203157 L468.365002,565.118728 C468.20755,564.570277 468.047146,564.012472 467.883789,563.445312 C463.415039,548.007812 459.708008,529.472656 456.762695,507.839844 C455.493164,498.546875 454.299805,492.199219 453.182617,488.796875 C450.491211,480.367188 446.37793,476.152344 440.842773,476.152344 C435.104492,476.152344 430.864258,479.783203 428.12207,487.044922 L428.12207,487.044922 L423.856445,504.564453 C418.879883,522.591797 413.49707,539.146484 407.708008,554.228516 C403.290039,538.943359 399.963867,524.673828 397.729492,511.419922 C395.393555,497.759766 393.209961,488.720703 391.178711,484.302734 C388.995117,479.630859 385.592773,477.294922 380.97168,477.294922 C376.90918,477.294922 373.544922,479.084961 370.878906,482.665039 C368.212891,486.245117 365.737305,493.417969 363.452148,504.183594 C361.928711,512.003906 360.430664,519.824219 358.958008,527.644531 C358.782582,528.477805 358.157377,530.783513 357.082393,534.561654 L356.908921,535.170438 C355.491243,540.138607 353.355913,547.456143 350.50293,557.123047 C346.999023,568.955078 345.24707,578.984375 345.24707,587.210938 C345.24707,590.003906 346.110352,592.416016 347.836914,594.447266 C349.868164,596.833984 352.635742,598.027344 356.139648,598.027344 C361.725586,598.027344 365.55957,594.421875 367.641602,587.210938 C368.555664,581.523438 369.495117,575.810547 370.459961,570.072266 C374.573242,553.466797 377.772461,541.050781 380.057617,532.824219 C383.206055,547.144531 386.760742,560.804688 390.72168,573.804688 L390.72168,573.804688 L394.987305,587.972656 C397.526367,593.609375 401.182617,596.427734 405.956055,596.427734 C410.780273,596.427734 414.538086,594.066406 417.229492,589.34375 C419.260742,585.789062 421.21582,581.244141 423.094727,575.708984 L423.094727,575.708984 L427.665039,561.693359 C432.946289,547.119141 436.729492,536.429688 439.014648,529.625 C441.858398,546.738281 444.499023,559.865234 446.936523,569.005859 L446.936523,569.005859 L451.202148,587.439453 C453.893555,595.361328 458.006836,599.322266 463.541992,599.322266 Z M492.106445,594.828125 C495.000977,594.828125 497.387695,593.863281 499.266602,591.933594 C501.145508,590.003906 502.084961,587.693359 502.084961,585.001953 C502.084961,568.751953 502.237305,557.072266 502.541992,549.962891 C505.944336,550.318359 508.077148,550.496094 508.94043,550.496094 C521.584961,550.496094 532.477539,547.119141 541.618164,540.365234 C551.926758,532.697266 557.081055,522.363281 557.081055,509.363281 C557.081055,499.003906 552.231445,490.21875 542.532227,483.007812 C533.797852,476.558594 524.454102,473.333984 514.500977,473.333984 C510.133789,473.333984 506.426758,473.448242 503.379883,473.676758 C500.333008,473.905273 497.946289,474.248047 496.219727,474.705078 C488.856445,474.146484 485.149414,480.46875 485.098633,493.671875 C485.047852,501.390625 484.540039,513.095703 483.575195,528.787109 C482.55957,544.224609 482.051758,555.878906 482.051758,563.75 L482.051758,563.75 L482.051758,585.001953 C482.051758,587.693359 483.003906,590.003906 484.908203,591.933594 C486.8125,593.863281 489.211914,594.828125 492.106445,594.828125 Z M508.94043,530.919922 C508.077148,530.919922 506.350586,530.716797 503.760742,530.310547 C504.624023,518.376953 505.106445,509.591797 505.208008,503.955078 C505.258789,499.181641 505.28418,495.601562 505.28418,493.214844 C506.147461,493.113281 507.201172,493.049805 508.445312,493.024414 C509.689453,492.999023 511.124023,492.986328 512.749023,492.986328 C518.69043,492.986328 524.174805,494.611328 529.202148,497.861328 C534.432617,501.212891 537.047852,505.046875 537.047852,509.363281 C537.047852,515.964844 534.254883,521.271484 528.668945,525.283203 C523.438477,529.041016 516.862305,530.919922 508.94043,530.919922 Z M565.233855,584.07712 C565.373628,594.748363 571.593528,600.083984 583.893555,600.083984 C591.256836,600.083984 600.676758,599.119141 612.15332,597.189453 C624.696289,595.107422 633.963867,592.746094 639.956055,590.105469 C644.374023,588.125 646.583008,584.951172 646.583008,580.583984 C646.583008,577.994141 645.694336,575.658203 643.916992,573.576172 C641.936523,571.240234 639.34668,570.072266 636.147461,570.072266 C635.081055,570.072266 633.963867,570.25 632.795898,570.605469 C613.956055,576.292969 598.518555,579.238281 586.483398,579.441406 C586.991211,571.0625 587.473633,564.841797 587.930664,560.779297 C589.301758,537.978516 589.987305,513.044922 589.987305,485.978516 C589.987305,483.083984 588.97168,480.621094 586.94043,478.589844 C584.90918,476.558594 582.370117,475.542969 579.323242,475.542969 C576.276367,475.542969 573.75,476.558594 571.744141,478.589844 C569.738281,480.621094 568.735352,483.083984 568.735352,485.978516 C568.735352,512.994141 568.075195,537.521484 566.754883,559.560547 C565.761099,576.156733 565.253522,584.220005 565.23215,583.750362 L565.231,583.735 L565.233855,584.07712 Z M706.37793,597.646484 C724.862305,597.646484 739.842773,589.546875 751.319336,573.347656 C761.272461,559.332031 766.249023,543.691406 766.249023,526.425781 C766.249023,510.125 761.831055,497.912109 752.995117,489.787109 C744.15918,481.662109 730.879883,477.599609 713.157227,477.599609 C694.723633,477.599609 679.438477,485.597656 667.301758,501.59375 C656.485352,515.8125 651.077148,531.554688 651.077148,548.820312 C651.077148,563.496094 656.713867,575.455078 667.987305,584.697266 C678.549805,593.330078 691.34668,597.646484 706.37793,597.646484 Z M706.37793,577.003906 C696.780273,577.003906 688.833008,574.464844 682.536133,569.386719 C675.985352,564.105469 672.709961,557.25 672.709961,548.820312 C672.709961,536.328125 676.493164,524.953125 684.05957,514.695312 C692.133789,503.726562 701.833008,498.242188 713.157227,498.242188 C724.786133,498.242188 732.885742,500.222656 737.456055,504.183594 C742.229492,508.347656 744.616211,515.761719 744.616211,526.425781 C744.616211,539.171875 741.188477,550.546875 734.333008,560.550781 C726.868164,571.519531 717.549805,577.003906 706.37793,577.003906 Z M807.686523,598.332031 C811.59668,598.332031 815.049805,596.123047 818.045898,591.705078 C818.065384,591.674964 818.08935,591.636476 818.117796,591.589615 L818.180662,591.48473 C819.109987,589.918057 823.305301,582.247366 830.766602,568.472656 C835.336914,560.042969 840.87207,548.414062 847.37207,533.585938 C855.192383,515.863281 860.397461,504.335938 862.987305,499.003906 C865.932617,492.960938 867.405273,489.076172 867.405273,487.349609 C867.405273,484.353516 866.237305,481.865234 863.901367,479.884766 C861.768555,478.056641 859.305664,477.142578 856.512695,477.142578 C851.84082,477.142578 848.540039,479.427734 846.610352,483.998047 C843.563477,491.107422 841.27832,496.414062 839.754883,499.917969 C832.493164,515.660156 826.932617,527.416016 823.073242,535.185547 C819.010742,529.904297 814.338867,522.71875 809.057617,513.628906 C800.678711,499.410156 796.311523,491.996094 795.956055,491.386719 L795.956055,491.386719 L790.243164,482.246094 C787.500977,478.84375 784.454102,477.142578 781.102539,477.142578 C778.258789,477.142578 775.770508,478.082031 773.637695,479.960938 C771.352539,481.992188 770.209961,484.480469 770.209961,487.425781 C770.209961,489.304688 770.717773,491.107422 771.733398,492.833984 C782.34668,509.845703 790.395508,522.566406 795.879883,530.996094 C803.192383,542.472656 808.803711,551.029297 812.713867,556.666016 C802.100586,575.099609 796.793945,585.560547 796.793945,588.048828 C796.793945,591.044922 797.961914,593.558594 800.297852,595.589844 C802.430664,597.417969 804.893555,598.332031 807.686523,598.332031 Z M993.926758,599.322266 C996.719727,599.322266 999.233398,598.408203 1001.46777,596.580078 C1003.85449,594.548828 1005.04785,592.035156 1005.04785,589.039062 C1005.04785,587.667969 1002.78809,579.136719 998.268555,563.445312 C993.799805,548.007812 990.092773,529.472656 987.147461,507.839844 C985.87793,498.546875 984.68457,492.199219 983.567383,488.796875 C980.875977,480.367188 976.762695,476.152344 971.227539,476.152344 C965.489258,476.152344 961.249023,479.783203 958.506836,487.044922 L958.506836,487.044922 L954.241211,504.564453 C949.264648,522.591797 943.881836,539.146484 938.092773,554.228516 C933.674805,538.943359 930.348633,524.673828 928.114258,511.419922 C925.77832,497.759766 923.594727,488.720703 921.563477,484.302734 C919.379883,479.630859 915.977539,477.294922 911.356445,477.294922 C907.293945,477.294922 903.929688,479.084961 901.263672,482.665039 C898.597656,486.245117 896.12207,493.417969 893.836914,504.183594 C892.313477,512.003906 890.81543,519.824219 889.342773,527.644531 C889.167347,528.477805 888.542143,530.783513 887.467159,534.561654 L887.293687,535.170438 C885.876009,540.138607 883.740678,547.456143 880.887695,557.123047 C877.383789,568.955078 875.631836,578.984375 875.631836,587.210938 C875.631836,590.003906 876.495117,592.416016 878.22168,594.447266 C880.25293,596.833984 883.020508,598.027344 886.524414,598.027344 C892.110352,598.027344 895.944336,594.421875 898.026367,587.210938 C898.94043,581.523438 899.879883,575.810547 900.844727,570.072266 C904.958008,553.466797 908.157227,541.050781 910.442383,532.824219 C913.59082,547.144531 917.145508,560.804688 921.106445,573.804688 L921.106445,573.804688 L925.37207,587.972656 C927.911133,593.609375 931.567383,596.427734 936.34082,596.427734 C941.165039,596.427734 944.922852,594.066406 947.614258,589.34375 C949.645508,585.789062 951.600586,581.244141 953.479492,575.708984 L953.479492,575.708984 L958.049805,561.693359 C963.331055,547.119141 967.114258,536.429688 969.399414,529.625 C972.243164,546.738281 974.883789,559.865234 977.321289,569.005859 L977.321289,569.005859 L981.586914,587.439453 C984.27832,595.361328 988.391602,599.322266 993.926758,599.322266 Z M1055.70215,600.541016 C1071.69824,600.541016 1082.23535,600.058594 1087.31348,599.09375 C1093.25488,597.976562 1096.22559,594.574219 1096.22559,588.886719 C1096.22559,585.484375 1095.03223,582.84375 1092.64551,580.964844 C1090.56348,579.289062 1088.0498,578.451172 1085.10449,578.451172 C1084.13965,578.451172 1082.66699,578.603516 1080.68652,578.908203 C1078.70605,579.212891 1077.20801,579.365234 1076.19238,579.365234 C1073.04395,579.365234 1068.2959,579.441406 1061.94824,579.59375 C1055.60059,579.746094 1050.85254,579.822266 1047.7041,579.822266 C1041.86426,579.822266 1038.66504,579.492188 1038.10645,578.832031 C1036.93848,577.460938 1036.35449,571.798828 1036.35449,561.845703 C1036.35449,557.884766 1036.53223,552.679688 1036.8877,546.230469 C1051.41113,545.0625 1062.27832,544.072266 1069.48926,543.259766 C1077.56348,542.548828 1083.63184,542.041016 1087.69434,541.736328 C1094.14355,540.923828 1097.36816,537.496094 1097.36816,531.453125 C1097.36816,528.304688 1096.30176,525.77832 1094.16895,523.874023 C1092.03613,521.969727 1089.47168,521.017578 1086.47559,521.017578 C1083.88574,521.017578 1077.74121,521.5 1068.04199,522.464844 C1051.03027,524.140625 1041.10254,525.080078 1038.25879,525.283203 C1038.71582,511.978516 1038.94434,501.949219 1038.94434,495.195312 C1043.87012,493.976562 1048.5166,493.0625 1052.88379,492.453125 C1057.25098,491.84375 1061.33887,491.539062 1065.14746,491.539062 C1072.91699,491.539062 1080.91504,492.65625 1089.1416,494.890625 C1090.25879,495.195312 1091.3252,495.347656 1092.34082,495.347656 C1095.48926,495.347656 1098.0791,494.179688 1100.11035,491.84375 C1101.93848,489.8125 1102.85254,487.476562 1102.85254,484.835938 C1102.85254,480.164062 1100.5166,476.939453 1095.84473,475.162109 C1088.17676,472.216797 1077.94434,470.744141 1065.14746,470.744141 C1060.4248,470.744141 1055.41016,471.112305 1050.10352,471.848633 C1044.79688,472.584961 1039.19824,473.689453 1033.30762,475.162109 C1031.42871,473.892578 1029.37207,473.257812 1027.1377,473.257812 C1020.02832,473.257812 1016.47363,477.117188 1016.47363,484.835938 C1016.47363,486.613281 1016.72754,489.241211 1017.23535,492.719727 L1017.30617,493.210871 C1017.76677,496.446592 1017.99707,498.910807 1017.99707,500.603516 C1017.99707,507.357422 1017.50195,517.551758 1016.51172,531.186523 L1016.4529,532.000511 C1015.50188,545.228712 1015.02637,555.177109 1015.02637,561.845703 C1015.02637,578.248047 1017.79395,588.912109 1023.3291,593.837891 C1028.35645,598.306641 1039.14746,600.541016 1055.70215,600.541016 Z M1124.18066,599.017578 C1131.49316,599.017578 1135.14941,591.527344 1135.14941,576.546875 C1135.14941,572.535156 1135.06055,566.492188 1134.88281,558.417969 C1134.70508,550.34375 1134.61621,544.300781 1134.61621,540.289062 L1134.61669,539.983186 C1134.6262,536.765103 1134.77838,528.767452 1135.07324,515.990234 C1159.65137,547.779297 1181.71582,572.484375 1201.2666,590.105469 C1205.73535,594.117188 1209.74707,596.123047 1213.30176,596.123047 C1219.7002,596.123047 1223.40723,592.847656 1224.42285,586.296875 C1225.28613,580.8125 1225.71777,576.800781 1225.71777,574.261719 L1225.71777,574.261719 L1225.71796,573.864013 C1225.71803,573.795699 1225.71811,573.726369 1225.7182,573.656024 L1225.71896,573.221771 C1225.73372,566.302027 1225.88566,550.601802 1226.1748,526.121094 C1226.26824,519.253438 1226.3187,515.308506 1226.32715,514.2863 L1226.32715,514.169544 C1226.32715,514.13615 1226.32715,514.108281 1226.32715,514.085938 C1226.32715,488.542969 1222.18848,475.771484 1213.91113,475.771484 C1206.49707,475.771484 1202.79004,479.275391 1202.79004,486.283203 C1202.79004,488.314453 1203.04395,491.107422 1203.55176,494.662109 C1204.11035,498.673828 1204.44043,501.416016 1204.54199,502.888672 C1205.03826,511.424538 1205.29204,527.744533 1205.30332,551.848656 L1205.30318,555.019857 C1205.2993,560.264431 1205.27409,563.63151 1205.22754,565.121094 C1182.78223,544.351562 1160.03223,517.513672 1136.97754,484.607422 C1132.40723,478.107422 1128.24316,474.857422 1124.48535,474.857422 C1121.13379,474.857422 1118.15039,476.050781 1115.53516,478.4375 C1112.91992,480.824219 1111.6123,483.541016 1111.6123,486.587891 C1111.6123,489.634766 1111.91699,494.179688 1112.52637,500.222656 L1112.58832,500.842447 C1113.15639,506.577287 1113.44043,510.915612 1113.44043,513.857422 C1113.44043,517.056641 1113.5166,521.880859 1113.66895,528.330078 C1113.82129,534.779297 1113.89746,539.603516 1113.89746,542.802734 L1113.8971,543.118019 C1113.89034,546.11055 1113.78889,550.499596 1113.59277,556.285156 C1113.38965,562.277344 1113.28809,566.771484 1113.28809,569.767578 C1113.28809,571.798828 1113.12305,574.871094 1112.79297,578.984375 C1112.46289,583.097656 1112.29785,586.169922 1112.29785,588.201172 C1112.29785,591.095703 1113.28809,593.558594 1115.26855,595.589844 C1117.50293,597.875 1120.47363,599.017578 1124.18066,599.017578 Z M1287.18848,593.609375 C1291.04785,593.609375 1294.01855,591.654297 1296.10059,587.744141 C1297.72559,584.697266 1298.53809,581.269531 1298.53809,577.460938 C1298.53809,575.734375 1298.36035,573.169922 1298.00488,569.767578 L1297.9529,569.263511 C1297.63208,566.110884 1297.47168,563.714453 1297.47168,562.074219 C1297.47168,554.457031 1296.93848,544.097656 1295.87207,530.996094 C1294.7041,516.167969 1294.01855,505.859375 1293.81543,500.070312 C1298.08105,500.019531 1304.25098,500.273438 1312.3252,500.832031 C1320.7041,501.390625 1326.87402,501.669922 1330.83496,501.669922 C1333.88184,501.669922 1336.43359,500.666992 1338.49023,498.661133 C1340.54688,496.655273 1341.5752,494.205078 1341.5752,491.310547 C1341.5752,488.416016 1340.54688,485.978516 1338.49023,483.998047 C1336.43359,482.017578 1333.88184,481.027344 1330.83496,481.027344 C1326.97559,481.027344 1321.18652,480.760742 1313.46777,480.227539 C1305.74902,479.694336 1299.95996,479.427734 1296.10059,479.427734 C1293.00293,479.427734 1288.36914,479.478516 1282.19922,479.580078 C1276.0293,479.681641 1271.39551,479.732422 1268.29785,479.732422 C1265.2002,479.732422 1261.1377,479.453125 1256.11035,478.894531 C1249.81348,478.132812 1245.77637,477.701172 1243.99902,477.599609 C1240.5459,477.345703 1237.75293,478.462891 1235.62012,480.951172 C1233.79199,483.033203 1232.87793,485.369141 1232.87793,487.958984 C1232.87793,493.240234 1235.69629,496.566406 1241.33301,497.9375 C1247.98535,499.5625 1256.97363,500.375 1268.29785,500.375 L1268.29785,500.375 L1272.25879,500.375 C1272.46191,505.453125 1273.17285,514.669922 1274.3916,528.025391 C1275.45801,539.654297 1275.99121,548.871094 1275.99121,555.675781 C1275.99121,558.0625 1276.15625,561.617188 1276.48633,566.339844 L1276.52515,566.900834 C1276.82935,571.342934 1276.98145,574.685234 1276.98145,576.927734 C1276.98145,577.689453 1276.85449,578.793945 1276.60059,580.241211 C1276.34668,581.688477 1276.21973,582.767578 1276.21973,583.478516 C1276.21973,586.474609 1277.41309,588.962891 1279.7998,590.943359 C1281.93262,592.720703 1284.39551,593.609375 1287.18848,593.609375 Z" mask="url(#emoji-seeking-employment.inline-b)"/>
    <rect width="1573" height="766" x="5" y="5" stroke="#FFF" stroke-width="10" mask="url(#emoji-seeking-employment.inline-b)" rx="60"/>
  </g>
</svg>
