<svg xmlns="http://www.w3.org/2000/svg" width="237" height="199" viewBox="0 0 237 199">
  <g fill="none">
    <path fill="#000" d="M212.794613 85.7864013C212.262626 83.6616312 209.868687 82.3336499 207.740741 83.1304387 205.612795 83.6616312 204.282828 86.0519976 205.080808 88.1767677 205.346801 89.504749 213.592593 119.25153 187.525253 149.529504 186.195286 151.123082 186.195286 153.779044 187.791246 155.107025 188.589226 155.638218 189.387205 156.169411 190.451178 156.169411 191.515152 156.169411 192.579125 155.638218 193.377104 154.841429 222.636364 120.845108 213.060606 87.1143826 212.794613 85.7864013zM234.074074 81.2712649C233.542088 79.1464948 231.148148 78.0841098 229.020202 78.6153023 226.892256 79.1464948 225.56229 81.5368611 226.360269 83.6616312 226.360269 84.1928238 238.59596 126.688226 201.888889 168.652435 200.558923 170.246012 200.558923 172.901975 202.154882 174.229956 202.952862 174.761149 203.750842 175.292341 204.814815 175.292341 205.878788 175.292341 206.942761 174.761149 207.740741 173.96436 247.373737 128.547399 234.606061 83.1304387 234.074074 81.2712649zM58.7845118 25.2304538C60.6464646 23.9024725 60.9124579 21.5121061 59.5824916 19.6529323 58.2525253 17.7937585 55.8585859 17.5281622 53.996633 18.8561435 52.6666667 19.6529323 23.1414141 41.4318257 24.2053872 87.6455752 24.2053872 89.7703452 26.0673401 91.6295191 28.1952862 91.6295191 28.1952862 91.6295191 28.1952862 91.6295191 28.1952862 91.6295191 30.3232323 91.6295191 32.1851852 89.7703452 32.1851852 87.6455752 31.3872054 45.6813659 57.7205387 26.0272426 58.7845118 25.2304538zM44.952862 7.96669682C46.8148148 6.63871551 47.0808081 4.24834916 45.7508418 2.38917534 44.4208754.530001508 42.026936.264405246 40.1649832 1.59238655 38.5690236 2.6547716-1.06397306 31.8703603.265993266 94.2854817.265993266 96.4102518 2.12794613 98.2694256 4.25589226 98.2694256 4.25589226 98.2694256 4.25589226 98.2694256 4.25589226 98.2694256 6.38383838 98.2694256 8.24579125 96.4102518 8.24579125 94.2854817 6.91582492 36.1199005 44.4208754 8.23229308 44.952862 7.96669682z" transform="translate(0 7.98)"/>
    <path fill="#000" d="M193.452847,71.9111568 C194.517417,67.3953639 193.718989,62.8795709 191.057564,58.8950477 C188.662281,54.9105245 184.670144,52.2541757 180.145721,51.1916362 C176.419726,50.3947315 172.427588,50.6603664 168.967735,52.5198106 L171.363018,41.6287805 C173.492158,32.3315597 167.637023,23.0343389 158.322035,20.9092598 C154.329897,20.1123552 150.603902,20.643625 147.144049,22.2374342 L147.410192,21.1748947 C148.474762,16.6591018 147.676334,12.1433088 145.014909,8.1587856 C142.619627,4.1742624 138.627489,1.5179136 134.103066,0.45537408 C129.578643,-0.60716544 125.054221,0.1897392 121.062083,2.846088 C117.069945,5.23680192 114.40852,9.22132512 113.34395,13.7371181 L112.27938,19.0498157 C109.884097,16.127832 106.690387,14.002753 102.69825,13.2058483 C93.3832617,11.0807693 84.0682737,16.9247366 81.9391336,26.4875923 L76.0839983,52.7854454 C67.0351529,50.9260013 57.9863074,57.0356035 55.8571673,66.0671895 L44.6791818,116.272182 C36.6949064,152.66416 59.5831625,188.790504 96.0446868,197.025185 L96.3108293,197.025185 C113.876235,201.009709 132.240069,197.82209 147.410192,187.993599 C162.580315,178.165109 173.226016,163.289556 177.218153,145.492019 L193.452847,71.9111568 Z M97.6415419,190.384313 L97.3753994,190.384313 C64.6398702,182.946537 43.8807542,150.539081 51.0666021,117.600356 L62.2445876,67.3953639 C63.5753002,61.5513965 69.164293,58.098143 75.0194282,59.4263174 C75.8178558,59.6919523 76.3501408,59.6919523 76.8824258,59.9575872 C78.7454234,60.7544919 80.3422785,62.0826663 81.4068486,63.9421104 C83.0037036,66.3328243 83.5359887,69.254808 82.7375611,71.9111568 L75.8178558,105.115517 C75.8178558,105.115517 75.8178558,105.115517 75.8178558,105.381152 C75.8178558,105.381152 75.8178558,105.381152 75.8178558,105.646787 C75.8178558,105.646787 75.8178558,105.912421 75.8178558,105.912421 C75.8178558,106.178056 75.8178558,106.443691 75.8178558,106.443691 C75.8178558,106.443691 75.8178558,106.709326 75.8178558,106.709326 C75.8178558,106.709326 75.8178558,106.974961 75.8178558,106.974961 C75.8178558,106.974961 75.8178558,107.240596 75.8178558,107.240596 C75.8178558,107.240596 75.8178558,107.506231 76.0839983,107.506231 C76.0839983,107.506231 76.0839983,107.771866 76.3501408,107.771866 C76.3501408,107.771866 76.6162833,108.0375 76.6162833,108.0375 C76.6162833,108.0375 76.8824258,108.303135 76.8824258,108.303135 C76.8824258,108.303135 76.8824258,108.303135 77.1485684,108.56877 C89.923409,117.600356 96.0446868,133.538449 92.8509766,148.414002 C92.5848341,150.273446 93.6494042,152.132891 95.5124018,152.398525 C97.3753994,152.66416 99.2383969,151.601621 99.5045395,149.742177 C103.230535,133.007179 96.5769718,114.944007 83.0037036,104.318612 L89.923409,72.9736963 C90.987979,68.4579034 90.1895515,63.9421104 87.5281264,59.9575872 C86.1974138,57.8325082 84.3344162,55.973064 82.4714186,54.6448896 L88.5926964,27.284497 C89.923409,21.4405296 95.5124018,17.9872762 101.367537,19.3154506 C106.95653,20.643625 110.682525,26.2219574 109.351812,32.0659248 L98.1738269,82.2709171 C97.6415419,84.1303613 98.9722544,85.9898055 100.835252,86.2554403 C102.69825,86.5210752 104.561247,85.4585357 104.82739,83.5990915 L120.263655,14.7996576 C120.795941,12.1433088 122.658938,9.75259488 125.054221,8.1587856 C127.449503,6.56497632 130.377071,6.03370656 133.038496,6.8306112 C135.699921,7.36188096 138.095204,9.22132512 139.692059,11.612039 C141.288914,14.002753 141.821199,16.9247366 141.022772,19.5810854 L124.255793,93.693217 C123.723508,95.5526611 125.054221,97.4121053 126.917218,97.6777402 C128.780216,97.9433751 130.643213,96.8808355 130.909356,95.0213914 L144.482624,35.2535434 C145.813337,29.409576 151.40233,25.9563226 157.257465,27.284497 C163.1126,28.6126714 166.572453,34.1910038 165.24174,40.0349712 L159.91889,64.2077453 L148.740904,114.412738 C148.208619,116.272182 149.539332,117.865991 151.40233,118.397261 C153.265327,118.662896 155.128325,117.600356 155.394467,115.740912 L166.040168,66.0671895 C166.572453,63.4108407 168.43545,61.0201267 170.830733,59.4263174 C173.226016,57.8325082 176.153583,57.3012384 178.815008,58.098143 C181.476434,58.6294128 183.871716,60.488857 185.468571,62.8795709 C187.065426,65.2702848 187.597711,68.1922685 186.799284,70.8486173 L170.56459,143.898209 C163.378743,176.836934 130.643213,197.556455 97.6415419,190.384313 Z"/>
    <path fill="#FFF" d="M97.6415419,190.384313 L97.3753994,190.384313 C64.6398702,182.946537 43.8807542,150.539081 51.0666021,117.600356 L62.2445876,67.3953639 C63.5753002,61.5513965 69.164293,58.098143 75.0194282,59.4263174 C75.8178558,59.6919523 76.3501408,59.6919523 76.8824258,59.9575872 C78.7454234,60.7544919 80.3422785,62.0826663 81.4068486,63.9421104 C83.0037036,66.3328243 83.5359887,69.254808 82.7375611,71.9111568 L75.8178558,105.115517 C75.8178558,105.115517 75.8178558,105.115517 75.8178558,105.381152 C75.8178558,105.381152 75.8178558,105.381152 75.8178558,105.646787 C75.8178558,105.646787 75.8178558,105.912421 75.8178558,105.912421 C75.8178558,106.178056 75.8178558,106.443691 75.8178558,106.443691 C75.8178558,106.443691 75.8178558,106.709326 75.8178558,106.709326 C75.8178558,106.709326 75.8178558,106.974961 75.8178558,106.974961 C75.8178558,106.974961 75.8178558,107.240596 75.8178558,107.240596 C75.8178558,107.240596 75.8178558,107.506231 76.0839983,107.506231 C76.0839983,107.506231 76.0839983,107.771866 76.3501408,107.771866 C76.3501408,107.771866 76.6162833,108.0375 76.6162833,108.0375 C76.6162833,108.0375 76.8824258,108.303135 76.8824258,108.303135 C76.8824258,108.303135 76.8824258,108.303135 77.1485684,108.56877 C89.923409,117.600356 96.0446868,133.538449 92.8509766,148.414002 C92.5848341,150.273446 93.6494042,152.132891 95.5124018,152.398525 C97.3753994,152.66416 99.2383969,151.601621 99.5045395,149.742177 C103.230535,133.007179 96.5769718,114.944007 83.0037036,104.318612 L89.923409,72.9736963 C90.987979,68.4579034 90.1895515,63.9421104 87.5281264,59.9575872 C86.1974138,57.8325082 84.3344162,55.973064 82.4714186,54.6448896 L88.5926964,27.284497 C89.923409,21.4405296 95.5124018,17.9872762 101.367537,19.3154506 C106.95653,20.643625 110.682525,26.2219574 109.351812,32.0659248 L98.1738269,82.2709171 C97.6415419,84.1303613 98.9722544,85.9898055 100.835252,86.2554403 C102.69825,86.5210752 104.561247,85.4585357 104.82739,83.5990915 L120.263655,14.7996576 C120.795941,12.1433088 122.658938,9.75259488 125.054221,8.1587856 C127.449503,6.56497632 130.377071,6.03370656 133.038496,6.8306112 C135.699921,7.36188096 138.095204,9.22132512 139.692059,11.612039 C141.288914,14.002753 141.821199,16.9247366 141.022772,19.5810854 L124.255793,93.693217 C123.723508,95.5526611 125.054221,97.4121053 126.917218,97.6777402 C128.780216,97.9433751 130.643213,96.8808355 130.909356,95.0213914 L144.482624,35.2535434 C145.813337,29.409576 151.40233,25.9563226 157.257465,27.284497 C163.1126,28.6126714 166.572453,34.1910038 165.24174,40.0349712 L159.91889,64.2077453 L148.740904,114.412738 C148.208619,116.272182 149.539332,117.865991 151.40233,118.397261 C153.265327,118.662896 155.128325,117.600356 155.394467,115.740912 L166.040168,66.0671895 C166.572453,63.4108407 168.43545,61.0201267 170.830733,59.4263174 C173.226016,57.8325082 176.153583,57.3012384 178.815008,58.098143 C181.476434,58.6294128 183.871716,60.488857 185.468571,62.8795709 C187.065426,65.2702848 187.597711,68.1922685 186.799284,70.8486173 L170.56459,143.898209 C163.378743,176.836934 130.643213,197.556455 97.6415419,190.384313 Z"/>
  </g>
</svg>
