<?xml version="1.0" encoding="UTF-8"?>
<svg width="422px" height="144px" viewBox="0 0 422 144" version="1.1" xmlns="http://www.w3.org/2000/svg" xmlns:xlink="http://www.w3.org/1999/xlink">
    <title>Group 21</title>
    <defs>
        <radialGradient cx="50%" cy="86.2797494%" fx="50%" fy="86.2797494%" r="90.679686%" gradientTransform="translate(0.500000,0.862797),scale(0.900000,1.000000),rotate(-90.000000),translate(-0.500000,-0.862797)" id="radialGradient-1">
            <stop stop-color="#E41B5B" offset="0%"></stop>
            <stop stop-color="#EB5686" offset="100%"></stop>
        </radialGradient>
    </defs>
    <g id="Welcome" stroke="none" stroke-width="1" fill="none" fill-rule="evenodd">
        <g id="Artboard" transform="translate(-4891.000000, -1354.000000)">
            <g id="Group-21" transform="translate(4891.000000, 1354.000000)">
                <path d="M11.2612022,144 C24.3642987,144 32.8160291,141.922631 36.6163934,137.767892 C40.4167577,133.613153 42.3169399,128.889749 42.3169399,123.597679 C42.3169399,120.812379 41.943898,117.77176 41.1978142,114.475822 L41.1978142,114.475822 L39.8688525,108.765957 L38.6797814,102.568665 L37.8404372,98.7388781 C37.4673953,97.1141199 37.2808743,95.4893617 37.2808743,93.8646035 C37.2808743,89.2224371 38.8080146,85.3462282 41.8622951,82.2359768 C44.9165756,79.1257253 50.1741348,77.5705996 57.6349727,77.5705996 L57.6349727,77.5705996 L64,77.5705996 L64,66.4990329 L57.6349727,66.4990329 C50.0808743,66.4990329 44.8,64.9323017 41.7923497,61.7988395 C38.7846995,58.6653772 37.2808743,54.893617 37.2808743,50.483559 C37.2808743,48.8123791 37.4673953,47.0715667 37.8404372,45.2611219 L37.8404372,45.2611219 L38.6797814,41.5705996 L39.8688525,35.3733075 L41.1978142,29.6634429 C41.943898,26.4139265 42.3169399,23.3733075 42.3169399,20.5415861 C42.3169399,15.2959381 40.4167577,10.5609284 36.6163934,6.33655706 C32.8160291,2.11218569 24.3642987,0 11.2612022,0 L11.2612022,0 L0,0 L0,11.1411992 L11.1213115,11.1411992 C18.2091075,11.1411992 22.8837887,12.1508704 25.1453552,14.1702128 C27.4069217,16.1895551 28.5377049,18.6615087 28.5377049,21.5860735 C28.5377049,23.72147 28.0714026,26.9941973 27.1387978,31.4042553 L27.1387978,31.4042553 L25.3202186,39.5512573 C24.4342441,43.9613153 23.9912568,47.5125725 23.9912568,50.205029 C23.9912568,53.2688588 24.4925319,55.9729207 25.495082,58.3172147 C26.4976321,60.6615087 28.0364299,62.959381 30.1114754,65.2108317 C32.1865209,67.4622824 35.43898,69.7485493 39.8688525,72.0696325 C35.43898,74.3907157 32.1865209,76.6653772 30.1114754,78.893617 C28.0364299,81.1218569 26.4976321,83.4197292 25.495082,85.787234 C24.4925319,88.1547389 23.9912568,90.8704062 23.9912568,93.934236 C23.9912568,96.6266925 24.4342441,100.154739 25.3202186,104.518375 L25.3202186,104.518375 L27.1387978,112.665377 C28.0714026,117.121857 28.5377049,120.394584 28.5377049,122.483559 C28.5377049,125.408124 27.4069217,127.891683 25.1453552,129.934236 C22.8837887,131.976789 18.2091075,132.998066 11.1213115,132.998066 L11.1213115,132.998066 L0,132.998066 L0,144 L11.2612022,144 Z M78,111 L156,72 L78,33 L78,45.3231598 L131.401617,72.070018 L78,98.6068223 L78,111 Z" id="}&gt;-copy" fill="#FFFFFF" fill-rule="nonzero" transform="translate(78.000000, 72.000000) scale(-1, 1) translate(-78.000000, -72.000000) "></path>
                <path d="M277.261202,144 C290.364299,144 298.816029,141.922631 302.616393,137.767892 C306.416758,133.613153 308.31694,128.889749 308.31694,123.597679 C308.31694,120.812379 307.943898,117.77176 307.197814,114.475822 L307.197814,114.475822 L305.868852,108.765957 L304.679781,102.568665 L303.840437,98.7388781 C303.467395,97.1141199 303.280874,95.4893617 303.280874,93.8646035 C303.280874,89.2224371 304.808015,85.3462282 307.862295,82.2359768 C310.916576,79.1257253 316.174135,77.5705996 323.634973,77.5705996 L323.634973,77.5705996 L330,77.5705996 L330,66.4990329 L323.634973,66.4990329 C316.080874,66.4990329 310.8,64.9323017 307.79235,61.7988395 C304.784699,58.6653772 303.280874,54.893617 303.280874,50.483559 C303.280874,48.8123791 303.467395,47.0715667 303.840437,45.2611219 L303.840437,45.2611219 L304.679781,41.5705996 L305.868852,35.3733075 L307.197814,29.6634429 C307.943898,26.4139265 308.31694,23.3733075 308.31694,20.5415861 C308.31694,15.2959381 306.416758,10.5609284 302.616393,6.33655706 C298.816029,2.11218569 290.364299,0 277.261202,0 L277.261202,0 L266,0 L266,11.1411992 L277.121311,11.1411992 C284.209107,11.1411992 288.883789,12.1508704 291.145355,14.1702128 C293.406922,16.1895551 294.537705,18.6615087 294.537705,21.5860735 C294.537705,23.72147 294.071403,26.9941973 293.138798,31.4042553 L293.138798,31.4042553 L291.320219,39.5512573 C290.434244,43.9613153 289.991257,47.5125725 289.991257,50.205029 C289.991257,53.2688588 290.492532,55.9729207 291.495082,58.3172147 C292.497632,60.6615087 294.03643,62.959381 296.111475,65.2108317 C298.186521,67.4622824 301.43898,69.7485493 305.868852,72.0696325 C301.43898,74.3907157 298.186521,76.6653772 296.111475,78.893617 C294.03643,81.1218569 292.497632,83.4197292 291.495082,85.787234 C290.492532,88.1547389 289.991257,90.8704062 289.991257,93.934236 C289.991257,96.6266925 290.434244,100.154739 291.320219,104.518375 L291.320219,104.518375 L293.138798,112.665377 C294.071403,117.121857 294.537705,120.394584 294.537705,122.483559 C294.537705,125.408124 293.406922,127.891683 291.145355,129.934236 C288.883789,131.976789 284.209107,132.998066 277.121311,132.998066 L277.121311,132.998066 L266,132.998066 L266,144 L277.261202,144 Z M344,111 L422,72 L344,33 L344,45.3231598 L397.401617,72.070018 L344,98.6068223 L344,111 Z" id="}&gt;-copy-2" fill="#FFFFFF" fill-rule="nonzero"></path>
                <g id="Group-3-Copy-3" transform="translate(161.000000, 27.000000)" fill="url(#radialGradient-1)">
                    <path d="M50.0587544,13.5168512 C47.3168696,11.0135792 41.4354333,0 30.0822562,0 C18.729079,0 11.7508964,5.90610274 8.9306698,8.80052151 C5.95376508,11.6949403 3.72111981,14.9804308 2.23266745,18.6571056 C0.744215088,22.3337804 0,26.0690691 0,29.8631218 C0,33.6571369 0.744215088,37.3532996 2.23266745,40.9517601 C3.72111981,44.6284349 5.95376508,47.9139254 8.9306698,50.8083442 C34.1036772,76.2190338 46.9513075,89.0677952 47.4735605,89.3546284 C48.2569401,89.7848783 49.1186839,90 50.0587544,90 C50.842134,90 51.586369,89.8239913 52.2914219,89.4719687 C52.7614571,89.2372869 65.7265962,76.349412 91.186839,50.8083442 C94.1637415,47.9139254 96.3963713,44.6284349 97.8848414,40.9517601 C99.2949471,37.3532996 100,33.6571369 100,29.8631218 C100,26.0690691 99.2949471,22.3337804 97.8848414,18.6571056 C96.3963713,14.9804308 94.1637415,11.6558143 91.186839,8.68318123 C88.3666275,5.86701434 83.0705053,0 70.0352526,0 C57,0 52.8006392,11.0135792 50.0587544,13.5168512 Z" id="Fill-1"></path>
                </g>
            </g>
        </g>
    </g>
</svg>