<svg xmlns="http://www.w3.org/2000/svg" xmlns:xlink="http://www.w3.org/1999/xlink" width="210" height="210" viewBox="0 0 210 210">
  <defs>
    <path id="icon-open-external.inline-b" d="M775.464224,1232 L853,1232 L853,1309.53578 L830.623904,1309.53578 L830.623904,1269.98733 L721.865668,1378.74556 L706.254438,1363.13433 L815.012674,1254.3761 L775.464224,1254.3761 L775.464224,1232 Z M830.604167,1409.60417 L830.604167,1332 L853,1332 L853,1409.60417 C853,1415.50698 850.743083,1420.71526 846.229167,1425.22917 C841.71525,1429.74308 836.507,1432 830.604167,1432 L675.395833,1432 C669.1458,1432 663.850717,1429.74308 659.510417,1425.22917 C655.170117,1420.71526 653,1415.50698 653,1409.60417 L653,1254.39583 C653,1248.493 655.170117,1243.28475 659.510417,1238.77083 C663.850717,1234.25692 669.1458,1232 675.395833,1232 L753,1232 L753,1254.39583 L675.395833,1254.39583 L675.395833,1409.60417 L830.604167,1409.60417 Z"/>
    <filter id="icon-open-external.inline-a" width="107.5%" height="107.5%" x="-3.8%" y="-3.8%" filterUnits="objectBoundingBox">
      <feOffset in="SourceAlpha" result="shadowOffsetOuter1"/>
      <feGaussianBlur in="shadowOffsetOuter1" result="shadowBlurOuter1" stdDeviation="2.5"/>
      <feColorMatrix in="shadowBlurOuter1" values="0 0 0 0 0   0 0 0 0 0   0 0 0 0 0  0 0 0 0.151770105 0"/>
    </filter>
  </defs>
  <g fill="none" fill-rule="evenodd" transform="translate(-648 -1227)">
    <use fill="#000" filter="url(#icon-open-external.inline-a)" xlink:href="#icon-open-external.inline-b"/>
    <use fill="#253240" xlink:href="#icon-open-external.inline-b"/>
  </g>
</svg>
