<?xml version="1.0" encoding="UTF-8"?>
<svg width="194px" height="194px" viewBox="0 0 194 194" version="1.1" xmlns="http://www.w3.org/2000/svg" xmlns:xlink="http://www.w3.org/1999/xlink">
    <title>icon-creative-tech copy</title>
    <g id="Welcome" stroke="none" stroke-width="1" fill="none" fill-rule="evenodd">
        <g id="Desktop-HD" transform="translate(-921.000000, -598.000000)">
            <g id="icon-creative-tech-copy" transform="translate(994.000000, 671.500000) rotate(-135.000000) translate(-994.000000, -671.500000) translate(892.000000, 535.000000)">
                <g id="Group-2" transform="translate(0.000000, 0.882251)">
                    <polygon id="Fill-1-Copy-8" stroke="#FFFEFE" fill="#68C9EE" transform="translate(68.000000, 68.000000) rotate(-225.000000) translate(-68.000000, -68.000000) " points="20 116 116 116 116 20 20 20"></polygon>
                    <polygon id="Fill-1-Copy-9" fill="#3572EE" transform="translate(68.002937, 67.998260) rotate(-225.000000) translate(-68.002937, -67.998260) " points="115.504861 115.495458 115.503415 20.500556 20.4998272 20.4998763"></polygon>
                </g>
                <g id="Group-4" transform="translate(0.000000, 137.000000)">
                    <polygon id="Fill-1-Copy-7" stroke="#FFFEFE" fill="#F9CC6D" transform="translate(68.000000, 68.000000) rotate(-225.000000) translate(-68.000000, -68.000000) " points="20 116 116 116 116 20 20 20"></polygon>
                    <polygon id="Fill-1-Copy-6" fill="#C6756D" transform="translate(68.002937, 67.998260) scale(1, -1) rotate(-225.000000) translate(-68.002937, -67.998260) " points="115.504861 115.495458 115.503415 20.500556 20.4998272 20.4998763"></polygon>
                </g>
                <g id="Group" transform="translate(68.000000, 69.000000)">
                    <polygon id="Fill-1-Copy-11" stroke="#FFFEFE" fill="#B42A76" transform="translate(68.000000, 68.000000) rotate(-315.000000) translate(-68.000000, -68.000000) " points="20 116 116 116 116 20 20 20"></polygon>
                    <polygon id="Fill-1-Copy-10" fill="#BC55A5" transform="translate(67.998260, 67.997063) scale(1, -1) rotate(-135.000000) translate(-67.998260, -67.997063) " points="115.500184 115.49426 115.498738 20.4993582 20.4951504 20.4986784"></polygon>
                </g>
            </g>
        </g>
    </g>
</svg>