<?xml version="1.0" encoding="UTF-8"?>
<svg width="260px" height="154px" viewBox="0 0 260 154" version="1.1" xmlns="http://www.w3.org/2000/svg" xmlns:xlink="http://www.w3.org/1999/xlink">
    <title>Group 3</title>
    <defs>
        <filter x="-4.2%" y="-7.3%" width="108.4%" height="114.6%" filterUnits="objectBoundingBox" id="filter-1">
            <feOffset dx="0" dy="0" in="SourceAlpha" result="shadowOffsetOuter1"></feOffset>
            <feGaussianBlur stdDeviation="2.5" in="shadowOffsetOuter1" result="shadowBlurOuter1"></feGaussianBlur>
            <feColorMatrix values="0 0 0 0 0   0 0 0 0 0   0 0 0 0 0  0 0 0 0.152371066 0" type="matrix" in="shadowBlurOuter1" result="shadowMatrixOuter1"></feColorMatrix>
            <feMerge>
                <feMergeNode in="shadowMatrixOuter1"></feMergeNode>
                <feMergeNode in="SourceGraphic"></feMergeNode>
            </feMerge>
        </filter>
    </defs>
    <g id="Welcome" stroke="none" stroke-width="1" fill="none" fill-rule="evenodd">
        <g id="Artboard" transform="translate(-69.000000, -638.000000)">
            <g id="Group-3" filter="url(#filter-1)" transform="translate(74.000000, 643.000000)">
                <path d="M49.9582289,143.526786 L57.1428571,143.526786 L57.1428571,129.140703 L49.9582289,129.140703 C48.9557173,129.140703 45.140665,127.802474 38.512949,125.125983 C31.8852331,122.449492 28.5714286,114.308607 28.5714286,100.703099 C28.5714286,93.565782 27.5410874,87.6831457 25.4803676,83.0550293 C23.4196478,78.4269664 20.8855632,74.7746947 17.8780284,72.0982143 C20.8855632,69.4217339 23.4196478,65.7694622 25.4803676,61.1413993 C27.5410874,56.5132829 28.5714286,50.6306465 28.5714286,43.4933297 C28.5714286,29.8878162 31.8573875,21.7469262 38.4294069,19.0704458 C45.0014262,16.3939654 48.8443295,15.0557252 49.9582289,15.0557252 L57.1428571,15.0557252 L57.1428571,0.669642857 L49.9582289,0.669642857 C46.8393063,0.669642857 43.2191786,1.33876296 39.0977444,2.67700318 C35.0876979,4.01524339 31.2447947,6.30138592 27.5689223,9.53548428 C23.89305,12.7695826 20.7741701,17.1188098 18.2121972,22.5833264 C15.6502242,28.1593451 14.3692565,35.1292748 14.3692565,43.4933297 C14.3692565,53.5301848 12.2528775,59.6079366 8.02005013,61.7268526 C3.78722486,63.8457687 1.11390155,64.9051731 0,64.9051731 L0,79.2912554 C0.334170413,79.2912554 2.81256368,80.2112688 7.4352548,82.0513491 C12.0579475,83.8914829 14.3692565,90.1086419 14.3692565,100.703099 C14.3692565,109.067143 15.6502242,116.037073 18.2121972,121.613102 C20.7741701,127.077608 23.89305,131.426846 27.5689223,134.660944 C31.2447947,137.895043 35.1433945,140.181179 39.2648287,141.519425 C43.2748752,142.857672 46.8393063,143.526786 49.9582289,143.526786 Z M250,64.9051731 C249.665831,64.9051731 247.187422,63.9851598 242.564772,62.1450795 C237.942069,60.3049456 235.630744,54.0878028 235.630744,43.4933297 C235.630744,35.1292748 234.349781,28.1593451 231.787803,22.5833264 C229.225825,17.1188098 226.106934,12.7695826 222.431078,9.53548428 C218.755221,6.30138592 214.856622,4.01524339 210.735171,2.67700318 C206.725146,1.33876296 203.160715,0.669642857 200.041771,0.669642857 L192.857143,0.669642857 L192.857143,15.0557252 L200.041771,15.0557252 C201.044277,15.0557252 204.859362,16.3939654 211.487078,19.0704458 C218.11474,21.7469262 221.428571,29.8878162 221.428571,43.4933297 C221.428571,50.6306465 222.458934,56.5132829 224.519659,61.1413993 C226.580331,65.7694622 229.114453,69.4217339 232.121972,72.0982143 C229.114453,74.7746947 226.580331,78.4269664 224.519659,83.0550293 C222.458934,87.6831457 221.428571,93.565782 221.428571,100.703099 C221.428571,114.308607 218.142596,122.449492 211.570593,125.125983 C204.99859,127.802474 201.155649,129.140703 200.041771,129.140703 L192.857143,129.140703 L192.857143,143.526786 L200.041771,143.526786 C203.160715,143.526786 206.780805,142.857672 210.902256,141.519425 C214.912281,140.181179 218.755221,137.895043 222.431078,134.660944 C226.106934,131.426846 229.225825,127.077608 231.787803,121.613102 C234.349781,116.037073 235.630744,109.067143 235.630744,100.703099 C235.630744,90.6662491 237.747128,84.588492 241.97995,82.4695759 C246.212772,80.3506599 248.886122,79.2912554 250,79.2912554 L250,64.9051731 Z" id="Fill-1" fill="#FFFFFF"></path>
                <path d="M126.846567,36.5617433 C124.006758,33.9790024 120.801871,32.0016271 117.231828,30.62954 C113.661782,29.2574528 109.970084,28.5714286 106.156622,28.5714286 C102.018614,28.5714286 98.0632224,29.3381501 94.2903307,30.8716707 C90.517439,32.4051913 87.1705712,34.6650266 84.2496223,37.6513317 C81.1663995,40.6376368 78.8540169,44.0274286 77.3124056,47.8208232 C75.7707942,51.6142179 75,55.4680872 75,59.382586 C75,63.297046 75.7707942,67.1105472 77.3124056,70.8232446 C78.8540169,74.6166392 81.1663995,78.006431 84.2496223,80.9927361 L122.343461,118.886199 C122.74916,119.693305 123.357687,120.318803 124.169045,120.762712 C124.980402,121.20662 125.872923,121.428571 126.846567,121.428571 C127.657924,121.428571 128.428739,121.246975 129.158973,120.883777 C129.889206,120.520579 130.497734,120.016145 130.984556,119.37046 L169.443512,80.9927361 C172.526732,78.006431 174.839099,74.6166392 176.380729,70.8232446 C177.841195,67.1105472 178.571429,63.297046 178.571429,59.382586 C178.571429,55.4680872 177.841195,51.6142179 176.380729,47.8208232 C174.839099,44.0274286 172.526732,40.5972688 169.443512,37.5302663 C166.522578,34.6246973 163.175695,32.4051913 159.402784,30.8716707 C155.629912,29.3381501 151.67454,28.5714286 147.536512,28.5714286 C143.723058,28.5714286 140.031349,29.2574528 136.461306,30.62954 C132.891263,32.0016271 129.686376,33.9790024 126.846567,36.5617433 Z M161.817227,45.4646565 C165.84385,49.5839644 167.857143,54.4858725 167.857143,60.1705388 C167.857143,65.8552051 165.84385,70.7571132 161.817227,74.8764212 L126.785714,110.714286 L91.7542017,74.8764212 C87.7275704,70.7571132 85.7142857,65.8552051 85.7142857,60.1705388 C85.7142857,54.4858725 87.7275704,49.5839644 91.7542017,45.4646565 C93.6869864,43.487395 95.9015965,41.9632427 98.3981092,40.8922392 C100.894622,39.8212358 103.511891,39.2857143 106.25,39.2857143 C108.907575,39.2857143 111.464448,39.8212358 113.920693,40.8922392 C116.376919,41.9632427 118.611669,43.487395 120.625,45.4646565 L123.161765,48.0598122 C124.128151,49.1308156 125.336134,49.6663371 126.785714,49.6663371 C128.235294,49.6663371 129.443277,49.1308156 130.409664,48.0598122 L132.946429,45.4646565 C136.892533,41.5100939 141.704287,39.532872 147.381847,39.532872 C153.059368,39.532872 157.871123,41.5100939 161.817227,45.4646565 Z" id="Fill-1" fill="#FFFFFF"></path>
                <path d="M161.817227,45.4646565 C165.84385,49.5839644 167.857143,54.4858725 167.857143,60.1705388 C167.857143,65.8552051 165.84385,70.7571132 161.817227,74.8764212 L126.785714,110.714286 L91.7542017,74.8764212 C87.7275704,70.7571132 85.7142857,65.8552051 85.7142857,60.1705388 C85.7142857,54.4858725 87.7275704,49.5839644 91.7542017,45.4646565 C93.6869864,43.487395 95.9015965,41.9632427 98.3981092,40.8922392 C100.894622,39.8212358 103.511891,39.2857143 106.25,39.2857143 C108.907575,39.2857143 111.464448,39.8212358 113.920693,40.8922392 C116.376919,41.9632427 118.611669,43.487395 120.625,45.4646565 L123.161765,48.0598122 C124.128151,49.1308156 125.336134,49.6663371 126.785714,49.6663371 C128.235294,49.6663371 129.443277,49.1308156 130.409664,48.0598122 L132.946429,45.4646565 C136.892533,41.5100939 141.704287,39.532872 147.381847,39.532872 C153.059368,39.532872 157.871123,41.5100939 161.817227,45.4646565 Z" id="Path" fill="#CB3429"></path>
            </g>
        </g>
    </g>
</svg>