<?xml version="1.0" encoding="UTF-8"?>
<svg width="233px" height="204px" viewBox="0 0 233 204" version="1.1" xmlns="http://www.w3.org/2000/svg" xmlns:xlink="http://www.w3.org/1999/xlink">
    <title>Group 6</title>
    <defs>
        <filter x="-4.7%" y="-5.4%" width="109.4%" height="110.8%" filterUnits="objectBoundingBox" id="filter-1">
            <feOffset dx="0" dy="0" in="SourceAlpha" result="shadowOffsetOuter1"></feOffset>
            <feGaussianBlur stdDeviation="2.5" in="shadowOffsetOuter1" result="shadowBlurOuter1"></feGaussianBlur>
            <feColorMatrix values="0 0 0 0 0   0 0 0 0 0   0 0 0 0 0  0 0 0 0.15 0" type="matrix" in="shadowBlurOuter1" result="shadowMatrixOuter1"></feColorMatrix>
            <feMerge>
                <feMergeNode in="shadowMatrixOuter1"></feMergeNode>
                <feMergeNode in="SourceGraphic"></feMergeNode>
            </feMerge>
        </filter>
    </defs>
    <g id="Welcome" stroke="none" stroke-width="1" fill="none" fill-rule="evenodd">
        <g id="Artboard" transform="translate(-662.000000, -549.000000)">
            <g id="Group-6" transform="translate(667.000001, 554.000000)">
                <g id="Group-5" filter="url(#filter-1)" fill="#FFFFFF">
                    <path d="M132.999999,166 C135.041672,166 136.718743,166.656245 138.031211,167.968747 C139.343736,169.281255 139.999999,170.95832 139.999999,173 L139.999999,187 C139.999999,189.041677 139.343736,190.718743 138.031211,192.03125 C136.718743,193.343756 135.041672,194 132.999999,194 L104.999999,194 C102.958325,194 101.281254,193.343756 99.9687288,192.03125 C98.6562037,190.718743 97.9999986,189.041677 97.9999986,187 L97.9999986,173 C97.9999986,170.95832 98.6562037,169.281255 99.9687288,167.968747 C101.281254,166.656245 102.958325,166 104.999999,166 L132.999999,166 Z M76.8789146,138.571429 C80.0761247,138.571429 82.2560589,140.014868 83.4186599,142.901787 C84.5813182,145.788706 84,148.242549 81.6747584,150.263395 L46.7958458,191.834821 C45.6332105,193.278281 44.0346111,194 42,194 C39.9653873,194 38.366788,193.278281 37.2041526,191.834821 L2.32526298,150.263395 C2.27373675e-13,148.242549 -0.581316876,145.788706 0.581318502,142.901787 C1.74395388,140.014868 3.92386287,138.571429 7.12111245,138.571429 L28.0484462,138.571429 L28.0484462,6.92857143 C28.0484462,4.90773099 28.702415,3.24777319 30.0103813,1.94864117 C31.3183475,0.649566007 32.9896094,0 35.0242242,0 L48.97578,0 C51.0103891,0 52.6816509,0.649566007 53.9896172,1.94864117 C55.2975834,3.24777319 55.9515579,4.90773099 55.9515579,6.92857143 L55.9515579,138.571429 M188.071427,55 C190.092268,55 191.752225,55.6562626 193.051301,56.9687303 C194.350433,58.2812554 194.999999,59.9583262 194.999999,62 L194.999999,76 C194.999999,78.0416738 194.350433,79.7187446 193.051301,81.0312697 C191.752225,82.3437374 190.092268,83 188.071427,83 L104.92857,83 C102.90773,83 101.247772,82.3437374 99.9486398,81.0312697 C98.6495077,79.7187446 97.9999986,78.0416738 97.9999986,76 L97.9999986,62 C97.9999986,59.9583262 98.6495077,58.2812554 99.9486398,56.9687303 C101.247772,55.6562626 102.90773,55 104.92857,55 L188.071427,55 Z M159.999999,111 C162.041672,111 163.718743,111.656263 165.031211,112.96873 C166.343736,114.281255 166.999999,115.958326 166.999999,118 L166.999999,132 C166.999999,134.041674 166.343736,135.718745 165.031211,137.03127 C163.718743,138.343755 162.041672,139 159.999999,139 L103.999999,139 C101.958325,139 100.281254,138.343755 98.9687288,137.03127 C97.6562037,135.718745 96.9999986,134.041674 96.9999986,132 L96.9999986,118 C96.9999986,115.958326 97.6562037,114.281255 98.9687288,112.96873 C100.281254,111.656263 101.958325,111 103.999999,111 L159.999999,111 Z M216.055554,0 C218.081024,0 219.744785,0.656262564 221.046836,1.96873026 C222.348944,3.28125538 222.999999,4.95832615 222.999999,7 L222.999999,21 C222.999999,23.0416738 222.348944,24.7187446 221.046836,26.0312697 C219.744785,27.3437374 218.081024,28 216.055554,28 L104.944443,28 C102.918973,28 101.255212,27.3437374 99.953104,26.0312697 C98.6509957,24.7187446 97.9999986,23.0416738 97.9999986,21 L97.9999986,7 C97.9999986,4.95832615 98.6509957,3.28125538 99.953104,1.96873026 C101.255212,0.656262564 102.918973,0 104.944443,0 L216.055554,0 Z" id="Fill-1"></path>
                </g>
                <path d="M199.642856,51 C202.226198,51 204.348206,51.8437662 206.008879,53.5312246 C207.669626,55.2187569 208.499999,57.3749908 208.499999,60 L208.499999,78 C208.499999,80.6250092 207.669626,82.7812431 206.008879,84.4687754 C204.348206,86.1562338 202.226198,87 199.642856,87 L93.3571414,87 C90.773799,87 88.6517911,86.1562338 86.991045,84.4687754 C85.330299,82.7812431 84.4999986,80.6250092 84.4999986,78 L84.4999986,60 C84.4999986,57.3749908 85.330299,55.2187569 86.991045,53.5312246 C88.6517911,51.8437662 90.773799,51 93.3571414,51 L199.642856,51 Z" id="Path" fill="#B42A76"></path>
            </g>
        </g>
    </g>
</svg>