<svg xmlns="http://www.w3.org/2000/svg" xmlns:xlink="http://www.w3.org/1999/xlink" width="260" height="260" viewBox="0 0 260 260">
  <defs>
    <path id="icon-phone.inline-b" d="M1864.13021,945.072917 C1884.96365,985.437698 1915.5623,1016.03635 1955.92708,1036.86979 L1986.52604,1006.27083 C1990.86635,1001.93053 1995.64062,1000.84548 2000.84896,1003.01562 C2016.47406,1008.22399 2032.96688,1010.82812 2050.32812,1010.82812 C2054.23438,1010.82812 2057.48958,1012.1302 2060.09375,1014.73438 C2062.69792,1017.33855 2064,1020.59373 2064,1024.5 L2064,1073.32812 C2064,1077.23439 2062.69792,1080.48957 2060.09375,1083.09375 C2057.48958,1085.69793 2054.23438,1087 2050.32812,1087 C1985.22365,1087 1929.5601,1063.88825 1883.33594,1017.66406 C1837.11175,971.439896 1814,915.776354 1814,850.671875 C1814,846.765625 1815.30207,843.510417 1817.90625,840.90625 C1820.51043,838.302083 1823.76561,837 1827.67188,837 L1876.5,837 C1880.40627,837 1883.66145,838.302083 1886.26562,840.90625 C1888.8698,843.510417 1890.17188,846.765625 1890.17188,850.671875 C1890.17188,868.033125 1892.77601,884.525937 1897.98438,900.151042 C1899.72049,905.793437 1898.63544,910.567708 1894.72917,914.473958 L1864.13021,945.072917 Z"/>
    <filter id="icon-phone.inline-a" width="106%" height="106%" x="-3%" y="-3%" filterUnits="objectBoundingBox">
      <feOffset in="SourceAlpha" result="shadowOffsetOuter1"/>
      <feGaussianBlur in="shadowOffsetOuter1" result="shadowBlurOuter1" stdDeviation="2.5"/>
      <feColorMatrix in="shadowBlurOuter1" values="0 0 0 0 0   0 0 0 0 0   0 0 0 0 0  0 0 0 0.152917395 0"/>
    </filter>
  </defs>
  <g fill="none" fill-rule="evenodd" transform="translate(-1809 -832)">
    <use fill="#000" filter="url(#icon-phone.inline-a)" xlink:href="#icon-phone.inline-b"/>
    <use fill="#253240" xlink:href="#icon-phone.inline-b"/>
  </g>
</svg>
