<svg xmlns="http://www.w3.org/2000/svg" xmlns:xlink="http://www.w3.org/1999/xlink" width="239" height="143" viewBox="0 0 239 143">
  <defs>
    <radialGradient id="icon-development.inline-c" cx="50%" cy="86.28%" r="90.68%" fx="50%" fy="86.28%" gradientTransform="matrix(0 -1 .9 0 -.277 1.363)">
      <stop offset="0%" stop-color="#CC4F39"/>
      <stop offset="100%" stop-color="tomato"/>
    </radialGradient>
    <path id="icon-development.inline-b" d="M119.058754,39.5168512 C116.31687,37.0135792 110.435433,26 99.0822562,26 C87.729079,26 80.7508964,31.9061027 77.9306698,34.8005215 C74.9537651,37.6949403 72.7211198,40.9804308 71.2326675,44.6571056 C69.7442151,48.3337804 69,52.0690691 69,55.8631218 C69,59.6571369 69.7442151,63.3532996 71.2326675,66.9517601 C72.7211198,70.6284349 74.9537651,73.9139254 77.9306698,76.8083442 C103.103677,102.219034 115.951307,115.067795 116.473561,115.354628 C117.25694,115.784878 118.118684,116 119.058754,116 C119.842134,116 120.586369,115.823991 121.291422,115.471969 C121.761457,115.237287 134.726596,102.349412 160.186839,76.8083442 C163.163741,73.9139254 165.396371,70.6284349 166.884841,66.9517601 C168.294947,63.3532996 169,59.6571369 169,55.8631218 C169,52.0690691 168.294947,48.3337804 166.884841,44.6571056 C165.396371,40.9804308 163.163741,37.6558143 160.186839,34.6831812 C157.366627,31.8670143 152.070505,26 139.035253,26 C126,26 121.800639,37.0135792 119.058754,39.5168512 Z"/>
    <filter id="icon-development.inline-a" width="144%" height="148.9%" x="-22%" y="-22.2%" filterUnits="objectBoundingBox">
      <feOffset dy="2" in="SourceAlpha" result="shadowOffsetOuter1"/>
      <feGaussianBlur in="shadowOffsetOuter1" result="shadowBlurOuter1" stdDeviation="7"/>
      <feColorMatrix in="shadowBlurOuter1" values="0 0 0 0 0   0 0 0 0 0   0 0 0 0 0  0 0 0 0.253988199 0"/>
    </filter>
  </defs>
  <g fill="none" fill-rule="evenodd">
    <path fill="#FFF" d="M238.142857,64.2355303 C237.808688,64.2355303 235.330279,63.3155169 230.707629,61.4754366 C226.084926,59.6353028 223.773601,53.4181599 223.773601,42.8236869 C223.773601,34.459632 222.492638,27.4897022 219.93066,21.9136835 C217.368682,16.4491669 214.249791,12.0999398 210.573935,8.86584142 C206.898079,5.63174306 202.999479,3.34560054 198.878028,2.00736032 C194.868003,0.669120107 191.303572,0 188.184628,0 L181,0 L181,14.3860823 L188.184628,14.3860823 C201.254471,14.3860823 209.571429,29.2181733 209.571429,42.8236869 C209.571429,49.9610037 210.601791,55.84364 212.662516,60.4717564 C214.723188,65.0998193 217.25731,68.752091 220.264829,71.4285714 C217.25731,74.1050519 214.723188,77.7573235 212.662516,82.3853864 C210.601791,87.0135028 209.571429,92.8961392 209.571429,100.033456 C209.571429,113.638964 198.878028,128.471061 188.184628,128.471061 L181,128.471061 L181,142.857143 L188.184628,142.857143 C191.303572,142.857143 194.923662,142.188029 199.045113,140.849783 C203.055138,139.511536 206.898079,137.2254 210.573935,133.991301 C214.249791,130.757203 217.368682,126.407965 219.93066,120.943459 C222.492638,115.36743 223.773601,108.3975 223.773601,100.033456 C223.773601,89.9966062 225.889985,83.9188491 230.122807,81.7999331 C234.355629,79.6810171 237.028979,78.6216126 238.142857,78.6216126 L238.142857,64.2355303 Z M0,64.2355303 C0.334168755,64.2355303 2.81257811,63.3155169 7.43522807,61.4754366 C12.0579315,59.6353028 14.3692565,53.4181599 14.3692565,42.8236869 C14.3692565,34.459632 15.6502189,27.4897022 18.2121972,21.9136835 C20.7741754,16.4491669 23.893066,12.0999398 27.5689223,8.86584142 C31.2447786,5.63174306 35.1433784,3.34560054 39.2648287,2.00736032 C43.2748538,0.669120107 46.8392849,0 49.9582289,0 L57.1428571,0 L57.1428571,7.29637766 L57.1428571,14.3860823 L49.9582289,14.3860823 C36.8883859,14.3860823 28.5714286,29.2181733 28.5714286,42.8236869 C28.5714286,49.9610037 27.541066,55.84364 25.4803409,60.4717564 C23.4196692,65.0998193 20.8855472,68.752091 17.8780284,71.4285714 C20.8855472,74.1050519 23.4196692,77.7573235 25.4803409,82.3853864 C27.541066,87.0135028 28.5714286,92.8961392 28.5714286,100.033456 C28.5714286,113.638964 39.2648287,128.471061 49.9582289,128.471061 L57.1428571,128.471061 L57.1428571,142.857143 L49.9582289,142.857143 C46.8392849,142.857143 43.2191947,142.188029 39.0977444,140.849783 C35.0877193,139.511536 31.2447786,137.2254 27.5689223,133.991301 C23.893066,130.757203 20.7741754,126.407965 18.2121972,120.943459 C15.6502189,115.36743 14.3692565,108.3975 14.3692565,100.033456 C14.3692565,89.9966062 12.2528722,83.9188491 8.02005013,81.7999331 C3.78722807,79.6810171 1.11387803,78.6216126 0,78.6216126 L0,64.2355303 Z"/>
    <use fill="#000" filter="url(#icon-development.inline-a)" xlink:href="#icon-development.inline-b"/>
    <use fill="url(#icon-development.inline-c)" xlink:href="#icon-development.inline-b"/>
  </g>
</svg>
