<svg xmlns="http://www.w3.org/2000/svg" width="283" height="306" viewBox="0 0 283 306">
  <g fill="none" fill-rule="evenodd" transform="translate(0 5)">
    <g fill-rule="nonzero" transform="translate(0 27)">
      <path fill="#FAC036" d="M80.7769828,159.12885 C78.0933621,161.644602 75.3853448,158.640354 75.3853448,158.640354 C75.3853448,158.640354 30.3005172,110.816637 27.372931,108.667257 C23.2499138,105.663009 14.4183621,100.949027 5.58681034,110.059469 C1.90293103,113.84531 -4.09862069,122.271858 7.05060345,135.852035 C9.46586207,138.783009 79.7035345,212.887788 83.8021552,216.893451 C83.8021552,216.893451 116.249569,248.499115 135.888793,260.393982 C141.329224,263.691327 147.452759,267.184071 154.600948,269.626549 C161.724741,272.069027 169.775603,273.754336 178.265603,273.754336 C186.755603,273.852035 195.562759,272.215575 203.881983,269.162478 C212.201207,266.084956 219.95931,261.615221 227.009914,256.461593 C228.742069,255.142655 230.498621,253.823717 232.13319,252.40708 L236.866121,248.499115 C240.159655,245.739115 243.233621,242.832566 246.185603,239.877168 C252.113966,233.966372 257.45681,227.640354 262.165345,221.167788 C266.849483,214.670796 270.826121,207.953982 273.997672,201.261593 C277.169224,194.569204 279.38931,187.852389 280.731121,181.501947 C282.146121,175.175929 282.536466,169.191858 282.316897,163.964956 C282.268103,158.738053 281.219052,154.268319 280.365172,150.702301 C279.38931,147.136283 278.340259,144.473982 277.510776,142.715398 C276.70569,140.956814 276.266552,140.028673 276.266552,140.028673 L276.266552,140.028673 C275.14431,136.877876 274.070862,133.873628 273.119397,131.162478 C270.435776,123.517522 267.337414,114.944425 264.117069,106.12708 C262.750862,102.390088 262.116552,100.704779 262.116552,100.704779 L262.140948,100.778053 C250.308621,68.6106195 237.598017,35.4661947 237.598017,35.4661947 C235.67069,29.6286726 228.571293,27.6014159 223.350431,31.3628319 C208.273362,42.2074336 203.662414,58.0346903 208.980862,74.9122124 L222.618534,112.330973 C224.545862,116.507611 219.227414,121.343717 215.665517,118.437168 C204.4675,109.302301 180.778448,84.120354 180.778448,84.120354 C170.190345,73.959646 110.44319,12.6290265 106.442155,8.8920354 C98.3912931,1.39362832 88.2423276,-2.46548673 80.5086207,3.22548673 C72.6041379,9.03858407 70.4084483,18.0269027 78.044569,27.8456637 C80.1182759,30.5079646 140.499741,94.3787611 140.499741,94.3787611 C144.012845,98.0669027 139.865431,103.293805 135.986379,99.7033628 C135.986379,99.7033628 60.8693966,21.2509735 57.4782759,17.5872566 C49.7933621,9.2339823 37.4487069,7.40212389 30.1297414,14.2899115 C22.9815517,21.0067257 23.1523276,32.0223009 30.9592241,40.6686726 C33.4476724,43.4042478 86.3637931,99.3369912 107.54,122.247434 C108.955,123.786195 110.052845,125.837876 107.954741,127.767434 C107.930345,127.791858 105.807845,130.087788 103.075431,127.156814 C97.3178448,121.00177 39.8151724,61.0145133 36.6192241,57.7660177 C29.2758621,50.2920354 19.4196552,46.7504425 11.4907759,54.0290265 C4.26939655,60.6481416 3.09836207,72.2010619 11.3931897,80.3589381 L81.0453448,154.07292 C81.0453448,154.07292 83.3142241,156.759646 80.7769828,159.12885 Z"/>
      <path fill="#E48C15" d="M193.855,97.6761062 L199.734569,103.977699 C199.734569,103.977699 166.091724,136.48708 189.024483,186.411327 C189.024483,186.411327 192.000862,192.737345 188.097414,193.787611 C188.097414,193.787611 184.681897,195.692743 180.778448,185.971681 C180.778448,185.947257 157.626121,138.538761 193.855,97.6761062 Z"/>
    </g>
    <path stroke="#444" stroke-linecap="round" stroke-width="10" d="M140 17C140 17 154.022036 19.1311806 167.006296 33.0807265 179.990556 47.0544904 186 65 186 65M175 0C175 0 186.717293 6.02552204 195.76391 20.9048724 204.810526 35.7842227 207 53 207 53M73 261.979232C73 261.979232 58.6510713 262.923691 42.7595103 252.074513 26.8679493 241.225334 17 225 17 225M62 285.992263C62 285.992263 48.7197107 286.551276 33.4864376 278.166081 18.2531646 269.780886 8 256 8 256"/>
  </g>
</svg>
