<?xml version="1.0" encoding="UTF-8"?>
<svg width="235px" height="251px" viewBox="0 0 235 251" version="1.1" xmlns="http://www.w3.org/2000/svg" xmlns:xlink="http://www.w3.org/1999/xlink">
    <title>noun_design_1355139 copy</title>
    <defs>
        <filter x="-4.2%" y="-4.2%" width="108.4%" height="108.4%" filterUnits="objectBoundingBox" id="filter-1">
            <feOffset dx="0" dy="0" in="SourceAlpha" result="shadowOffsetOuter1"></feOffset>
            <feGaussianBlur stdDeviation="2.5" in="shadowOffsetOuter1" result="shadowBlurOuter1"></feGaussianBlur>
            <feColorMatrix values="0 0 0 0 0   0 0 0 0 0   0 0 0 0 0  0 0 0 0.15 0" type="matrix" in="shadowBlurOuter1" result="shadowMatrixOuter1"></feColorMatrix>
            <feMerge>
                <feMergeNode in="shadowMatrixOuter1"></feMergeNode>
                <feMergeNode in="SourceGraphic"></feMergeNode>
            </feMerge>
        </filter>
    </defs>
    <g id="Welcome" stroke="none" stroke-width="1" fill="none" fill-rule="evenodd">
        <g id="Artboard" transform="translate(-71.000000, -54.000000)">
            <g id="noun_design_1355139-copy" filter="url(#filter-1)" transform="translate(62.000000, 55.000000)">
                <g id="background">
                    <rect id="Rectangle" x="0" y="0" width="250" height="250"></rect>
                </g>
                <g id="Layer-1" transform="translate(14.492754, 3.623188)" fill="#FFFFFF" fill-rule="nonzero">
                    <path d="M97.7352197,0.284526854 L137.635151,69.1755914 L137.635151,69.1755914 L132.99977,69.1755914 L132.99977,69.1755914 L96.8081435,48.3339994 C96.415919,48.1206042 96.0236945,48.0139066 95.6671268,48.0139066 C95.0253048,48.0139066 94.4191396,48.3695652 93.884288,49.0808824 L83.0089717,67.8952206 L83.0089717,67.8952206 L57.5143777,23.7935582 L57.3717506,23.5445972 L97.7352197,0.284526854 L97.7352197,0.284526854 Z" id="Path"></path>
                    <path d="M169.512307,24.7894022 L209.911433,48.0494725 L170.011502,116.976103 L170.011502,116.976103 L167.693812,112.957161 L167.693812,71.273977 C167.658155,69.9936061 166.94502,69.282289 165.590062,69.1400256 L143.839429,69.1400256 L143.839429,69.1400256 L169.36968,25.0027973 L169.512307,24.7894022 Z" id="Path"></path>
                    <path d="M79.9781458,73.2300991 L77.6604555,77.2490409 L77.6604555,77.2490409 L41.4688291,98.090633 C40.3634691,98.7663843 40.1138716,99.7266624 40.68438,100.971467 L51.5596963,119.785806 L51.5596963,119.785806 L0.463538072,119.785806 L0.178283874,119.785806 L0.178283874,73.265665 L79.9781458,73.2300991 L79.9781458,73.2300991 Z" id="Path"></path>
                    <path d="M54.626179,125.085118 L56.9438693,129.10406 L56.9438693,129.10406 L56.9438693,170.787244 C56.9795261,172.067615 57.6926616,172.778932 59.047619,172.921196 L80.7982517,172.921196 L80.7982517,172.921196 L55.2680009,217.022858 L55.1253738,217.271819 L14.7619048,194.011749 L54.626179,125.085118 L54.626179,125.085118 Z" id="Path"></path>
                    <path d="M91.6379112,172.88563 L127.829538,193.727222 C128.221762,193.940617 128.613987,194.047315 128.970554,194.047315 C129.612376,194.047315 130.218542,193.691656 130.753393,192.980339 L141.628709,174.166001 L167.194617,218.303229 L167.337244,218.55219 L126.938118,241.81226 L87.0025305,172.88563 L87.0025305,172.88563 L91.6379112,172.88563 L91.6379112,172.88563 Z" id="Path"></path>
                    <path d="M224.459397,122.310981 L224.459397,168.831122 L144.659535,168.831122 L144.659535,168.831122 L146.977226,164.81218 L146.977226,164.81218 L183.168852,143.970588 C184.274212,143.294837 184.52381,142.334559 183.953301,141.089754 L173.077985,122.275416 L173.077985,122.275416 L224.174143,122.275416 L224.459397,122.310981 L224.459397,122.310981 Z" id="Path"></path>
                    <path d="M91.9231654,73.2300991 L131.930067,73.2300991 L131.930067,73.2300991 L135.567058,75.3284847 L112.318841,115.482337 L112.318841,115.482337 L88.1078905,73.6568894 L88.0365769,73.5501918 C87.9652634,73.4079284 87.8582931,73.3012308 87.7513228,73.1945332 L87.7513228,73.1945332 L91.9231654,73.2300991 L91.9231654,73.2300991 Z" id="Path"></path>
                    <path d="M84.2569588,78.1026215 L107.505176,118.256474 L58.9763055,118.256474 C58.8336784,118.256474 58.6910513,118.29204 58.5484242,118.327605 L58.5484242,118.327605 L60.6165171,114.735454 L80.6199678,80.201007 L80.6199678,80.201007 L84.2569588,78.1026215 L84.2569588,78.1026215 Z" id="Path"></path>
                    <path d="M107.505176,123.804747 L83.2942259,165.630195 L83.2229124,165.736893 C83.1515988,165.879156 83.115942,166.021419 83.0446285,166.163683 L83.0446285,166.163683 L80.9765355,162.571531 L60.9730849,128.037084 L60.9730849,128.037084 L60.9730849,123.840313 L107.505176,123.840313 L107.505176,123.804747 Z" id="Path"></path>
                    <path d="M112.318841,126.578884 L136.529791,168.404332 L136.601104,168.511029 C136.672418,168.653293 136.779388,168.75999 136.886358,168.866688 L136.886358,168.866688 L132.750173,168.866688 L92.7432712,168.866688 L92.7432712,168.866688 L89.1062802,166.768302 L89.1062802,166.768302 L112.318841,126.578884 L112.318841,126.578884 Z" id="Path"></path>
                    <path d="M166.089257,123.733616 L164.021164,127.325767 L144.017713,161.860214 L144.017713,161.860214 L140.380722,163.9586 L140.380722,163.9586 L117.132505,123.804747 L165.661376,123.804747 C165.804003,123.804747 165.94663,123.769182 166.089257,123.733616 L166.089257,123.733616 L166.089257,123.733616 Z" id="Path"></path>
                    <path d="M141.557396,75.9331042 L143.625489,79.5252558 L163.628939,114.059703 L163.628939,118.256474 L117.132505,118.256474 L141.343455,76.4310262 L141.414769,76.3243286 C141.450426,76.2176311 141.521739,76.0753676 141.557396,75.9331042 L141.557396,75.9331042 Z" id="Path"></path>
                </g>
            </g>
        </g>
    </g>
</svg>