<svg xmlns="http://www.w3.org/2000/svg" xmlns:xlink="http://www.w3.org/1999/xlink" width="260" height="260" viewBox="0 0 260 260">
  <defs>
    <path id="icon-phone.inline-b" d="M3918.13021,945.072917 C3938.96365,985.437698 3969.5623,1016.03635 4009.92708,1036.86979 L4040.52604,1006.27083 C4044.86635,1001.93053 4049.64062,1000.84548 4054.84896,1003.01562 C4070.47406,1008.22399 4086.96688,1010.82812 4104.32812,1010.82812 C4108.23438,1010.82812 4111.48958,1012.1302 4114.09375,1014.73438 C4116.69792,1017.33855 4118,1020.59373 4118,1024.5 L4118,1073.32812 C4118,1077.23439 4116.69792,1080.48957 4114.09375,1083.09375 C4111.48958,1085.69793 4108.23438,1087 4104.32812,1087 C4039.22365,1087 3983.5601,1063.88825 3937.33594,1017.66406 C3891.11175,971.439896 3868,915.776354 3868,850.671875 C3868,846.765625 3869.30207,843.510417 3871.90625,840.90625 C3874.51043,838.302083 3877.76561,837 3881.67188,837 L3930.5,837 C3934.40627,837 3937.66145,838.302083 3940.26562,840.90625 C3942.8698,843.510417 3944.17188,846.765625 3944.17188,850.671875 C3944.17188,868.033125 3946.77601,884.525937 3951.98438,900.151042 C3953.72049,905.793437 3952.63544,910.567708 3948.72917,914.473958 L3918.13021,945.072917 Z"/>
    <filter id="icon-phone.inline-a" width="106%" height="106%" x="-3%" y="-3%" filterUnits="objectBoundingBox">
      <feOffset in="SourceAlpha" result="shadowOffsetOuter1"/>
      <feGaussianBlur in="shadowOffsetOuter1" result="shadowBlurOuter1" stdDeviation="2.5"/>
      <feColorMatrix in="shadowBlurOuter1" values="0 0 0 0 0   0 0 0 0 0   0 0 0 0 0  0 0 0 0.152917395 0"/>
    </filter>
  </defs>
  <g fill="none" fill-rule="evenodd" transform="translate(-3863 -832)">
    <use fill="#000" filter="url(#icon-phone.inline-a)" xlink:href="#icon-phone.inline-b"/>
    <use fill="#B42A76" xlink:href="#icon-phone.inline-b"/>
  </g>
</svg>
