<svg xmlns="http://www.w3.org/2000/svg" width="207" height="207" viewBox="0 0 207 207">
  <g fill="none" fill-rule="evenodd">
    <path fill="#253240" fill-rule="nonzero" d="M158,187 L143,187 L143,197 L158,197 L158,187 Z M127,187 L112,187 L112,197 L127,197 L127,187 Z M96,187 L81,187 L81,197 L96,197 L96,187 Z M65,187 L50,187 L50,197 L65,197 L65,187 Z M197,141 L187,141 L187,156 L197,156 L197,141 Z M20,141 L10,141 L10,156 L20,156 L20,141 Z M197,110 L187,109.999 L187,125 L197,125 L197,110 Z M20,110 L10,110 L10,125 L20,125 L20,110 Z M197,79 L187,79 L187,94 L197,94 L197,79 Z M20,79 L10,79 L10,94 L20,94 L20,79 Z M197,50 L187,50 L187,65 L197,65 L197,50 Z M20,50 L10,50 L10,65 L20,65 L20,50 Z M65,10 L50,10 L50,20 L65,20 L65,10 Z M96,10 L81,10 L81,20 L96,20 L96,10 Z M127,10 L112,10 L112,20 L127,20 L127,10 Z M158,10 L143,10 L143,20 L158,20 L158,10 Z"/>
    <rect width="167" height="167" x="20" y="20" fill="#FFF"/>
    <rect width="40" height="40" x="167" y="167" fill="#253240" rx="6"/>
    <path fill="#6FC1DF" fill-rule="nonzero" d="M127.844371,154 C127.844371,152.304985 127.746137,150.609971 127.549669,148.914956 C127.353201,147.219941 127.058499,145.8739 126.665563,144.876833 C123.030905,144.677419 120.280353,144.178886 118.413907,143.381232 C116.547461,142.583578 115.294978,141.112903 114.656457,138.969208 C114.017936,136.825513 113.698675,133.809384 113.698675,129.920821 L113.698675,129.920821 L113.698675,61.4222874 L118.85596,61.4222874 C123.898639,61.4222874 127.679119,62.76855 130.197403,65.4610753 L130.717715,66.058651 C133.222682,69.1495601 134.818985,73.8357771 135.506623,80.1173021 C137.864238,80.2170088 140.000828,80.0923754 141.916391,79.7434018 C143.831954,79.3944282 145.52649,78.9208211 147,78.3225806 C146.312362,73.6363636 145.772075,69.0498534 145.379139,64.5630499 C144.986203,60.0762463 144.789735,55.888563 144.789735,52 C141.449779,52.0997067 137.692329,52.1744868 133.517384,52.2243402 C129.342439,52.2741935 124.75,52.3240469 119.740066,52.3739003 C114.730132,52.4237537 109.179912,52.4486804 103.089404,52.4486804 L83.3341382,52.4445259 C79.3297385,52.4306777 75.6493745,52.3822092 72.2930464,52.2991202 C68.2654525,52.1994135 64.5325607,52.0997067 61.0943709,52 C61.0943709,55.7888563 60.8242274,60.101173 60.2839404,64.9369501 C59.7436534,69.7727273 58.98234,74.2346041 58,78.3225806 C59.4735099,79.1202346 61.2417219,79.6187683 63.3046358,79.8181818 C65.3675497,80.0175953 67.3813466,80.1173021 69.3460265,80.1173021 C70.2301325,76.1290323 71.3107064,72.7639296 72.5877483,70.0219941 C73.8647903,67.2800587 75.7066777,65.1612903 78.1134106,63.6656891 C80.5201435,62.170088 83.7864238,61.4222874 87.9122517,61.4222874 L87.9122517,61.4222874 L91.5919334,61.4222874 L91.5960265,129.920821 C91.5960265,133.377322 91.3049628,136.144492 90.7228354,138.222331 L90.490894,138.969208 C89.7541391,141.112903 88.3788631,142.583578 86.3650662,143.381232 C84.3512693,144.178886 81.5270419,144.677419 77.8923841,144.876833 C77.4994481,145.973607 77.1801876,147.369501 76.9346026,149.064516 C76.6890177,150.759531 76.5662252,152.404692 76.5662252,154 C78.6291391,153.900293 81.134106,153.825513 84.0811258,153.77566 C87.0281457,153.725806 90.2207506,153.675953 93.6589404,153.6261 C97.0971302,153.576246 100.387969,153.55132 103.531457,153.55132 C108.344923,153.55132 112.863687,153.576246 117.087748,153.6261 C121.31181,153.675953 124.897351,153.800587 127.844371,154 Z"/>
    <rect width="40" height="40" x="167" fill="#253240" rx="6"/>
    <rect width="40" height="40" y="167" fill="#253240" rx="6"/>
    <rect width="40" height="40" fill="#253240" rx="6"/>
  </g>
</svg>
