<?xml version="1.0" encoding="UTF-8"?>
<svg width="33px" height="33px" viewBox="0 0 33 33" version="1.1" xmlns="http://www.w3.org/2000/svg" xmlns:xlink="http://www.w3.org/1999/xlink">
    <title>forum-24px</title>
    <g id="Welcome" stroke="none" stroke-width="1" fill="none" fill-rule="evenodd">
        <g id="Desktop-HD" transform="translate(-977.000000, -346.000000)" fill-rule="nonzero">
            <g id="forum-24px" transform="translate(977.000000, 346.000000)">
                <path d="M29.7,6.6 L28.05,6.6 L28.05,19.8 C28.05,20.7075 27.3075,21.45 26.4,21.45 L6.6,21.45 L6.6,23.1 C6.6,24.915 8.085,26.4 9.9,26.4 L26.4,26.4 L33,33 L33,9.9 C33,8.085 31.515,6.6 29.7,6.6 Z" id="Path" fill="#FFFFFF"></path>
                <path d="M24.75,14.85 L24.75,3.3 C24.75,1.485 23.265,0 21.45,0 L3.3,0 C1.485,0 0,1.485 0,3.3 L0,24.75 L6.6,18.15 L21.45,18.15 C23.265,18.15 24.75,16.665 24.75,14.85 Z" id="Path" fill="#253240"></path>
                <path d="M20.6425532,6.18181818 L13.3148936,13.6363636 C13.0765957,13.8787879 12.7787234,14 12.4212766,14 C12.0638298,14 11.7659574,13.8787879 11.5276596,13.6363636 L7.35744681,9.39393939 C6.88085106,8.90909091 6.88085106,8.12121212 7.35744681,7.57575758 C7.83404255,7.09090909 8.60851064,7.09090909 9.14468085,7.57575758 L12.4212766,10.9090909 L18.8553191,4.36363636 C19.3319149,3.87878788 20.106383,3.87878788 20.6425532,4.36363636 C21.1191489,4.84848485 21.1191489,5.6969697 20.6425532,6.18181818 Z" id="Path-Copy" fill="#FFFFFF"></path>
            </g>
        </g>
    </g>
</svg>