<svg xmlns="http://www.w3.org/2000/svg" width="201" height="201" viewBox="0 0 201 201">
  <g fill="none">
    <path fill="#FFF" d="M180.875,40 L170.8125,40 L170.8125,120.5 C170.8125,126.034375 166.284375,130.5625 160.75,130.5625 L40,130.5625 L40,140.625 C40,151.69375 49.05625,160.75 60.125,160.75 L160.75,160.75 L201,201 L201,60.125 C201,49.05625 191.94375,40 180.875,40 Z"/>
    <path fill="#253240" d="M151,90.6 L151,20.1333333 C151,9.06 141.94,0 130.866667,0 L20.1333333,0 C9.06,0 0,9.06 0,20.1333333 L0,151 L40.2666667,110.733333 L130.866667,110.733333 C141.94,110.733333 151,101.673333 151,90.6 Z"/>
    <path fill="#FFF" d="M125.804256,38.3090909 L80.7914893,83.781818 C79.3276594,85.2606062 77.4978724,86 75.3021278,86 C73.1063831,86 71.2765955,85.2606062 69.8127662,83.781818 L44.1957447,57.9030303 C41.2680851,54.9454546 41.2680851,50.1393939 44.1957447,46.8121212 C47.1234043,43.8545454 51.8808511,43.8545454 55.1744681,46.8121212 L75.3021278,67.1454545 L114.825532,27.2181818 C117.753192,24.2606061 122.510639,24.2606061 125.804256,27.2181818 C128.731915,30.1757576 128.731915,35.3515152 125.804256,38.3090909 Z"/>
  </g>
</svg>
