<?xml version="1.0" encoding="UTF-8"?>
<svg width="237px" height="165px" viewBox="0 0 237 165" version="1.1" xmlns="http://www.w3.org/2000/svg" xmlns:xlink="http://www.w3.org/1999/xlink">
    <title>Group 4</title>
    <g id="Welcome" stroke="none" stroke-width="1" fill="none" fill-rule="evenodd">
        <g id="Artboard" transform="translate(-490.000000, -787.000000)">
            <g id="Group-4" transform="translate(490.000000, 787.000000)">
                <path d="M48.8,164.96 C49.9733333,163.253333 50.6933333,161.493333 50.96,159.68 C51.2266667,157.866667 51.1466667,156.053333 50.72,154.24 C45.1733333,152.533333 41.44,149.92 39.52,146.4 C37.6,142.88 36.6933333,138.826667 36.8,134.24 C36.9066667,129.546667 37.4933333,124.506667 38.56,119.12 C39.6266667,113.733333 40.1066667,108.586667 40,103.68 C40,100.053333 39.3866667,96.6933333 38.16,93.6 C36.9333333,90.5066667 34.7466667,87.84 31.6,85.6 C28.4533333,83.36 23.9466667,81.76 18.08,80.8 C23.9466667,79.84 28.4533333,78.32 31.6,76.24 C34.7466667,74.16 36.9066667,71.6 38.08,68.56 C39.2533333,65.52 39.84,62.2933333 39.84,58.88 C39.84,54.08 39.2533333,49.04 38.08,43.76 C36.9066667,38.48 36.2666667,33.4933333 36.16,28.8 C36.0533333,24.5333333 36.9333333,20.6666667 38.8,17.2 C40.6666667,13.7333333 44.32,11.1466667 49.76,9.44 C49.76,7.73333333 49.5733333,6 49.2,4.24 C48.8266667,2.48 48.0533333,1.06666667 46.88,8.52651283e-14 C40.0533333,1.6 34.5333333,3.52 30.32,5.76 C26.1066667,8 22.9066667,10.48 20.72,13.2 C18.5333333,15.92 17.04,18.8266667 16.24,21.92 C15.44,25.0133333 14.9866667,28.2666667 14.88,31.68 C14.7733333,35.7333333 15.0133333,39.84 15.6,44 C16.1866667,48.16 16.4266667,52.1066667 16.32,55.84 C16.2133333,60.4266667 15.1466667,64.56 13.12,68.24 C11.0933333,71.92 6.98666667,74.7733333 0.8,76.8 C0.373333333,77.76 0.133333333,79.2 0.08,81.12 C0.0266666667,83.04 -7.46069873e-14,84.48 -7.46069873e-14,85.44 C6.50666667,87.4666667 10.7733333,90.48 12.8,94.48 C14.8266667,98.48 15.8933333,102.986667 16,108 C16.1066667,111.626667 15.9466667,115.386667 15.52,119.28 C15.0933333,123.173333 14.9333333,127.04 15.04,130.88 C15.1466667,134.506667 15.6533333,138.053333 16.56,141.52 C17.4666667,144.986667 19.12,148.266667 21.52,151.36 C23.92,154.453333 27.3066667,157.173333 31.68,159.52 C36.0533333,161.866667 41.76,163.68 48.8,164.96 Z M187.453333,164.96 C194.386667,163.68 200.066667,161.866667 204.493333,159.52 C208.92,157.173333 212.306667,154.453333 214.653333,151.36 C217,148.266667 218.653333,144.986667 219.613333,141.52 C220.573333,138.053333 221.053333,134.506667 221.053333,130.88 C221.16,127.04 221,123.173333 220.573333,119.28 C220.146667,115.386667 219.986667,111.626667 220.093333,108 C220.306667,102.986667 221.4,98.48 223.373333,94.48 C225.346667,90.48 229.586667,87.4666667 236.093333,85.44 C236.093333,84.48 236.066667,83.04 236.013333,81.12 C235.96,79.2 235.72,77.76 235.293333,76.8 C229.106667,74.7733333 225.026667,71.92 223.053333,68.24 C221.08,64.56 219.986667,60.4266667 219.773333,55.84 C219.666667,52.1066667 219.906667,48.16 220.493333,44 C221.08,39.84 221.32,35.7333333 221.213333,31.68 C221.213333,28.2666667 220.786667,25.0133333 219.933333,21.92 C219.08,18.8266667 217.56,15.92 215.373333,13.2 C213.186667,10.48 209.986667,8 205.773333,5.76 C201.56,3.52 196.093333,1.6 189.373333,2.84217094e-14 C188.2,1.06666667 187.426667,2.48 187.053333,4.24 C186.68,6 186.493333,7.73333333 186.493333,9.44 C191.933333,11.1466667 195.56,13.7333333 197.373333,17.2 C199.186667,20.6666667 200.04,24.5333333 199.933333,28.8 C199.933333,33.4933333 199.346667,38.48 198.173333,43.76 C197,49.04 196.36,54.08 196.253333,58.88 C196.253333,62.2933333 196.84,65.52 198.013333,68.56 C199.186667,71.6 201.346667,74.16 204.493333,76.24 C207.64,78.32 212.146667,79.84 218.013333,80.8 C212.253333,81.76 207.8,83.36 204.653333,85.6 C201.506667,87.84 199.32,90.5066667 198.093333,93.6 C196.866667,96.6933333 196.2,100.053333 196.093333,103.68 C196.093333,108.586667 196.626667,113.733333 197.693333,119.12 C198.76,124.506667 199.293333,129.546667 199.293333,134.24 C199.4,138.826667 198.546667,142.88 196.733333,146.4 C194.92,149.92 191.186667,152.533333 185.533333,154.24 C185,156.053333 184.866667,157.866667 185.133333,159.68 C185.4,161.493333 186.173333,163.253333 187.453333,164.96 Z" id="{}" fill="#253240" fill-rule="nonzero"></path>
                <path d="M119.846567,50.5617433 C117.006758,47.9790024 113.801871,46.0016271 110.231828,44.62954 C106.661782,43.2574528 102.970084,42.5714286 99.1566225,42.5714286 C95.0186141,42.5714286 91.0632224,43.3381501 87.2903307,44.8716707 C83.517439,46.4051913 80.1705712,48.6650266 77.2496223,51.6513317 C74.1663995,54.6376368 71.8540169,58.0274286 70.3124056,61.8208232 C68.7707942,65.6142179 68,69.4680872 68,73.382586 C68,77.297046 68.7707942,81.1105472 70.3124056,84.8232446 C71.8540169,88.6166392 74.1663995,92.006431 77.2496223,94.9927361 L115.343461,132.886199 C115.74916,133.693305 116.357687,134.318803 117.169045,134.762712 C117.980402,135.20662 118.872923,135.428571 119.846567,135.428571 C120.657924,135.428571 121.428739,135.246975 122.158973,134.883777 C122.889206,134.520579 123.497734,134.016145 123.984556,133.37046 L162.443512,94.9927361 C165.526732,92.006431 167.839099,88.6166392 169.380729,84.8232446 C170.841195,81.1105472 171.571429,77.297046 171.571429,73.382586 C171.571429,69.4680872 170.841195,65.6142179 169.380729,61.8208232 C167.839099,58.0274286 165.526732,54.5972688 162.443512,51.5302663 C159.522578,48.6246973 156.175695,46.4051913 152.402784,44.8716707 C148.629912,43.3381501 144.67454,42.5714286 140.536512,42.5714286 C136.723058,42.5714286 133.031349,43.2574528 129.461306,44.62954 C125.891263,46.0016271 122.686376,47.9790024 119.846567,50.5617433 Z M154.817227,59.4646565 C158.84385,63.5839644 160.857143,68.4858725 160.857143,74.1705388 C160.857143,79.8552051 158.84385,84.7571132 154.817227,88.8764212 L119.785714,124.714286 L84.7542017,88.8764212 C80.7275704,84.7571132 78.7142857,79.8552051 78.7142857,74.1705388 C78.7142857,68.4858725 80.7275704,63.5839644 84.7542017,59.4646565 C86.6869864,57.487395 88.9015965,55.9632427 91.3981092,54.8922392 C93.894622,53.8212358 96.5118906,53.2857143 99.25,53.2857143 C101.907575,53.2857143 104.464448,53.8212358 106.920693,54.8922392 C109.376919,55.9632427 111.611669,57.487395 113.625,59.4646565 L116.161765,62.0598122 C117.128151,63.1308156 118.336134,63.6663371 119.785714,63.6663371 C121.235294,63.6663371 122.443277,63.1308156 123.409664,62.0598122 L125.946429,59.4646565 C129.892533,55.5100939 134.704287,53.532872 140.381847,53.532872 C146.059368,53.532872 150.871123,55.5100939 154.817227,59.4646565 Z" id="Fill-1" fill="#CB3429"></path>
                <path d="M154.817227,59.4646565 C158.84385,63.5839644 160.857143,68.4858725 160.857143,74.1705388 C160.857143,79.8552051 158.84385,84.7571132 154.817227,88.8764212 L119.785714,124.714286 L84.7542017,88.8764212 C80.7275704,84.7571132 78.7142857,79.8552051 78.7142857,74.1705388 C78.7142857,68.4858725 80.7275704,63.5839644 84.7542017,59.4646565 C86.6869864,57.487395 88.9015965,55.9632427 91.3981092,54.8922392 C93.894622,53.8212358 96.5118906,53.2857143 99.25,53.2857143 C101.907575,53.2857143 104.464448,53.8212358 106.920693,54.8922392 C109.376919,55.9632427 111.611669,57.487395 113.625,59.4646565 L116.161765,62.0598122 C117.128151,63.1308156 118.336134,63.6663371 119.785714,63.6663371 C121.235294,63.6663371 122.443277,63.1308156 123.409664,62.0598122 L125.946429,59.4646565 C129.892533,55.5100939 134.704287,53.532872 140.381847,53.532872 C146.059368,53.532872 150.871123,55.5100939 154.817227,59.4646565 Z" id="Path" fill="#FFFFFF"></path>
            </g>
        </g>
    </g>
</svg>