<svg xmlns="http://www.w3.org/2000/svg" xmlns:xlink="http://www.w3.org/1999/xlink" width="625" height="744" viewBox="0 0 625 744">
  <defs>
    <rect id="pkoenders-amin.inline-a" width="625" height="744" x="0" y="0"/>
    <polygon id="pkoenders-amin.inline-c" points="0 0 621 0 621 737 0 737"/>
    <path id="pkoenders-amin.inline-f" d="M6.48780217,743.801704 C10.0367059,737.315264 14.1032407,731.125893 18.6478007,725.293867 C26.3963224,716.950478 34.6507568,709.091836 43.3643196,701.762474 L44.2234498,701.035379 L61.8686652,602.348949 C69.3364904,602.348949 90.8147486,601.291357 93.7225743,601.291357 C99.1363671,601.762956 104.51975,602.535306 109.84779,603.604837 L112.491268,604.067533 L113.350398,601.555757 C113.879094,600.167668 125.44431,567.580654 126.237353,551.386296 C126.699962,542.991672 129.409527,521.77376 131.788657,503.067623 C134.167787,484.361487 135.819961,472.000897 135.819961,468.695925 C135.819961,461.689387 136.546917,449.923691 136.546917,449.85759 L136.546917,448.866099 L136.150395,448.072906 C129.400077,434.975118 125.460811,420.610967 124.585179,405.901478 L124.585179,392.681595 C125.264278,383.781447 124.369426,374.831238 121.941701,366.241828 C116.853006,345.883206 114.672137,321.095926 121.941701,314.552083 C127.632433,309.27156 134.040006,304.821017 140.974743,301.332199 L142.75909,300.472907 L142.75909,298.556024 C142.83149,289.86363 143.805989,281.202241 145.666916,272.711151 C147.957246,261.05386 149.261569,249.224296 149.566046,237.347963 C150.226916,226.838155 150.953872,216.06395 151.614741,213.221675 C152.539959,209.057412 153.663437,194.51554 154.786915,180.171966 C155.646045,169.860457 156.439089,159.152351 156.967784,156.376176 C157.688349,153.168017 158.683316,150.027751 159.941697,146.990058 C161.849151,142.306908 163.24508,137.431319 164.105175,132.448187 C166.563786,122.734831 170.367529,113.412791 175.406043,104.75253 C176.99213,102.769548 185.517346,94.7715184 190.936476,89.814062 C192.390389,88.7564714 202.832127,81.5516346 207.061691,79.4364534 C210.07837,77.452244 212.737395,74.9715087 214.926038,72.0994178 C218.026683,68.1353386 221.80868,64.7555199 226.094733,62.1184059 C230.25821,60.0032244 235.016471,57.0287506 239.312122,54.384774 C242.103964,52.4602521 245.04289,50.7584476 248.101687,49.2951187 C253.250416,46.9366236 258.144314,44.0573168 262.706902,40.7021945 C271.668794,34.6404293 281.105897,29.3130968 290.926029,24.7722347 C294.021226,24.2571692 296.427029,21.79744 296.873855,18.6910882 C296.873855,17.1708016 297.600811,15.3200179 308.637332,15.3200179 L340.755589,15.3200179 C344.577834,15.2553994 348.394071,14.9906392 352.188631,14.5268249 C356.902633,13.9311953 361.646299,13.6001796 366.397325,13.5353336 C373.336453,13.5353336 381.002542,13.0065383 386.223411,12.6099418 L390.915583,12.6099418 C392.832104,12.6099418 404.132972,14.2624273 413.51732,16.113211 C416.979911,16.7715904 420.545015,16.6587494 423.959058,15.7827139 C427.394483,14.6169731 431.184595,15.2363891 434.07036,17.4351993 C439.10018,21.0804224 445.055399,23.2338691 451.252967,23.6485446 L454.094704,23.6485446 C459.328789,24.048234 464.462756,25.298479 469.294702,27.350112 C471.409957,29.2835976 474.238222,30.2425128 477.092965,29.9940887 L482.313833,29.9940887 C489.483197,30.9838815 496.513439,32.8027736 503.263396,35.414241 C509.053173,37.4460648 514.704548,39.8527675 520.181654,42.6190774 C521.893281,43.6126572 523.711047,44.4108512 525.600784,44.9986566 C530.436979,46.6659811 534.919535,49.2215201 538.818173,52.5339902 C540.825053,54.3204603 543.044734,55.8523295 545.426869,57.09485 C548.34219,58.4744942 550.915281,60.4836903 552.960782,62.9776982 C558.092056,69.1339593 562.837364,75.6020402 567.169476,82.3448278 C567.169476,84.5261084 569.548604,85.6497987 573.778169,87.632781 C578.007733,89.6157637 584.352083,93.1190329 585.541645,96.4901033 C587.524254,102.50515 594.463385,106.140618 599.552081,108.784595 C601.15635,109.511776 602.683942,110.397504 604.11208,111.428572 C607.102629,116.472093 609.455692,121.867395 611.117296,127.49073 L611.117296,128.217824 L611.579904,128.746619 C613.498714,130.409117 614.898251,132.589134 615.611207,135.026064 C614.022089,137.650139 612.232403,140.147334 610.258165,142.495298 C605.103384,149.10524 603.649472,151.220421 604.310341,153.6 C604.37638,154.325594 604.37638,155.055688 604.310341,155.781281 C604.044777,158.41781 604.246123,161.080521 604.905123,163.647112 C605.719896,169.071648 606.073626,174.555485 605.962512,180.039768 C606.039214,183.373468 605.88464,186.708475 605.499904,190.02078 C605.037296,191.805464 601.732948,202.183073 600.345124,206.611734 L591.95208,218.245231 L592.480776,219.765518 C598.510989,240.267422 601.254583,261.595639 600.60947,282.956561 C600.336958,295.232056 599.166295,307.471127 597.106864,319.575638 C595.983756,323.891766 595.781105,328.395945 596.512079,332.795521 C597.194198,335.437224 598.077951,338.022687 599.155558,340.529154 C601.394037,344.549229 602.165029,349.222798 601.336428,353.749037 C599.421945,358.456619 596.912233,362.899428 593.868601,366.96892 C589.176428,373.578863 586.53295,377.941424 587.259908,381.444695 C586.341637,385.675318 584.337267,389.593693 581.444254,392.813793 L580.981646,393.276488 L580.981646,393.937483 C577.740172,404.807938 575.89692,416.047237 575.496431,427.38379 C575.496431,428.441379 575.959039,430.027767 576.223386,432.076848 C578.205994,444.767938 583.492951,478.34644 581.444254,493.152711 C578.866864,512.189342 563.732954,569.233139 547.673825,588.666368 C539.466143,598.584706 530.078428,607.463651 519.719046,615.106137 C515.324561,618.346807 511.172108,621.903568 507.294699,625.748144 C503.132363,630.960358 499.97283,636.89961 497.976439,643.26449 C494.949434,652.154902 489.983124,660.260546 483.437311,666.994178 C470.748618,679.156472 451.781664,673.207523 440.414707,669.638155 C433.806014,667.589075 430.369492,666.465385 427.858187,668.316167 C425.346882,670.166952 424.553839,675.983699 424.289493,684.312229 C424.755803,692.17988 423.492548,700.054155 420.588621,707.380923 C418.870362,710.355397 416.887753,713.395972 414.971233,716.370443 C409.116825,723.826734 405.128945,732.574531 403.339929,741.884819 L409.618188,741.884819 C411.464958,733.865978 415.052292,726.351468 420.126013,719.873714 C422.042534,716.833142 424.091231,713.726469 425.875578,710.619797 C429.39261,702.409404 430.953676,693.493807 430.435577,684.576625 C430.425949,680.989658 430.713308,677.408049 431.294709,673.868518 C433.67134,674.344479 436.012043,674.984981 438.299925,675.785403 C450.988618,679.751366 472.268616,686.42741 487.666875,671.621138 C494.784581,664.090934 500.115309,655.054095 503.263396,645.181372 C504.998655,639.58244 507.729964,634.342707 511.326002,629.714106 C514.989622,626.01396 518.921477,622.589509 523.089479,619.468698 C533.804993,611.647093 543.525609,602.546167 552.035563,592.367937 C570.143389,570.48903 585.079037,509.941963 587.259908,493.747605 C589.440778,477.553248 584.219906,444.966234 581.972951,430.754859 C581.902635,429.190379 581.658823,427.638546 581.245996,426.127902 C581.766489,415.896809 583.564801,405.771054 586.599038,395.986566 C590.368196,391.625152 592.678985,386.193775 593.207731,380.453203 C594.67227,376.796593 596.652968,373.368675 599.089469,370.273892 C602.52751,365.752863 605.308697,360.768036 607.35034,355.467624 C608.630082,349.551891 607.787854,343.374403 604.971211,338.017375 C604.034353,335.875669 603.261124,333.666026 602.658167,331.407435 C602.182256,327.872921 602.40682,324.279268 603.319037,320.831529 C605.423485,308.531729 606.6163,296.093201 606.887732,283.617555 C607.540202,262.04798 604.842607,240.507745 598.891211,219.765518 L606.0286,209.916704 L606.0286,209.454008 C606.491209,207.867622 610.852949,194.383341 611.447731,191.937663 C611.963993,188.126656 612.184942,184.281435 612.1086,180.436364 C612.219158,174.374205 611.799004,168.314 610.852949,162.325123 C610.393065,160.422553 610.258991,158.455771 610.456426,156.508375 C610.588295,155.388555 610.588295,154.257124 610.456426,153.137304 C611.884381,150.856287 613.428442,148.650071 615.082514,146.527363 C617.737789,143.743096 619.964977,140.579893 621.691207,137.141245 C623.211207,132.514286 618.783382,127.160233 616.668599,124.912853 C614.856664,118.592161 612.069501,112.593051 608.407729,107.13211 C606.617878,105.510022 604.589606,104.172447 602.393818,103.166144 C598.296427,100.984864 592.679038,98.0764893 591.489472,94.5071206 C589.506863,88.6903719 582.039039,84.7905061 576.619909,82.0143306 C575.496431,81.4194358 574.108603,80.6923423 573.447734,80.2296463 C569.087217,72.6192524 563.972806,65.4665854 558.181651,58.8795344 C555.599486,55.8501881 552.429396,53.3766022 548.863391,51.6085985 C546.984572,50.6353883 545.231354,49.4367603 543.642522,48.0392298 C538.880217,43.9477 533.322357,40.8869229 527.319046,39.0497091 C525.864466,38.4379058 524.451579,37.7313282 523.089479,36.9345276 C517.380162,34.0853491 511.510622,31.5693568 505.510352,29.3991939 C498.170045,26.8142607 490.568799,25.0410413 482.84253,24.1112405 L481.058179,24.1112405 C479.651426,23.9790093 478.235371,23.9790093 476.828615,24.1112405 C474.581659,24.1112405 473.92079,24.1112405 473.326008,23.4502464 C471.211226,21.335065 466.122531,19.8147784 454.689489,17.9639947 L451.451229,17.9639947 C446.205962,17.3571282 441.248325,15.2451432 437.176447,11.8828482 C432.890653,8.75698683 427.394486,7.8041377 422.306884,9.30497091 C419.806698,9.97624846 417.18946,10.0890817 414.640798,9.635468 C406.804051,7.99480788 398.883975,6.78119683 390.915583,6 L385.694714,6.33049709 C380.738192,6.66099418 373.20428,7.18978952 366.529498,7.18978952 C361.427114,7.256784 356.33161,7.58772328 351.263412,8.18128079 C347.690161,8.64514659 344.093887,8.90995289 340.49124,8.97447381 L308.637332,8.97447381 C295.419942,8.97447381 291.917334,11.8828482 290.661681,17.2369011 L290.661681,18.2283923 C290.356825,18.2945771 290.04132,18.2945771 289.736464,18.2283923 C279.148606,22.7894269 269.051529,28.4147374 259.600815,35.0176445 C254.247773,38.3226153 248.167774,42.1563817 246.779948,42.6851768 C242.967694,44.1938687 239.368605,46.1937399 236.073862,48.6341247 C232.026763,51.3294894 227.834966,53.8009097 223.517342,56.0372595 C218.42869,59.0070689 213.94475,62.9088329 210.299952,67.538558 C208.586147,69.7153498 206.585336,71.649832 204.352126,73.2892076 C199.461692,75.7348859 187.764302,83.9312138 187.301694,84.261711 L186.971259,84.261711 C185.517346,85.5175999 173.026913,97.0188984 170.581696,100.059472 C164.657203,109.812176 160.34992,120.459647 157.826915,131.588894 C156.974771,136.107963 155.691212,140.534862 153.993871,144.808778 C152.587496,148.180054 151.503243,151.676877 150.755611,155.252486 C150.160829,158.293059 149.367785,168.472369 148.442568,179.70927 C147.385177,192.929154 146.195612,207.933722 145.402568,211.701389 C144.609525,215.469055 144.014742,224.921272 143.221699,236.686969 C142.705104,247.979137 141.557807,259.233594 139.785178,270.397672 C137.64102,279.050499 136.509948,287.923321 136.414743,296.837439 C129.592482,300.445955 123.243781,304.886443 117.513876,310.057323 C104.957356,321.558621 113.879094,360.29288 115.795615,367.960412 C118.059798,375.992496 118.887589,384.361475 118.240833,392.681595 L118.240833,405.901478 C118.985677,421.367007 123.042346,436.492219 130.136483,450.254188 C130.136483,453.162562 129.409527,462.48258 129.409527,468.629827 C129.409527,471.7365 127.493005,486.476668 125.44431,502.20833 C123.06518,520.980564 120.289528,542.330678 119.826919,550.989701 C117.584352,566.627905 113.685325,581.983222 108.195616,596.796598 C103.388825,595.872105 98.5352617,595.210133 93.6564874,594.813616 C90.0877924,594.813616 60.6130132,596.003406 59.0269265,596.069503 L56.5156222,596.069503 L38.4077984,697.598209 C29.8972341,704.920991 21.8209139,712.733987 14.2199752,720.997404 C9.20610742,727.181037 4.78106623,733.81985 1.00258542,740.82723 L6.48780217,744 L6.48780217,743.801704 Z"/>
    <filter id="pkoenders-amin.inline-e" width="102.4%" height="102%" x="-1.2%" y="-1%" filterUnits="objectBoundingBox">
      <feOffset in="SourceAlpha" result="shadowOffsetOuter1"/>
      <feGaussianBlur in="shadowOffsetOuter1" result="shadowBlurOuter1" stdDeviation="2.5"/>
      <feColorMatrix in="shadowBlurOuter1" values="0 0 0 0 0   0 0 0 0 0   0 0 0 0 0  0 0 0 0.5 0"/>
    </filter>
  </defs>
  <g fill="none" fill-rule="evenodd" transform="matrix(-1 0 0 1 625 0)">
    <mask id="pkoenders-amin.inline-b" fill="#fff">
      <use xlink:href="#pkoenders-amin.inline-a"/>
    </mask>
    <g mask="url(#pkoenders-amin.inline-b)">
      <g transform="translate(-.003)">
        <path fill="#253240" fill-rule="nonzero" d="M409.94643,741.884819 C411.790382,733.865978 415.372241,726.351468 420.438217,719.873714 C422.351812,716.833142 424.397382,713.726469 426.179006,710.619797 C429.690669,702.409404 431.249352,693.493807 430.732045,684.576625 C430.722431,680.989658 431.009352,677.408049 431.589865,673.868518 C433.962869,674.344479 436.299999,674.984981 438.584388,675.785403 C451.253713,679.751366 472.50123,686.42741 487.875986,671.621138 C494.982828,664.090934 500.305419,655.054095 503.448701,645.181372 C505.181311,639.58244 507.908451,634.342707 511.499,629.714106 C515.157028,626.01396 519.082881,622.589509 523.244521,619.468698 C533.943679,611.647093 543.649458,602.546167 552.146422,592.367937 C570.226609,570.48903 585.13946,509.941963 587.317001,493.747605 C589.494543,477.553248 584.28164,444.966234 582.038114,430.754859 C581.967906,429.190379 581.724466,427.638546 581.312269,426.127902 C581.831968,415.896809 583.627535,405.771054 586.65714,395.986566 C590.420546,391.625152 592.727807,386.193775 593.255746,380.453203 C594.718049,376.796593 596.695724,373.368675 599.128507,370.273892 C602.561299,365.752863 605.338241,360.768036 607.376768,355.467624 C608.654556,349.551891 607.813614,343.374403 605.00127,338.017375 C604.065842,335.875669 603.293793,333.666026 602.691757,331.407435 C602.216572,327.872921 602.440793,324.279268 603.351618,320.831529 C605.452854,308.531729 606.643848,296.093201 606.914866,283.617555 C607.56634,262.04798 604.872862,240.507745 598.930551,219.765518 L606.057046,209.916704 L606.057046,209.454008 C606.518948,207.867622 610.874031,194.383341 611.467904,191.937663 C611.983379,188.126656 612.20399,184.281435 612.127765,180.436364 C612.238155,174.374205 611.818642,168.314 610.874031,162.325123 C610.414849,160.422553 610.280979,158.455771 610.478113,156.508375 C610.609781,155.388555 610.609781,154.257124 610.478113,153.137304 C611.903888,150.856287 613.445592,148.650071 615.097139,146.527363 C617.748362,143.743096 619.97215,140.579893 621.695745,137.141245 C623.213426,132.514286 618.792358,127.160233 616.680804,124.912853 C614.871634,118.592161 612.088726,112.593051 608.432543,107.13211 C606.645424,105.510022 604.620248,104.172447 602.427811,103.166144 C598.336674,100.984864 592.72786,98.0764893 591.54011,94.5071206 C589.560527,88.6903719 582.104101,84.7905061 576.693243,82.0143306 C575.57148,81.4194358 574.185771,80.6923423 573.52591,80.2296463 C569.172049,72.6192524 564.065445,65.4665854 558.283129,58.8795344 C555.704906,55.8501881 552.539654,53.3766022 548.979092,51.6085985 C547.103141,50.6353883 545.352599,49.4367603 543.766192,48.0392298 C539.011157,43.9477 533.46178,40.8869229 527.467632,39.0497091 C526.015272,38.4379058 524.604542,37.7313282 523.244521,36.9345276 C517.543919,34.0853491 511.683338,31.5693568 505.692227,29.3991939 C498.363124,26.8142607 490.77348,25.0410413 483.059004,24.1112405 L481.277377,24.1112405 C479.872772,23.9790093 478.458877,23.9790093 477.054269,24.1112405 C474.810743,24.1112405 474.150882,24.1112405 473.557009,23.4502464 C471.445454,21.335065 466.364526,19.8147784 454.948935,17.9639947 L451.715618,17.9639947 C446.478358,17.3571282 441.528288,15.2451432 437.462625,11.8828482 C433.183373,8.75698683 427.695595,7.8041377 422.615759,9.30497091 C420.119389,9.97624846 417.506146,10.0890817 414.961374,9.635468 C407.13659,7.99480788 399.228602,6.78119683 391.272373,6 L386.059473,6.33049709 C381.110517,6.66099418 373.588104,7.18978952 366.923511,7.18978952 C361.828915,7.256784 356.741189,7.58772328 351.680727,8.18128079 C348.112929,8.64514659 344.522145,8.90995289 340.924997,8.97447381 L309.11971,8.97447381 C295.922495,8.97447381 292.425233,11.8828482 291.171497,17.2369011 L291.171497,18.2283923 C290.867106,18.2945771 290.552083,18.2945771 290.247692,18.2283923 C279.675996,22.7894269 269.59433,28.4147374 260.158042,35.0176445 C254.81317,38.3226153 248.742451,42.1563817 247.356744,42.6851768 C243.55031,44.1938687 239.956714,46.1937399 236.667,48.6341247 C232.626078,51.3294894 228.44068,53.8009097 224.129646,56.0372595 C219.048761,59.0070689 214.571665,62.9088329 210.93243,67.538558 C209.221241,69.7153498 207.223485,71.649832 204.993684,73.2892076 C200.110714,75.7348859 188.431179,83.9312138 187.969277,84.261711 L187.639346,84.261711 C186.187652,85.5175999 173.716284,97.0188984 171.2748,100.059472 C165.35935,109.812176 161.058642,120.459647 158.539487,131.588894 C157.688644,136.107963 156.407045,140.534862 154.712295,144.808778 C153.308066,148.180054 152.225468,151.676877 151.478977,155.252486 C150.885103,158.293059 150.09327,168.472369 149.169465,179.70927 C148.113687,192.929154 146.925938,207.933722 146.134105,211.701389 C145.342272,215.469055 144.748398,224.921272 143.956565,236.686969 C143.440758,247.979137 142.295213,259.233594 140.525289,270.397672 C138.384404,279.050499 137.255059,287.923321 137.159999,296.837439 C130.348151,300.445955 124.009141,304.886443 118.287982,310.057323 C105.750627,321.558621 114.658747,360.29288 116.572344,367.960412 C118.83307,375.992496 119.659598,384.361475 119.013829,392.681595 L119.013829,405.901478 C119.757536,421.367007 123.808013,436.492219 130.891322,450.254188 C130.891322,453.162562 130.165475,462.48258 130.165475,468.629827 C130.165475,471.7365 128.251879,486.476668 126.206311,502.20833 C123.830812,520.980564 121.059397,542.330678 120.597494,550.989701 C118.35835,566.627905 114.465275,581.983222 108.983945,596.796598 C104.184491,595.872105 99.338336,595.210133 94.4670086,594.813616 C90.9037607,594.813616 61.4739714,596.003406 59.8903056,596.069503 L57.3828346,596.069503 L39.3026502,697.598209 C30.8050763,704.920991 22.7410837,712.733987 15.1517469,720.997404 C10.1455322,727.181037 5.72724533,733.81985 1.95453192,740.82723 L-1.13686838e-13,744 L-1.13686838e-13,0 L624.664384,0.5 L624.664384,744 L409.94643,741.884819 Z"/>
        <path fill="#253240" fill-rule="nonzero" d="M624.664384,215.366988 L591.369745,215.366988 C590.374589,211.246564 588.575387,207.362449 586.07507,203.93686 C584.023385,201.888686 583.295366,201.029775 584.023385,198.453041 C584.828952,194.856197 585.074505,191.15691 584.751401,187.485403 L584.751401,183.455126 C584.751401,177.310606 584.751401,177.310606 582.170249,174.073171 C580.912765,172.487488 579.324363,170.241105 576.941758,166.673319 C571.779453,158.744906 570.323418,158.678836 568.801198,158.612766 C566.736636,158.583257 564.747089,157.835533 563.175606,156.498522 L562.977055,156.498522 C562.44759,156.498522 560.991555,158.414555 560.263536,159.339537 C557.947116,162.312692 554.042295,167.20188 548.15197,164.096584 C546.431203,163.105533 544.114782,165.484057 541.070343,168.919702 C538.025907,172.355348 535.378569,175.526713 531.804665,174.998152 C529.459976,174.584828 527.44829,173.090893 526.377624,170.967876 C523.939921,167.200262 520.151502,164.505635 515.788277,163.435884 C508.810069,161.24161 502.638498,157.034655 498.051119,151.345054 C492.954995,145.134464 490.10911,146.389796 485.873368,148.305829 C481.389921,151.149254 475.664099,151.149254 471.180649,148.305829 C467.915483,146.124178 463.911047,145.338939 460.061834,146.125515 C453.049671,147.117048 445.926607,145.339332 440.206807,141.170257 C435.874745,137.794796 430.36731,136.29534 424.918438,137.00784 C419.266541,137.853965 413.499745,136.60859 408.703499,133.506125 C402.879358,130.202619 401.688056,131.325811 399.63637,133.506125 C396.393382,136.545349 393.018028,138.923874 383.289065,135.091807 C379.41372,133.28663 375.284717,132.083471 371.045131,131.524021 C367.272677,131.061531 365.353357,130.59904 357.808447,124.917011 C348.608951,117.451088 342.321526,120.820664 333.651498,125.445571 L328.158274,128.220516 C318.284305,132.891407 310.584341,141.169478 306.648661,151.345054 C306.185377,152.600386 305.722093,153.657507 305.391177,154.516419 C304.549103,157.846853 302.615472,160.800475 299.897952,162.907323 L297.118249,165.351917 C293.080862,169.301372 290.712459,174.644799 290.499906,180.283761 C290.036622,182.464075 289.573338,184.974739 288.911504,187.881824 C287.836615,195.410471 289.787462,203.057999 294.338545,209.156398 C296.146649,212.215809 297.696288,215.42028 298.971384,218.736564 C301.064813,224.194498 299.712734,230.372264 295.529846,234.46125 C294.418306,235.602153 293.580967,236.980268 293.08106,238.491527 C292.022125,243.314644 287.984936,245.759238 281.962245,249.393094 C279.712008,250.714496 277.130855,252.234109 274.218784,254.216212 C271.306714,256.198315 268.791744,257.651858 266.144407,259.23754 C257.526377,263.539069 249.871401,269.540185 243.642043,276.878259 C240.531422,280.908536 238.082636,283.48527 235.898583,286.128074 C230.393946,291.859006 226.036056,298.586472 223.058999,305.949107 C219.997536,312.556752 217.987851,319.600901 217.102491,326.827261 C216.625211,331.401781 215.39534,335.866382 213.462403,340.041282 C210.76489,346.257595 205.07392,350.66802 198.372582,351.735692 C195.530001,351.227932 193.614654,349.81171 192.626544,347.487026 C191.144378,344 177.64916,322.521779 176.002585,319.760889 C174.356011,317 168.113681,300.264486 142.002585,299.189055 C124.595188,298.472101 77.4824544,298.472101 0.664384091,299.189055 L0,744 L624.664384,743 L624.664384,215.366988 Z"/>
        <g transform="translate(1.003 6)">
          <mask id="pkoenders-amin.inline-d" fill="#fff">
            <use xlink:href="#pkoenders-amin.inline-c"/>
          </mask>
          <g mask="url(#pkoenders-amin.inline-d)">
            <g transform="translate(119 92)">
              <path fill="#121723" fill-rule="nonzero" d="M340.87424,579 C339.880922,579 239.886898,552.561812 157.24283,523.810283 C74.5987622,495.058753 65.1953506,449.783355 59.5003265,422.618116 L58.970557,420.436964 C53.4079754,393.998776 61.3545204,312.436965 61.6856265,309 L66.4535535,309.462668 C66.4535535,310.32191 58.2421236,393.932679 63.6060416,419.511628 L64.0695899,421.626683 C69.5659503,447.6683 78.704477,491.225214 158.765918,519.381886 C241.211322,548.331702 341.006682,574.108935 342,574.373319 L340.87424,579 Z" opacity=".451"/>
              <path fill="#121723" fill-rule="nonzero" d="M61.5842874,321 C57.6651489,314.023927 54.7740916,306.522332 53,298.725842 C53.9246218,291.843541 56.7853566,285.362385 61.2515633,280.03146 C62.665341,277.897715 63.9540277,275.684279 65.1111653,273.402247 C66.4999649,270.188087 66.9162756,266.639843 66.3089728,263.193258 L66.3089728,262 L68.7045881,262 L68.7045881,263.126966 C69.378646,267.090757 68.893531,271.164053 67.307146,274.860674 C66.1216819,277.168037 64.7648265,279.383943 63.247909,281.489888 C59.1446204,286.415795 56.4340758,292.342615 55.395615,298.65955 C57.1408028,306.100132 59.9180173,313.262227 63.6471783,319.939324 L61.5842874,321 Z" opacity=".451"/>
              <path fill="#121723" fill-rule="nonzero" d="M59.0173856,281 C59.0173856,281 51.8799727,255.611871 47.7825693,245.099599 C42.6311059,235.466382 34.8351416,227.50657 25.3129368,222.157722 C22.735003,220.364062 20.4971289,218.125247 18.7042214,215.54623 C16.9859554,213.232208 16.391171,212.438829 13.813772,213.232208 C7.07740695,213.828452 2.05489463,219.705204 2.51286858,226.455192 L2.51286858,227.90972 L0.133731026,227.90972 C-0.391760868,224.04191 0.644408982,220.124002 3.01313741,217.022269 C5.38186586,213.920537 8.88802311,211.890492 12.7563775,211.38099 C16.9859554,210.124807 18.5059599,212.174369 20.2903131,214.620622 C21.9006382,216.948511 23.9421263,218.94597 26.3042441,220.504849 C36.2252824,226.124243 44.3229586,234.477763 49.6330097,244.57068 C53.7965003,254.950722 60.9339128,280.140506 61,280.404966 L59.0173856,281 Z" opacity=".451"/>
              <path fill="#121723" fill-rule="nonzero" d="M3.39202657 284.671126L1 284.671126C1 284.671126 2.86046512 272.042363 5.51827243 261.123746 9.1860514 249.147039 13.6248122 237.41512 18.807309 226L21 226.986622C15.8761245 238.290893 11.4385519 249.887888 7.71096346 261.715719 5.05315615 272.502787 3.25913621 284.86845 3.25913621 285M43.0699001 382.984716C40.9929842 383.063123 38.9156948 382.839563 36.9015692 382.320869 29.5030257 380.94146 23.666373 375.168057 22.1369472 367.716244 20.021625 361.291365 17.2966061 355.088676 14 349.194925L16.0342368 348C19.5111608 354.069187 22.3274249 360.501826 24.4336662 367.185166 25.7588706 373.795896 30.9800903 378.893044 37.5577747 379.997405 44.8611322 380.886204 52.2662416 380.299532 59.3437948 378.271406L60 380.528484C54.5805427 382.00391 49.0081434 382.828334 43.3980029 382.984716M60.8828625 338C58.1567158 337.987181 55.5811374 336.750287 53.869845 334.632077 53.2836157 334.024584 52.7314376 333.385244 52.2158314 332.716983 49.8347572 329.614429 47.0540859 326.83892 43.9457633 324.462264 39.594908 321.800816 34.9840297 319.58816 30.1843702 317.858492 24.100052 315.808965 19.4527513 310.847819 17.8123485 304.650945 17.6088062 302.944266 17.2319589 301.262664 16.6876192 299.632076 14.7028029 291.839623 11.9902206 281.075472 16.290656 275.990566 20.5910913 270.90566 32.0368655 261.330189 36.8004247 261L36.8004247 263.377358C29.5001795 266.619615 23.0977176 271.58251 18.1431512 277.839623 14.5704818 282 17.2169036 292.433963 19.0032383 299.301887 19.5325226 301.415095 19.9956464 303.198114 20.194128 304.518867 21.7728842 309.81041 25.813652 314.015828 31.0444572 315.811321 36.0039547 317.51082 40.7714705 319.724152 45.2689741 322.415096 48.58395 324.909714 51.5441216 327.842174 54.0683264 331.132075L55.6561794 333.047172C57.2378588 335.016212 59.8055828 335.913249 62.2722339 335.358493L63 337.603775C62.2341289 337.739649 61.4502519 337.739649 60.6843808 337.603775M36.1381214 345C32.2275311 342.156933 29.4189209 338.066344 28.1823204 333.412811 26.3259668 327.553381 25.9944751 327.421709 20.160221 325.380782L15.718232 323.734874C9.01551171 320.915188 3.7193416 315.561166 1 308.855873L3.25414365 308C5.74178767 314.053279 10.4942234 318.914171 16.5138122 321.562275L20.8895028 323.142348C27.519337 325.314944 28.2486188 325.907473 30.3701657 332.68861 31.4205805 336.744945 33.7423238 340.364677 37 343.024911L36.1381214 345zM292.210451 244.885459C282.061471 239.120882 270.759883 235.629172 259.101227 234.656116 249.963082 233.082371 240.427625 229.541445 231.686791 233.082371 223.412091 236.085582 214.58235 237.293143 205.795378 236.623298 201.822271 235.836425 204.206135 230.721754 215.330834 226.787392 226.455533 222.853029 248.440058 224.426774 256.717363 222.459593 264.994669 220.492412 294.925407 225.213647 304.858174 229.541445 314.790941 233.869244 325.91564 235.442989 329.094127 238.590479 332.27261 241.737969 343 244.492022 343 247.705085 342.204701 251.304994 340.888837 254.772382 339.093112 258 339.093112 258 304.527082 252.885329 292.210451 244.885459zM437.3126 260.290358C438.49474 265.874036 454.256645 265.874036 460.16736 263.481031 466.125851 262.152427 472.283642 262.016936 478.293549 263.082197 478.293549 263.082197 487.750692 252.712511 484.204264 245.533497 480.657836 238.354483 482.234026 244.270522 472.382837 244.669356 462.531644 245.06819 460.955455 246.729999 455.438788 246.729999 451.807812 246.794694 448.212587 247.468564 444.799504 248.72417 438.232043 252.712511 436.130456 254.706681 437.3126 260.290358z" opacity=".451"/>
              <path fill="#121723" fill-rule="nonzero" d="M386.518055 425L385 420.505037C385.848175 420.100542 386.627693 419.565208 387.310088 418.918581 389.332594 416.985746 391.882311 415.697457 394.636364 415.216846 396.880448 415.216846 398.266502 413.762594 401.236611 411.184602 401.896636 410.523578 402.622665 409.796453 403.480698 409.069326 408.898543 404.892015 412.73853 398.995125 414.371109 392.345423 414.613449 386.18067 413.078236 380.076412 409.948941 374.762192 408.773345 372.3422 407.759089 369.846884 406.912828 367.292625 405.526774 362.863765 403.546699 350.172107 401.500623 336.753324 400.048569 327.16848 398.53051 316.922613 397.342465 311.502217 396.814444 308.924225 396.220423 306.478434 395.692402 304.164853 393.316314 293.918984 391.270235 285.061266 395.098381 276.269649 399.784557 265.627166 431.201744 261.661024 437.471979 261L438 265.759371C424.799502 267.213623 402.226649 271.906892 399.454544 278.186618 396.220423 285.523982 398.068494 293.25796 400.312578 303.107215 400.906599 305.486902 401.434619 307.932689 401.96264 310.510681 403.216687 316.393793 404.734745 326.375252 406.186799 336.026199 408.166874 348.651754 410.14695 361.740025 411.467 365.83837 412.287494 368.223043 413.234884 370.56201 414.305105 372.845224 417.87142 379.009058 419.52568 386.096314 419.057285 393.204755 417.296492 400.909735 412.908507 407.758804 406.648816 412.572753L404.470736 414.555825C402.225166 417.403326 399.001859 419.311962 395.428393 419.910117 393.566109 420.303374 391.864601 421.247528 390.544209 422.620313 389.439189 423.611684 388.164758 424.395414 386.782067 424.933896M372.362427 412C365.279 405.398292 356.520798 400.944192 347.078301 399.141426 333.977718 397.342559 332.536654 399.141426 332.405646 399.607799 332.219546 400.067953 332.421313 400.595675 332.864169 400.807045L330.964582 402.272789C329.94745 401.260137 329.70747 399.687107 330.375057 398.408556 330.899081 397.475808 332.536654 394.677569 347.405816 396.742937 357.334109 398.52772 366.55806 403.149357 374 410.067884L372.362427 412z" opacity=".451"/>
              <path fill="#121723" fill-rule="nonzero" d="M331,407 C328.750853,406.899864 326.547905,406.316084 324.535732,405.286968 C320.52789,403.508051 314.51612,399.423132 309.15078,384.862369 C303.785439,370.30161 318.911823,362.065884 319.105749,362 L320.010748,364.174229 C312.433279,367.374605 308.630337,376.052385 311.34863,383.939969 C317.166471,399.291361 323.630736,402.058564 325.63466,403.244509 C327.329256,404.046701 329.142004,404.558689 331,404.759881 L331,407 Z" opacity=".451"/>
              <path fill="#121723" fill-rule="nonzero" d="M392.994004 409.678347C384.550226 409.678347 369.905546 401.508353 367.068966 399.835754 357.08318 396.093389 346.551098 393.921969 335.866566 393.402685 329.575115 393.209722 323.277614 393.338562 317 393.78867L317 391.472767C323.365729 391.022674 329.751062 390.893841 336.130433 391.086782 347.21393 391.664569 358.118758 394.056747 368.388307 398.163158 375.885874 402.94163 384.302767 406.181094 393.125937 407.684097 396.880269 407.680281 400.517106 406.407134 403.416792 404.081577L405 405.818505C401.662794 408.51949 397.462769 409.998543 393.125937 410M233.97097 435.734844L232 434.342764C235.482047 429.238479 248.818946 418.499597 275.295645 399.408245 291.498116 386.918157 305.283681 371.525633 315.963329 354L318 355.19321C307.162305 373.087127 293.154243 388.816478 276.675325 401.595797 250.789916 420.28941 237.25592 431.160875 233.97097 436M420.107151 457.262194C422.843415 449.151126 423.247304 440.388146 421.269525 432.042682 418.691232 422.164515 414.544478 412.802285 409 404.341464L410.937294 403C416.819517 411.714627 421.190349 421.429848 423.852584 431.707316 425.798944 440.442447 425.260518 449.57673 422.30275 458L420.107151 457.262194zM344.024932 468C340.944885 467.808087 337.913313 467.148865 335.0372 466.045602 330.544453 464.325831 325.77953 463.399628 320.960824 463.309446 314.087371 463.05887 307.251781 462.186587 300.540166 460.703582 296.178473 459.856676 292.015038 459.00977 287.917689 458.553744 280.47641 457.358245 273.140738 455.593966 265.977048 453.276872 262.293354 452.010962 258.514933 451.030777 254.676296 450.345275 250.909379 450.345275 233.660863 453.86319 233.462604 453.86319L233 451.583063C233.726949 451.583063 250.645034 448 254.676296 448 258.747923 448.63695 262.75184 449.640049 266.637911 450.996741 273.658039 453.342865 280.864374 455.107937 288.182034 456.273613 292.411555 456.729642 296.773249 457.576545 301.00277 458.358304 307.506515 459.877534 314.148318 460.750515 320.828652 460.964167 325.919293 461.033853 330.955804 462.004766 335.698063 463.830619 338.516503 464.952569 341.515262 465.570265 344.55362 465.654721L348.386625 465.654721 363.982986 464.74267C366.512414 464.54727 369.053477 464.54727 371.582905 464.74267 375.335656 465.135131 379.127832 464.937223 382.81757 464.156349 387.047091 462.592832 398.810446 456.794787 398.942621 456.729642L400 458.879477C399.537397 458.879477 387.9723 464.807815 383.610605 466.371335 379.638865 467.216435 375.553514 467.414496 371.516818 466.957653 369.097717 466.762112 366.666434 466.762112 364.24733 466.957653L348.584885 467.869704 343.958845 467.869704" opacity=".451"/>
              <path fill="#121723" fill-rule="nonzero" d="M392.419581 462C392.419581 462 392.419581 458.407037 389.640668 458.407037 387.751282 458.221483 385.900423 457.759125 384.149004 457.035176 380.771084 455.681823 377.138862 455.058133 373.496502 455.206032 370.458368 455.446551 367.447403 455.949312 364.498116 456.708543 360.331253 457.566967 356.108324 458.134537 351.860679 458.407037 348.260562 457.815911 344.895196 456.256258 342.134481 453.899499 340.4142 452.788944 338.164604 451.15578 337.370629 451.286433 334.194727 451.743719 324.931684 452.658291 308.258203 454.030152 290.195266 455.59799 272.198494 455.663318 272 455.663318L272 453.311557C272 453.311557 290.062937 453.311557 308.059709 451.743719 324.733189 450.306533 333.93007 449.391958 337.039806 449 339.466688 449.434682 341.742772 450.468417 343.656268 452.005024 346.077593 454.016338 348.963671 455.407447 352.059171 456.055276 356.153757 455.7827 360.222692 455.215025 364.233459 454.356785 367.409361 453.834171 370.849918 453.246233 373.43034 452.919599 377.428966 452.66768 381.433336 453.315454 385.141473 454.814071 386.639352 455.447033 388.221294 455.86501 389.839159 456.055276 393.544379 456.055276 394.801506 459.778895 395 461.804022L392.419581 462zM374.721162 491C370.661366 490.744907 366.646171 490.025378 362.757832 488.856148 355.956391 486.953868 348.954177 485.820398 341.888466 485.477957 337.036579 485.302767 332.183195 485.783727 327.466004 486.907191 319.06075 488.702737 310.394245 489.010779 301.877769 487.816706 285.813986 485.749756 271.360633 477.226079 262 464.299304L263.993889 463C272.941905 475.214119 286.599786 483.332105 301.811306 485.477957 310.105897 486.672091 318.554502 486.363784 326.734913 484.568446 331.705216 483.32699 336.826403 482.758649 341.954927 482.879352 349.179194 483.212721 356.339064 484.36824 363.289533 486.322506 367.918084 488.075876 372.925029 488.656912 377.844921 488.011602L380.503439 487.232017C387.149732 485.348027 391.80214 483.918793 393.064935 478.721577 394.145518 475.785724 393.646204 472.515721 391.735676 470.016243L393.463714 468.392113C395.928178 471.463165 396.652081 475.537898 395.391138 479.241299 393.796029 485.73782 387.681437 487.556843 381.23453 489.440836L378.576011 490.220418C377.326483 490.58833 376.025931 490.763676 374.721162 490.74014M325.280215 284C325.280215 284 306.03187 263.591922 264.558629 264.376848 224.143716 265.096364 219.182802 273.076445 219.182802 273.141856L217 272.095288C217.463019 271.179541 222.490078 262.806996 264.558629 262.02207 306.627179 261.237144 326.206254 281.645222 327 282.430148L325.280215 284z" opacity=".451"/>
              <path fill="#121723" fill-rule="nonzero" d="M320.849753 293L320.849753 290.84772C321.715646 290.84772 321.915469 289.86941 321.982078 289.543307 322.048683 289.217204 321.982078 287.847571 321.249395 287.651909L318.851532 286.6736C314.82067 284.721562 310.468202 283.484963 305.996313 283.021245 302.602598 282.37262 299.354455 281.135752 296.404855 279.368891 286.657465 273.876514 275.674339 270.829416 264.433329 270.498887 251.865098 269.994782 239.385092 272.762889 228.26554 278.521023L227 276.564404C249.021222 264.962624 275.564608 265.159337 297.403966 277.086169 300.043841 278.699309 302.95191 279.847148 305.996313 280.477641 310.628124 281.008469 315.133359 282.309843 319.317783 284.325658L321.582432 285.238746C323.337316 286.021803 324.305049 287.889905 323.91369 289.738969 323.746497 291.542773 322.232264 292.941552 320.383499 293M269.092466 314.79503L264.34589 314.79503C243.579623 313.155277 224.791096 295.52795 224 294.776397L225.648116 293C225.648116 293 244.568493 311.10559 264.807363 312.403726 277.019666 313.27435 289.189307 310.169034 299.615582 303.521738L301 305.571427C291.417927 311.730161 280.367658 314.995479 269.092466 315" opacity=".451"/>
              <path fill="#121723" fill-rule="nonzero" d="M274.42246,290.993655 C269.231499,291.016417 264.051743,290.475929 258.962567,289.380473 C251.702328,287.554039 244.666876,284.823421 238,281.244427 L239.113636,279 C245.66526,282.456515 252.567373,285.09243 259.683155,286.855493 C268.532436,288.747091 277.623161,288.960748 286.541444,287.486738 L287,290.011718 C282.907332,290.722221 278.764759,291.050768 274.618984,290.993655" opacity=".451"/>
              <path fill="#121723" fill-rule="nonzero" d="M265 278C265 275.238576 262.761424 273 260 273 257.238576 273 255 275.238576 255 278 255 280.761424 257.238576 283 260 283 262.761424 283 265 280.761424 265 278zM273.954894 270.620767C277.228657 276.449325 276.524302 283.670626 272.184316 288.773355 267.20611 289.318549 262.16792 288.877766 257.363928 287.476742 252.469318 286.297431 247.767154 284.442335 243.39604 281.966135 243.135591 280.81695 243.003645 279.642955 243.002578 278.465278 242.962683 276.158462 243.386182 273.866746 244.24854 271.722888L259.921428 269 273.561432 270.685598 273.954894 270.620767zM459 291C457.614477 289.122982 455.713901 287.696805 453.533336 286.897855 443.697389 283.143116 433.089335 281.918209 422.666669 283.333696 413.926715 284.276862 405.344405 286.356394 397.133336 289.520538L396 287.301344C404.374153 283.892089 413.163504 281.630346 422.133335 280.576516 433.005024 279.135614 444.061131 280.405575 454.333335 284.275172 457.051361 285.230147 459.390075 287.046668 461 289.453289L459 291zM437.958858 305C428.048846 304.118634 418.355103 301.706681 409.257145 297.858569L408.196572 297.41618C404.212279 296.469295 400.092545 296.149089 396 296.468202L396 294.193057C400.436336 293.768158 404.915833 294.045765 409.257145 295.014637L410.384002 295.457026C419.088929 299.261248 428.375536 301.714791 437.892571 302.724853 447.437714 302.724853 451.149713 299.628127 451.613713 298.806547L454 298.806547C454 301.713678 447.371428 304.747204 437.892571 304.747204" opacity=".451"/>
              <path fill="#121723" fill-rule="nonzero" d="M454.133332 293L452.133332 289.886792C448.504421 287.185231 444.371718 285.300108 440 284.352201L440.666667 282C445.636249 283.000076 450.247281 285.392591 454 288.918239L456 292.031447 454.133332 293zM294.605314 287.533333L294 287.533333 295.076114 285.4C294.799807 285.268311 294.478079 285.268311 294.201771 285.4 294.583887 284.839287 294.8365 284.201918 294.9416 283.533333 295.345913 281.935863 295.345913 280.264137 294.9416 278.666667L297.497371 278C298.167543 280.172578 298.167543 282.494088 297.497371 284.666667 296.959314 286.533333 296.354 287.6 295.479657 288L294.807085 288M421 296C423.761423 296 426 293.537566 426 290.5 426 287.462434 423.761423 285 421 285 418.238577 285 416 287.462434 416 290.5 416 293.537566 418.238577 296 421 296zM434.174829 281.272997C438.963993 288.578295 437.531394 298.475861 430.885265 304L404.568759 295.332344C403.643762 291.719461 403.851142 287.894946 405.16088 284.412463 405.16088 284.412463 415.226943 282.364985 420.556035 281.955489L434.174829 281 434.174829 281.272997zM437.599992 325.25432C424.866661 325.25432 405.799999 312.398061 405 311.931769L406.333333 310C406.333333 310 425.66666 323.322548 437.533324 323.322548L438.066658 323.322548C445.733325 323.322548 448 321.39078 448.599989 320.724652L448.599989 320.191749 451 320.191749C451.002074 321.040553 450.666297 321.85535 450.066655 322.456585 446.554575 325.102145 442.178409 326.33789 437.799993 325.920448L437.266659 325.920448M361.092391 383.801152C354.524984 383.186677 348.105081 381.484364 342.09467 378.763689 334.341539 376.993027 326.273144 377.152333 318.595746 379.227666L318 377.172909C326.205903 375.05133 334.815484 375.05133 343.021387 377.172909 354.142004 381.680115 363.342991 383.337176 364.534487 380.884726 366.115536 377.917796 368.025125 375.138529 370.227183 372.599422 371.501406 371.269705 372.653428 369.827757 373.669279 368.291064 374.155339 367.415834 374.863098 366.684272 375.721299 366.170027 376.978987 365.308358 377.971899 364.645534 377.508541 361L379.891529 361C380.487278 366.037463 378.501453 367.628243 377.045182 368.423632 376.536183 368.714196 376.104739 369.123478 375.787491 369.616713 374.706805 371.342883 373.465665 372.962953 372.08062 374.455331 370.013327 376.633858 368.192958 379.034615 366.652699 381.613831 365.792175 383.337176 363.673962 384 361.026196 384M366.741362 503C362.764622 502.532874 358.897962 501.358808 355.315323 499.530613 352.857395 498.510204 350.266608 497.421767 347.742249 496.605441 342.453066 494.961544 336.770498 495.250095 331.666076 497.421767L328.078831 498.510204C318.911424 500.959183 294.863596 495.653061 294 495.448979L294.465013 493C294.465013 493 318.844996 498.442176 327.680247 496.129251L331.333924 495.108842C336.858348 492.736007 343.025596 492.446746 348.738706 494.292516 351.379643 495.147955 353.974121 496.147111 356.511072 497.285713 360.155647 499.333782 364.244853 500.409897 368.402124 500.414968L369 502.795918C368.337362 502.864119 367.66972 502.864119 367.007086 502.795918M173.357534 259C171.575853 248.329435 176.458978 236.134503 187.874931 222.746589 194.473748 214.992203 213.214388 209.491228 228.193703 205.183236 235.310697 203.641256 242.175245 201.097627 248.584048 197.62768 253.995077 192.192982 255.974723 185.101365 256.568616 168.598441 257.224887 159.911555 258.953837 151.340305 261.715693 143.081872 264.452967 134.195739 266.504668 125.111038 267.852593 115.908382 270.888049 93.3079924 264.091267 60.7660821 260.461918 56.5906433L262.243599 55C266.664806 60.1033139 273.263623 93.7719301 270.228167 116.239766 268.725609 125.562743 266.519649 134.757521 263.62935 143.744639 260.974211 151.820747 259.290548 160.186882 258.614249 168.664717 258.086344 183.775829 256.568616 192.65692 249.969799 199.350877 243.30047 203.18682 236.058741 205.917144 228.523644 207.436647 213.808282 211.74464 195.529559 217.11306 189.392659 224.337232 178.438623 237.128655 173.753463 248.660819 175.403167 258.602339L173.357534 259z" opacity=".451"/>
              <path fill="#121723" fill-rule="nonzero" d="M78.3699966,254 L77.9067129,254 C75.9547,254.006729 74.2078606,252.791319 73.5386067,250.960747 C68.1752715,241.841368 62.3204718,233.019066 56,224.532704 L59.9048218,221.823829 C62.6845255,225.721966 76.3844942,245.410858 78.0390798,249.573275 C78.6943398,249.704972 79.3693221,249.704972 80.0245822,249.573275 C84.0788447,247.912085 87.3454356,244.76924 89.1578945,240.78595 C90.9271214,236.8902 91.9592947,232.701374 92.2023319,228.43084 C93.2716815,220.760725 95.5033103,213.297569 98.8206742,206.297354 C101.868201,198.445277 106.357327,191.230159 112.057359,185.022779 C114.175228,182.644255 116.624015,179.935381 119.536086,176.103315 C126.028956,168.044258 134.117486,161.409074 143.295934,156.612633 C145.877088,155.09302 148.524425,153.441267 151.171762,151.723445 L159.113772,146.768187 C164.87173,143.332541 167.3867,141.680788 168.048534,138.905844 C168.734999,136.705692 169.88598,134.678027 171.423889,132.959534 C174.541853,130.146607 175.595294,125.703438 174.071226,121.793686 C172.957381,118.69996 171.607701,115.695987 170.034037,112.808151 C164.867711,105.701415 162.748205,96.8337485 164.143712,88.1640007 C164.739363,85.3229861 165.26883,82.8783922 165.665931,80.6980785 C166.054632,74.0227418 168.963572,67.7426353 173.806492,63.1234296 L176.652379,60.6127657 C179.034983,58.5645922 179.034983,58.5645922 180.821935,54.0057548 C181.089046,52.8635723 181.535811,51.7708714 182.145603,50.7683194 C186.516167,39.4989002 195.041231,30.3265075 205.971635,25.1331176 L211.266309,22.4242432 C220.002521,17.7993356 229.003466,12.9762177 240.651749,22.4242432 C247.270091,27.7759219 248.527576,27.9080621 251.241096,28.2384127 C256.054706,28.8181431 260.74579,30.1561579 265.139615,32.2026191 C272.485975,35.241844 274.272927,33.5240212 276.390797,31.5419182 C280.438341,27.9253167 286.511053,27.757695 290.7526,31.1454974 C294.650207,33.7237 299.361113,34.7818393 303.989284,34.1186523 C310.477472,33.2518672 317.04542,34.986068 322.255909,38.9417702 C327.131571,42.5105259 333.214515,44.0286581 339.198864,43.170257 C344.09756,42.2909005 349.147236,43.3322401 353.295933,46.0773418 C356.356874,48.1341588 360.361055,48.1341588 363.421996,46.0773418 C369.326421,42.3077051 377.173379,44.0222121 380.960604,49.9094082 L380.960604,50.4379691 C385.017124,55.400548 390.486557,59.0175538 396.646074,60.810976 C402.094899,62.2182203 406.817652,65.6127804 409.882761,70.3250716 C410.676962,71.5804036 411.272612,72.1089646 411.669714,72.1089646 C413.619423,70.8695323 415.380305,69.3564329 416.898204,67.6161973 C420.339742,63.7180607 424.641662,58.9610129 430.134888,61.7359574 C432.120391,62.8591495 433.311693,61.7359574 436.157579,58.300312 C439.003467,54.8646663 441.518435,51.6933011 445.952725,54.7985962 C446.73582,55.5856972 447.82217,55.9953934 448.930979,55.921788 C452.173966,55.921788 454.755122,56.9128395 460.777813,66.0965845 C463.094233,69.5983003 464.682634,71.7125439 465.807752,73.2982265 C469.116924,77.7249237 469.116924,78.2534846 469.381656,85.3890562 L469.381656,89.3532628 C469.72687,93.4913415 469.436727,97.6577839 468.521271,101.708373 L469.381656,102.567284 C472.482466,106.58889 474.733971,111.196568 476,116.111656 L471.367159,117.366988 C470.372003,113.246564 468.572802,109.362449 466.072485,105.93686 C464.0208,103.888686 463.292781,103.029775 464.0208,100.453041 C464.826367,96.8561967 465.071919,93.1569102 464.748816,89.4854028 L464.748816,85.4551263 C464.748816,79.3106063 464.748816,79.3106063 462.167663,76.0731709 C460.910179,74.4874883 459.321778,72.2411048 456.939173,68.6733189 C451.776867,60.7449059 450.320833,60.6788358 448.798613,60.6127657 C446.73405,60.5832567 444.744503,59.8355333 443.173021,58.4985221 L442.97447,58.4985221 C442.445005,58.4985221 440.98897,60.4145553 440.260951,61.339537 C437.944531,64.3126918 434.039709,69.2018796 428.149385,66.0965845 C426.428617,65.105533 424.112197,67.484057 421.067758,70.9197024 C418.023321,74.3553481 415.375984,77.5267133 411.80208,76.9981523 C409.45739,76.5848279 407.445705,75.0908928 406.375039,72.9678759 C403.937335,69.2002623 400.148916,66.5056354 395.785692,65.4358836 C388.807484,63.2416103 382.635913,59.0346553 378.048534,53.3450539 C372.95241,47.1344637 370.106525,48.3897957 365.870783,50.3058289 C361.387336,53.1492538 355.661514,53.1492538 351.178064,50.3058289 C347.912898,48.1241778 343.908462,47.3389387 340.059249,48.1255152 C333.047085,49.1170483 325.924022,47.3393315 320.204221,43.170257 C315.872159,39.7947963 310.364725,38.29534 304.915852,39.0078403 C299.263956,39.8539652 293.49716,38.6085901 288.700913,35.5061245 C282.876772,32.2026191 281.685471,33.3258111 279.633785,35.5061245 C276.390797,38.5453495 273.015442,40.9238735 263.286479,37.0918071 C259.411135,35.2866298 255.282132,34.0834708 251.042546,33.5240212 C247.270091,33.0615306 245.350772,32.5990398 237.805862,26.9170106 C228.606366,19.4510883 222.318941,22.8206638 213.648912,27.4455713 L208.155688,30.2205161 C198.281719,34.8914065 190.581755,43.1694776 186.646076,53.3450539 C186.182792,54.6003859 185.719508,55.6575075 185.388591,56.5164191 C184.546517,59.8468527 182.612886,62.8004752 179.895367,64.9073226 L177.115663,67.3519168 C173.078277,71.3013717 170.709873,76.6447992 170.497321,82.2837611 C170.034037,84.4640748 169.570753,86.9747388 168.908919,89.8818235 C167.834029,97.4104711 169.784877,105.057999 174.33596,111.156398 C176.144063,114.215809 177.693702,117.42028 178.968799,120.736564 C181.062228,126.194498 179.710149,132.372264 175.527261,136.46125 C174.415721,137.602153 173.578382,138.980268 173.078474,140.491527 C172.01954,145.314644 167.982351,147.759238 161.95966,151.393094 C159.709423,152.714496 157.12827,154.234109 154.216199,156.216212 C151.304128,158.198315 148.789158,159.651858 146.141821,161.23754 C137.523792,165.539069 129.868816,171.540185 123.639458,178.878259 C120.528837,182.908536 118.08005,185.48527 115.895997,188.128074 C110.39136,193.859006 106.033471,200.586472 103.056413,207.949107 C99.994951,214.556752 97.9852654,221.600901 97.0999052,228.827261 C96.6226252,233.401781 95.3927542,237.866382 93.4598172,242.041282 C90.7623045,248.257595 85.071335,252.66802 78.3699966,253.735692"/>
              <path fill="#121723" fill-rule="nonzero" d="M267.942466 546C267.942466 546 251.815068 537.878009 232.118493 525.331843 213.67774 513.512032 179.241781 490.070509 148.705479 468.147736 125.811243 453.09722 101.452147 440.398401 76 430.245106L76.8592464 428C102.50168 438.238006 127.038649 451.047816 150.093493 466.232792 180.431507 488.155568 214.999658 511.531058 233.374315 523.284835 253.203082 535.831001 268.867809 543.820928 269 543.886962L267.942466 546zM65 238.800995L62.6184617 238.800995C62.5412747 235.194831 61.3637904 231.699008 59.2446155 228.784411 57.7892309 226.197347 55.8046154 222.615257 53.2246155 217.242123 46.6092308 203.112769 22.2646154 201.189055 22 201.189055L22 199C23.0584615 199 47.8 200.99005 55.0769233 216.379768 57.6569232 221.752902 59.6415386 225.268657 61.0307694 227.855722 63.4847481 231.062187 64.8730818 234.960166 65 239" opacity=".451"/>
              <path fill="#121723" fill-rule="nonzero" d="M119.376168,35 L117,34.6642975 C117.462032,30.9044306 123.600467,25.600333 133.501168,17.8791777 C136.339369,15.5964014 138.979556,13.4479061 141.223715,11.5008322 C149.144276,4.78678433 168.549649,-1.59156118 194.027453,0.355512717 C207.840967,0.947743985 220.824927,7.22428207 230,17.7448968 L228.085864,19.2219873 C219.296285,9.3275724 206.990584,3.40715334 193.895444,2.77256994 C169.275701,0.89263653 150.596378,6.73385821 143.005841,13.3807656 C140.761682,15.3278395 138.055491,17.4763348 135.21729,19.7591112 C128.616822,25.19749 120.036215,31.911538 119.640187,35"/>
            </g>
          </g>
        </g>
        <g fill-rule="nonzero">
          <use fill="#000" filter="url(#pkoenders-amin.inline-e)" xlink:href="#pkoenders-amin.inline-f"/>
          <use fill="#121723" xlink:href="#pkoenders-amin.inline-f"/>
        </g>
      </g>
    </g>
  </g>
</svg>
