<svg id="e2avm7p8azfc1" xmlns="http://www.w3.org/2000/svg" xmlns:xlink="http://www.w3.org/1999/xlink" viewBox="0 0 628 742" shape-rendering="geometricPrecision" text-rendering="geometricPrecision"><g id="e2avm7p8azfc2" transform="matrix(-1 0 0 1 625 3)"><path id="e2avm7p8azfc3" d="M408.615602,735.884819C410.462373,727.865978,414.049707,720.351468,419.123428,713.873714C421.039949,710.833142,423.088646,707.726469,424.872993,704.619797C428.390024,696.409404,429.951090,687.493807,429.432992,678.576625C429.423363,674.989658,429.710723,671.408049,430.292123,667.868518C432.668755,668.344479,435.009458,668.984981,437.297339,669.785403C449.986032,673.751366,471.266030,680.427410,486.664290,665.621138C493.781996,658.090934,499.112724,649.054095,502.260811,639.181372C503.996070,633.582440,506.727379,628.342707,510.323417,623.714106C513.987036,620.013960,517.918892,616.589509,522.086893,613.468698C532.802408,605.647093,542.523024,596.546167,551.032977,586.367937C569.140803,564.489030,584.076452,503.941963,586.257322,487.747605C588.438193,471.553248,583.217321,438.966234,580.970365,424.754859C580.900050,423.190379,580.656237,421.638546,580.243411,420.127902C580.763904,409.896809,582.562216,399.771054,585.596453,389.986566C589.365611,385.625152,591.676400,380.193775,592.205146,374.453203C593.669684,370.796593,595.650383,367.368675,598.086884,364.273892C601.524924,359.752863,604.306111,354.768036,606.347754,349.467624C607.627496,343.551891,606.785268,337.374403,603.968626,332.017375C603.031768,329.875669,602.258538,327.666026,601.655582,325.407435C601.179670,321.872921,601.404234,318.279268,602.316451,314.831529C604.420900,302.531729,605.613715,290.093201,605.885146,277.617555C606.537617,256.047980,603.840021,234.507745,597.888626,213.765518L605.026015,203.916704L605.026015,203.454008C605.488623,201.867622,609.850364,188.383341,610.445145,185.937663C610.961408,182.126656,611.182356,178.281435,611.106015,174.436364C611.216573,168.374205,610.796419,162.314000,609.850364,156.325123C609.390480,154.422553,609.256406,152.455771,609.453841,150.508375C609.585710,149.388555,609.585710,148.257124,609.453841,147.137304C610.881796,144.856287,612.425856,142.650071,614.079928,140.527363C616.735204,137.743096,618.962392,134.579893,620.688621,131.141245C622.208622,126.514286,617.780796,121.160233,615.666014,118.912853C613.854078,112.592161,611.066916,106.593051,607.405144,101.132110C605.615292,99.510022,603.587021,98.172447,601.391232,97.166144C597.293841,94.984864,591.676452,92.076489,590.486887,88.507121C588.504278,82.690372,581.036453,78.790506,575.617323,76.014331C574.493845,75.419436,573.106018,74.692342,572.445148,74.229646C568.084631,66.619252,562.970221,59.466585,557.179065,52.879534C554.596901,49.850188,551.426810,47.376602,547.860805,45.608598C545.981986,44.635388,544.228768,43.436760,542.639937,42.039230C537.877632,37.947700,532.319771,34.886923,526.316461,33.049709C524.861880,32.437906,523.448993,31.731328,522.086893,30.934528C516.377577,28.085349,510.508036,25.569357,504.507766,23.399194C497.167460,20.814261,489.566213,19.041041,481.839944,18.111241L480.055594,18.111241C478.648841,17.979009,477.232785,17.979009,475.826029,18.111241C473.579074,18.111241,472.918204,18.111241,472.323423,17.450246C470.208641,15.335065,465.119945,13.814778,453.686903,11.963995L450.448643,11.963995C445.203376,11.357128,440.245739,9.245143,436.173862,5.882848C431.888068,2.756987,426.391900,1.804138,421.304298,3.304971C418.804113,3.976248,416.186875,4.089082,413.638213,3.635468C405.801466,1.994808,397.881389,0.781197,389.912998,0L384.692129,0.330497C379.735607,0.660994,372.201694,1.189790,365.526913,1.189790C360.424529,1.256784,355.329025,1.587723,350.260827,2.181281C346.687575,2.645147,343.091302,2.909953,339.488654,2.974474L307.634746,2.974474C294.417356,2.974474,290.914748,5.882848,289.659096,11.236901L289.659096,12.228392C289.354240,12.294577,289.038735,12.294577,288.733879,12.228392C278.146021,16.789427,268.048944,22.414737,258.598230,29.017644C253.245187,32.322615,247.165188,36.156382,245.777362,36.685177C241.965109,38.193869,238.366020,40.193740,235.071277,42.634125C231.024178,45.329489,226.832381,47.800910,222.514756,50.037259C217.426104,53.007069,212.942164,56.908833,209.297366,61.538558C207.583561,63.715350,205.582751,65.649832,203.349541,67.289208C198.459107,69.734886,186.761717,77.931214,186.299108,78.261711L185.968674,78.261711C184.514761,79.517600,172.024327,91.018898,169.579110,94.059472C163.654618,103.812176,159.347335,114.459647,156.824329,125.588894C155.972186,130.107963,154.688627,134.534862,152.991286,138.808778C151.584911,142.180054,150.500657,145.676877,149.753026,149.252486C149.158243,152.293059,148.365200,162.472369,147.439982,173.709270C146.382591,186.929154,145.193026,201.933722,144.399983,205.701389C143.606940,209.469055,143.012157,218.921272,142.219113,230.686969C141.702519,241.979137,140.555222,253.233594,138.782592,264.397672C136.638434,273.050499,135.507363,281.923321,135.412158,290.837439C128.589897,294.445955,122.241196,298.886443,116.511291,304.057323C103.954770,315.558621,112.876508,354.292880,114.793030,361.960412C117.057212,369.992496,117.885003,378.361475,117.238247,386.681595L117.238247,399.901478C117.983092,415.367007,122.039761,430.492219,129.133898,444.254188C129.133898,447.162562,128.406941,456.482580,128.406941,462.629827C128.406941,465.736500,126.490420,480.476668,124.441724,496.208330C122.062594,514.980564,119.286942,536.330678,118.824334,544.989701C116.581767,560.627905,112.682740,575.983222,107.193031,590.796598C102.386240,589.872105,97.532676,589.210133,92.653902,588.813616C89.085207,588.813616,59.610428,590.003406,58.024341,590.069503L55.513037,590.069503L37.405213,691.598209C28.894649,698.920991,20.818328,706.733987,13.217390,714.997404C8.203522,721.181037,3.778481,727.819850,0,734.827230" fill="none" stroke="rgb(153,223,190)" stroke-width="6" stroke-linecap="round" stroke-linejoin="round" stroke-dashoffset="1980.010000" stroke-dasharray="1980.010000"/><g id="e2avm7p8azfc4" transform="matrix(1 0 0 1 126 102)" opacity="0.495"><path id="e2avm7p8azfc5" d="M306,566C305.006682,566,237.886898,550.561812,155.242830,521.810283C72.598762,493.058753,63.195351,447.783355,57.500326,420.618116L56.970557,418.436964C51.407975,391.998776,62.668894,313.368733,63,309.931769" fill="none" stroke="rgb(153,223,190)" stroke-width="5" stroke-linecap="round" stroke-dashoffset="417.220000" stroke-dasharray="417.220000"/><path id="e2avm7p8azfc6" d="M226.085864,17.221987C217.296285,7.327572,204.990584,1.407153,191.895444,0.772570C167.275701,-1.107363,148.596378,4.733858,141.005841,11.380766C138.761682,13.327839,136.055491,15.476335,133.217290,17.759111C126.616822,23.197490,118.036215,29.911538,117.640187,33M265.942466,544C265.942466,544,249.815068,535.878009,230.118493,523.331843C211.677740,511.512032,177.241781,488.070509,146.705479,466.147736C123.811243,451.097220,99.452147,438.398401,74,428.245106" fill="none" stroke="rgb(153,223,190)" stroke-width="2" stroke-linecap="round" stroke-dashoffset="348.760000" stroke-dasharray="348.760000"/><path id="e2avm7p8azfc7" d="M265.942466,451.775609C265.942466,451.775609,288.062937,451.311557,306.059709,449.743719C322.733189,448.306533,331.930070,447.391958,335.039806,447C337.466688,447.434682,339.742772,448.468417,341.656268,450.005024C344.077593,452.016338,346.963671,453.407447,350.059171,454.055276C354.153757,453.782700,358.222692,453.215025,362.233459,452.356785C365.409361,451.834171,368.849918,451.246233,371.430340,450.919599C375.428966,450.667680,379.433336,451.315454,383.141473,452.814071C384.639352,453.447033,386.543853,452.796288,388.161718,452.986555C391.866938,452.986555,393.124064,456.710173,393.322559,458.735301M391.463714,466.392113C393.928178,469.463165,394.652081,473.537898,393.391138,477.241299C391.796029,483.737820,385.681437,485.556843,379.234530,487.440836L376.576011,488.220418C375.326483,488.588330,373.951398,489.082876,372.721162,489C370.490121,488.849704,369.073606,488.741571,367.889454,488.585194C365.830136,488.313245,346.954177,483.820398,339.888466,483.477957C335.036579,483.302767,330.183195,483.783727,325.466004,484.907191C317.060750,486.702737,308.394245,487.010779,299.877769,485.816706C283.813986,483.749756,269.360633,475.226079,260,462.299304M323.280215,282C323.280215,282,304.031870,261.591922,262.558629,262.376848C222.143716,263.096364,217.182802,271.076445,217.182802,271.141856" fill="none" stroke="rgb(153,223,190)" stroke-width="2" stroke-linecap="round" stroke-dashoffset="403.330000" stroke-dasharray="403.330000"/><path id="e2avm7p8azfc8" d="M403,403.818505C399.662794,406.519490,396.439507,407.678347,390.994004,407.678347C382.550226,407.678347,368.513098,399.106800,365.068966,397.835754C355.083180,394.093389,344.551098,391.921969,333.866566,391.402685C327.575115,391.209722,321.277614,391.338562,315,391.788670M231.970970,433.734844L230,432.342764C233.482047,427.238479,246.818946,416.499597,273.295645,397.408245C289.498116,384.918157,303.283681,369.525633,313.963329,352M408.937294,401C414.819517,409.714627,419.190349,419.429848,421.852584,429.707316C423.798944,438.442447,423.260518,447.576730,420.302750,456M398,456.879477C397.537397,456.879477,385.972300,462.807815,381.610605,464.371335C377.638865,465.216435,373.553514,465.414496,369.516818,464.957653C367.097717,464.762112,364.666434,464.762112,362.247330,464.957653L346.584885,465.869704L342.024932,466C338.944885,465.808087,335.913313,465.148865,333.037200,464.045602C328.544453,462.325831,323.779530,461.399628,318.960824,461.309446C312.087371,461.058870,305.251781,460.186587,298.540166,458.703582C294.178473,457.856676,290.015038,457.009770,285.917689,456.553744C278.476410,455.358245,271.140738,453.593966,263.977048,451.276872C260.293354,450.010962,256.514933,449.030777,252.676296,448.345275C248.909379,448.345275,231.660863,451.863190,231.462604,451.863190" fill="none" stroke="rgb(153,223,190)" stroke-width="2" stroke-linecap="round" stroke-dashoffset="440.050000" stroke-dasharray="440.050000"/><path id="e2avm7p8azfc9" d="M449.000184,318.191749C449.002074,319.040553,448.666297,319.855350,448.066655,320.456585C444.554575,323.102145,440.178409,324.337890,435.799993,323.920448L435.599992,323.254320C422.866661,323.254320,403.799999,310.398061,403,309.931769M377.891529,359C378.487278,364.037463,376.501453,365.628243,375.045182,366.423632C374.536183,366.714196,374.104739,367.123478,373.787491,367.616713C372.706805,369.342883,371.465665,370.962953,370.080620,372.455331C368.013327,374.633858,366.192958,377.034615,364.652699,379.613831C363.792175,381.337176,361.673962,382,359.026196,382C354.404267,382,363.694221,382.231719,359.092391,381.801152C352.524984,381.186677,346.105081,379.484364,340.094670,376.763689C332.341539,374.993027,324.273144,375.152333,316.595746,377.227666M364.741362,501C360.764622,500.532874,356.897962,499.358808,353.315323,497.530613C350.857395,496.510204,348.266608,495.421767,345.742249,494.605441C340.453066,492.961544,334.770498,493.250095,329.666076,495.421767L326.078831,496.510204C316.911424,498.959183,292.863596,493.653061,292,493.448979M171.357534,257C169.575853,246.329435,174.458978,234.134503,185.874931,220.746589C192.473748,212.992203,211.214388,207.491228,226.193703,203.183236C233.310697,201.641256,240.175245,199.097627,246.584048,195.627680C251.995077,190.192982,253.974723,183.101365,254.568616,166.598441C255.224887,157.911555,256.953837,149.340305,259.715693,141.081872C262.452967,132.195739,264.504668,123.111038,265.852593,113.908382C268.888049,91.307992,262.091267,58.766082,258.461918,54.590643" fill="none" stroke="rgb(153,223,190)" stroke-width="2" stroke-linecap="round" stroke-dashoffset="459.070000" stroke-dasharray="459.070000"/><path id="e2avm7p8azfc10" d="M384.518055,423L383,418.505037C383.848175,418.100542,384.627693,417.565208,385.310088,416.918581C387.332594,414.985746,389.882311,413.697457,392.636364,413.216846C394.880448,413.216846,396.266502,411.762594,399.236611,409.184602C399.896636,408.523578,400.622665,407.796453,401.480698,407.069326C406.898543,402.892015,410.738530,396.995125,412.371109,390.345423C412.613449,384.180670,411.078236,378.076412,407.948941,372.762192C406.773345,370.342200,405.759089,367.846884,404.912828,365.292625C403.526774,360.863765,401.546699,348.172107,399.500623,334.753324C398.048569,325.168480,396.530510,314.922613,395.342465,309.502217C394.814444,306.924225,394.220423,304.478434,393.692402,302.164853C391.316314,291.918984,389.270235,283.061266,393.098381,274.269649C397.784557,263.627166,429.201744,259.661024,435.471979,259" fill="none" stroke="rgb(153,223,190)" stroke-width="5" stroke-linecap="round" stroke-dashoffset="212.560000" stroke-dasharray="212.560000"/><path id="e2avm7p8azfc11" d="M370.362427,410C363.279000,403.398292,354.520798,398.944192,345.078301,397.141426C331.977718,395.342559,330.536654,397.141426,330.405646,397.607799C330.219546,398.067953,330.421313,398.595675,330.864169,398.807045M329,405C326.750853,404.899864,324.547905,404.316084,322.535732,403.286968C318.527890,401.508051,312.516120,397.423132,307.150780,382.862369C301.785439,368.301610,316.911823,360.065884,317.105749,360" fill="none" stroke="rgb(153,223,190)" stroke-width="2" stroke-linecap="round" stroke-dashoffset="105.500000" stroke-dasharray="105.500000"/><path id="e2avm7p8azfc12" d="M54,222.532704C60.320472,231.019066,66.175271,239.841368,71.538607,248.960747C72.207861,250.791319,73.954700,252.006729,75.906713,252.001137L76.369997,252.001137C83.155854,252.001137,69.668658,252.803364,76.369997,251.735692C83.071335,250.668020,88.762304,246.257595,91.459817,240.041282C93.392754,235.866382,94.622625,231.401781,95.099905,226.827261C95.985265,219.600901,97.994951,212.556752,101.056413,205.949107C104.033471,198.586472,108.391360,191.859006,113.895997,186.128074C116.080050,183.485270,118.528837,180.908536,121.639458,176.878259C127.868816,169.540185,135.523792,163.539069,144.141821,159.237540C146.789158,157.651858,149.304128,156.198315,152.216199,154.216212C155.128270,152.234109,157.709423,150.714496,159.959660,149.393094C165.982351,145.759238,170.019540,143.314644,171.078474,138.491527C171.578382,136.980268,172.415721,135.602153,173.527261,134.461250C177.710149,130.372264,179.062228,124.194498,176.968799,118.736564C175.693702,115.420280,174.144063,112.215809,172.335960,109.156398C167.784877,103.057999,165.834029,95.410471,166.908919,87.881823C167.570753,84.974739,168.034037,82.464075,168.497321,80.283761C168.709873,74.644799,171.078277,69.301372,175.115663,65.351917L177.895367,62.907323C180.612886,60.800475,182.546517,57.846853,183.388591,54.516419C183.719508,53.657508,184.182792,52.600386,184.646076,51.345054C188.581755,41.169478,196.281719,32.891407,206.155688,28.220516L211.648912,25.445571C220.318941,20.820664,226.606366,17.451088,235.805862,24.917011C243.350772,30.599040,245.270091,31.061531,249.042546,31.524021C253.282132,32.083471,257.411135,33.286630,261.286479,35.091807C271.015442,38.923873,274.390797,36.545350,277.633785,33.506124C279.685471,31.325811,280.876772,30.202619,286.700913,33.506124C291.497160,36.608590,297.263956,37.853965,302.915852,37.007840C308.364725,36.295340,313.872159,37.794796,318.204221,41.170257C323.924022,45.339332,331.047085,47.117048,338.059249,46.125515C341.908462,45.338939,345.912898,46.124178,349.178064,48.305829C353.661514,51.149254,359.387336,51.149254,363.870783,48.305829C368.106525,46.389796,370.952410,45.134464,376.048534,51.345054C380.635913,57.034655,386.807484,61.241610,393.785692,63.435884C398.148916,64.505635,401.937335,67.200262,404.375039,70.967876C405.445705,73.090893,407.457390,74.584828,409.802080,74.998152C413.375984,75.526713,416.023321,72.355348,419.067758,68.919702C422.112197,65.484057,424.428617,63.105533,426.149385,64.096585C432.039709,67.201880,435.944531,62.312692,438.260951,59.339537C438.988970,58.414555,440.445005,56.498522,440.974470,56.498522L441.173021,56.498522C442.744503,57.835533,444.734050,58.583257,446.798613,58.612766C448.320833,58.678836,449.776867,58.744906,454.939173,66.673319C457.321778,70.241105,458.910179,72.487488,460.167663,74.073171C462.748816,77.310606,462.748816,77.310606,462.748816,83.455126L462.748816,87.485403C463.071919,91.156910,462.826367,94.856197,462.020800,98.453041C461.292781,101.029775,462.020800,101.888686,464.072485,103.936860C466.572802,107.362449,470.332621,105.035974,471.327777,109.156398" fill="none" stroke="rgb(153,223,190)" stroke-width="5" stroke-linecap="round" stroke-dashoffset="662.530000" stroke-dasharray="662.530000"/><path id="e2avm7p8azfc13" d="M63,236.800995C56.869744,226.010503,52.944615,218.824212,51.224615,215.242123C44.609231,201.112769,20.264615,199.189055,20,199.189055" fill="none" stroke="rgb(153,223,190)" stroke-width="2" stroke-linecap="round" stroke-dashoffset="61.130000" stroke-dasharray="61.130000"/><path id="e2avm7p8azfc14" d="M57.790277,279.855450C57.790277,279.855450,49.879973,253.611871,45.782569,243.099599C40.631106,233.466382,32.835142,225.506570,23.312937,220.157722C20.735003,218.364062,18.497129,216.125247,16.704221,213.546230C14.985955,211.232208,14.391171,210.438829,11.813772,211.232208C5.077407,211.828452,0.054895,217.705204,0.512869,224.455192L1.285760,226.765170" fill="none" stroke="rgb(153,223,190)" stroke-width="2" stroke-linecap="round" stroke-dashoffset="108.340000" stroke-dasharray="108.340000"/><path id="e2avm7p8azfc15" d="M59.584287,319C55.665149,312.023927,51,302.059045,51,296.725842C51.924622,289.843541,55.429588,283,59.251563,278.031460C60.665341,275.897715,61.954028,273.684279,63.111165,271.402247C64.499965,268.188087,64.916276,264.639843,64.308973,261.193258L64.308973,260" fill="none" stroke="rgb(153,223,190)" stroke-width="2" stroke-linecap="round" stroke-linejoin="round" stroke-dashoffset="64" stroke-dasharray="64"/><path id="e2avm7p8azfc16" d="M19,224.986622C13.876124,236.290893,9.438552,247.887888,5.710963,259.715719C3.053156,270.502787,1.259136,282.868450,1.259136,283M14.034237,346C17.511161,352.069187,20.327425,358.501826,22.433666,365.185166C23.758871,371.795896,28.980090,376.893044,35.557775,377.997405C42.861132,378.886204,50.266242,378.299532,57.343795,376.271406M58.882863,336C56.156716,335.987181,53.581137,334.750287,51.869845,332.632077C51.283616,332.024584,50.731438,331.385244,50.215831,330.716983C47.834757,327.614429,45.054086,324.838920,41.945763,322.462264C37.594908,319.800816,32.984030,317.588160,28.184370,315.858492C22.100052,313.808965,17.452751,308.847819,15.812349,302.650945C15.608806,300.944266,15.231959,299.262664,14.687619,297.632076C12.702803,289.839623,9.990221,279.075472,14.290656,273.990566C18.591091,268.905660,30.036866,259.330189,34.800425,259M1.254144,306C3.741788,312.053279,8.494223,316.914171,14.513812,319.562275L18.889503,321.142348C25.519337,323.314944,26.248619,323.907473,28.370166,330.688610C29.420580,334.744945,31.742324,338.364677,35,341.024911" fill="none" stroke="rgb(153,223,190)" stroke-width="2" stroke-linecap="round" stroke-dashoffset="286.140000" stroke-dasharray="286.140000"/><path id="e2avm7p8azfc17" d="M438.666667,280C443.636249,281.000076,448.247281,283.392591,452,286.918239L454,290.031447M295.497371,277C296.167543,279.172578,296.167543,281.494088,295.497371,283.666667C294.959314,285.533333,294.354000,286.600000,293.479657,287L292.807085,287" fill="none" stroke="rgb(153,223,190)" stroke-width="2" stroke-linecap="round" stroke-dashoffset="30.370000" stroke-dasharray="30.370000"/><path id="e2avm7p8azfc18" d="M318.849753,290L318.849753,287.847720C319.715646,287.847720,319.915469,286.869410,319.982078,286.543307C320.048683,286.217204,319.982078,284.847571,319.249395,284.651909L316.851532,283.673600C312.820670,281.721562,308.468202,280.484963,303.996313,280.021245C300.602598,279.372620,297.354455,278.135752,294.404855,276.368891C284.657465,270.876514,273.674339,267.829416,262.433329,267.498887C249.865098,266.994782,237.385092,269.762889,226.265540,275.521023M299,303.571427C289.417927,309.730161,278.367658,312.995479,267.092466,313.000072C255.817274,313.004521,278.367659,312.795030,267.092466,312.795030L262.345890,312.795030C241.579623,311.155277,222.791096,293.527950,222,292.776397M285,287.011718C280.907332,287.722221,276.764759,288.050768,272.618984,287.993655C267.950837,287.929345,277.091004,287.973184,272.422460,287.993655C267.231499,288.016417,262.051743,287.475929,256.962567,286.380473C249.702328,284.554039,242.666876,281.823421,236,278.244427" fill="none" stroke="rgb(153,223,190)" stroke-width="2" stroke-linecap="round" stroke-dashoffset="256.650000" stroke-dasharray="256.650000"/><path id="e2avm7p8azfc19" d="M394,286.301344C402.374153,282.892089,411.163504,280.630346,420.133335,279.576516C431.005024,278.135614,442.061131,279.405575,452.333335,283.275172C455.051361,284.230147,457.390075,286.046668,459,288.453289M452,295.806547C452,298.713678,445.371428,301.747204,435.892571,301.747204C426.178579,301.747204,445.634659,302.860536,435.958858,302C426.048846,301.118634,416.355103,298.706681,407.257145,294.858569L406.196572,294.416180C402.212279,293.469295,398.092545,293.149089,394,293.468202" fill="none" stroke="rgb(153,223,190)" stroke-width="2" stroke-linecap="round" stroke-dashoffset="141.030000" stroke-dasharray="141.030000"/><path id="e2avm7p8azfc20" d="M263,276C263,273.238576,260.761424,271,258,271C255.238576,271,253,273.238576,253,276C253,278.761424,255.238576,281,258,281C260.761424,281,263,278.761424,263,276ZM271.954894,268.620767C275.228657,274.449325,274.524302,281.670626,270.184316,286.773355C265.206110,287.318549,260.167920,286.877766,255.363928,285.476742C250.469318,284.297431,245.767154,282.442335,241.396040,279.966135C241.135591,278.816950,241.003645,277.642955,241.002578,276.465278C240.962683,274.158462,241.386182,271.866746,242.248540,269.722888L257.921428,267L271.561432,268.685598L271.954894,268.620767Z" fill="rgb(153,223,190)" fill-opacity="0" stroke="none" stroke-width="1"/><path id="e2avm7p8azfc21" d="M419,294C421.761423,294,424,291.537566,424,288.500000C424,285.462434,421.761423,283,419,283C416.238577,283,414,285.462434,414,288.500000C414,291.537566,416.238577,294,419,294ZM424,283C428.789164,290.305298,435.531394,296.475861,428.885265,302L402.568759,293.332344C401.643762,289.719461,401.851142,285.894946,403.160880,282.412463C403.160880,282.412463,413.226943,280.364985,418.556035,279.955489L432.174829,279L424,283Z" fill="rgb(153,223,190)" fill-opacity="0" stroke="none" stroke-width="1"/><path id="e2avm7p8azfc22" d="M290.210451,242.885459C280.061471,237.120882,268.759883,233.629172,257.101227,232.656116C247.963082,231.082371,238.427625,227.541445,229.686791,231.082371C221.412091,234.085582,212.582350,235.293143,203.795378,234.623298C199.822271,233.836425,202.206135,228.721754,213.330834,224.787392C224.455533,220.853029,246.440058,222.426774,254.717363,220.459593C262.994669,218.492412,292.925407,223.213647,302.858174,227.541445C312.790941,231.869244,323.915640,233.442989,327.094127,236.590479C330.272610,239.737969,341,242.492022,341,245.705085C340.204701,249.304994,338.888837,252.772382,337.093112,256C337.093112,256,302.527082,250.885329,290.210451,242.885459ZM435.312600,258.290358C436.494740,263.874036,452.256645,263.874036,458.167360,261.481031C464.125851,260.152427,470.283642,260.016936,476.293549,261.082197C476.293549,261.082197,485.750692,250.712511,482.204264,243.533497C478.657836,236.354483,480.234026,242.270522,470.382837,242.669356C460.531644,243.068190,458.955455,244.729999,453.438788,244.729999C449.807812,244.794694,446.212587,245.468564,442.799504,246.724170C436.232043,250.712511,434.130456,252.706681,435.312600,258.290358Z" fill="rgb(153,223,190)" fill-opacity="0" stroke="none" stroke-width="1"/></g></g></svg>